<?xml version="1.0" encoding="UTF-8"?>
<svg id="Layer_2" data-name="Layer 2" xmlns="http://www.w3.org/2000/svg" xmlns:xlink="http://www.w3.org/1999/xlink" viewBox="0 0 180 196">
  <defs>
    <style>
      .cls-1 {
        fill: none;
      }

      .cls-2 {
        fill: #ffe222;
      }

      .cls-3 {
        clip-path: url(#clippath-1);
      }

      .cls-4 {
        clip-path: url(#clippath-2);
      }

      .cls-5 {
        clip-path: url(#clippath);
      }
    </style>
    <clipPath id="clippath">
      <rect class="cls-1" width="180" height="196"/>
    </clipPath>
    <clipPath id="clippath-1">
      <rect class="cls-1" x="1.3" y=".8" width="178.6" height="195.1"/>
    </clipPath>
    <clipPath id="clippath-2">
      <path class="cls-1" d="M92.3,30.5c-54.8,52-56.4,52.7-59.2,53.1-2.7.5-5.8.1-8.5-.9s-5.3-2.9-7.1-5.1c-1.9-2.2-3.5-5.3-4.2-8.2s-.8-6.4-.2-9.4c.6-2.9,2.4-6.4,3.8-8.4,1-1.5,1.3-2,3.2-3.2,6.6-4.1,34-11.6,51.4-16.4,17.6-4.8,39.2-12.4,53.7-12.5,9.9,0,20.2.3,25,5.6,4.4,4.7,6.4,15.8,4.5,22.6-2.2,7.7-12.9,14.4-20.1,20.5-7.2,6.2-15.5,10.3-23.4,16-8.2,6-14.7,11.2-24.5,19-15.2,12.4-46.9,42.2-57.6,48.5-3.7,2.2-5.3,2.9-8.1,3.2-2.8.3-5.9-.2-8.5-1.3-2.6-1.1-5.1-3.1-6.9-5.5-1.8-2.2-3.3-5.4-3.9-8.3-.6-3-.5-6.5.2-9.4.7-2.9,2.7-6.3,4.1-8.3,1-1.3,1.6-1.9,3.3-3,3.9-2.5,12.3-5.5,20.8-8.6,13-4.8,35.9-12.4,49.9-16.3,9.8-2.7,16.4-4,25.5-5.8,10.1-2,25.3-5.8,32.6-5.6,3.7.2,5.8.7,8.4,2,2.4,1.3,4.9,3.5,6.5,5.9,1.6,2.5,2.9,5.7,3.3,8.7.5,2.9.2,6.4-.7,9.3-.9,2.9-2.6,5.8-4.6,7.8-2,2.1-5.2,3.8-7.4,4.7-1.5.6-2.3-.1-4.3.7-4.8,2.3-14.8,13.1-23.6,19.7-10.3,7.7-25.7,16.6-34.4,23.3-5.6,4.4-9.3,9.2-13.4,11.9-2.9,1.8-5.1,3.1-7.8,3.6-2.8.5-6.3-.1-8.6-.8-1.5-.6-2.6-1-3.9-2.1-1.8-1.5-4.5-4.1-5.8-6.8-1.4-2.6-2.1-6.5-2.3-9,0-1.8,0-3,.4-4.7.6-2.5,2.3-6.4,3.7-8.5,1-1.5,1.5-2.4,3.2-3.2,3.4-1.8,10.3-2.2,17.8-3.2,13-1.7,36.5-2.6,52.6-4.2,13.7-1.3,27.3-5.7,38.1-4.8,7.9.6,17,1.1,20.8,5.9,3.6,4.6,4,15.2,1.8,21.4-2.4,6.7-9.8,11.7-16.7,17-8.8,6.6-26.9,15.8-32.9,17.8-1.9.7-2.6.8-4.2.7-2.4-.1-5.9-.7-8.4-1.9-2.6-1.3-5.1-4-6.6-6-1-1.3-1.5-2.7-2-4.1-.6-1.5-1-2.7-1.2-4.5-.2-2.6.2-6.9.8-9.4.4-1.7.9-2.8,1.8-4.2,1.4-2,3.9-6.8,6.2-6.4,4.8.8,19.3,29,17.4,33.9-.9,2.4-5.9,2.2-8.3,2.5-1.6.2-2.8.1-4.3-.5-2.2-.7-5.6-2.1-7.8-4-2-1.9-4-5.3-5-7.6-.7-1.6-1-2.7-1.2-4.5-.2-2.6.2-6.9.8-9.4.4-1.7.9-2.8,1.8-4.2,1.4-2,3.2-5.1,6.2-6.4,5.2-2,21.7-2.6,23.9,1.9,2.6,5.5-20.4,30.1-18.3,33.7,1.2,2.1,11.9-1.8,12-1.5,0,.2-5.5,2.4-8.3,2.5s-6.2-1-8.4-1.9c-1.5-.7-2.4-1.3-3.7-2.6-1.6-1.8-4-4.7-5-7.6-1.1-2.8-1.5-6.1-1.3-9.2.3-3,1.3-6.4,2.8-9,1.5-2.5,3.9-6.7,6.2-6.4,4.8.8,19.1,30.1,17.8,34.2-.4,1.6-2.6,1.5-4,1.9-1.3.3-2.6.8-4.2.7-2.4-.1-5.9-.7-8.4-1.9-2.6-1.3-4.9-3.6-6.6-6-1.6-2.5-2.9-5.7-3.3-8.6-.4-3,.2-6.9.8-9.4.4-1.7.9-2.8,1.8-4.2,1.3-2,3.2-4.3,5.8-6.3,4.2-3.2,11.7-7,17.9-9.2,5.9-1.9,13.8-5.9,18.3-3.1,5.2,3.2,12.2,19.7,9.4,25-3.7,6.8-29.3,4-41.4,5-9.3.9-16.5,1.5-24.9,1.5s-19.6-2.7-25.6-1.6c-3.5.7-5.1,3.1-7.8,3.6-2.8.5-5.9.1-8.6-.8-2.6-1-5.4-3.4-7.2-5.1-1.2-1.2-1.8-2.4-2.6-3.8-.7-1.3-1.3-2.6-1.6-4.4-.5-2.5-.7-6.8-.3-9.3.2-1.8.6-2.9,1.3-4.5,1.2-2.2,5.5-7.3,5.5-7.3,0,.1-2,2.7-1.8,2.8.2.2,9.7-10,14.8-14.2,4.9-4.2,8.7-6.9,15-11.4,10.5-7.5,30.9-21,42.7-28.2,8-4.8,15.2-10.6,20.7-11.4,3.3-.5,6.2,1,8.4,2,1.5.7,2.4,1.3,3.6,2.6,1.7,1.7,4.1,4.7,5.1,7.5,1,2.8,1.3,6.7,1.3,9.3-.1,1.8-.3,2.9-.9,4.6-.9,2.4-2.6,5.8-4.6,7.8-2,2.1-3.8,3.2-7.4,4.7-8.2,3.1-27.1,3.9-41.8,7.4-16.4,3.8-37.3,10.2-52,15.2-11,3.7-23.3,10.1-28.7,11.1-2,.3-2.7.2-4.3-.1-2.2-.6-6-2.1-8-3.5-1.4-1-2.1-1.8-3.2-3.2-1.4-2-3.3-5.4-3.9-8.3-.6-3-.5-6.5.2-9.4s1.6-5,4.1-8.3c5.7-7.4,21.8-19.5,34.7-30.2,15.5-12.9,36.6-33.8,52.1-41.3,10.4-5.2,21-8.7,28.7-6.6,6.4,1.8,16,11.3,15.3,14-.7,2.7-10.9.7-19.5,2.2-17.1,3.2-63.9,15.5-76.2,19.8-4.1,1.5-5.2,3.1-8,3.6-2.7.5-6.2-.2-8.5-.9-1.5-.4-2.7-1.2-3.9-2.1-1.1-.8-2.2-1.6-3.3-3-1.5-1.9-3.4-5.7-4.2-8.2-.5-1.7-.6-2.9-.6-4.7,0-2.6.9-6.8,1.8-9.2.6-1.6,1.1-2.2,2.3-3.9,2.7-3.5,8.2-8.8,14.1-14.8C39.8,27.8,56.8.6,67.6,1.3c9.2.7,24.1,29.5,24.1,29.5l.6-.3Z"/>
    </clipPath>
  </defs>
  <g id="Layer_2-2" data-name="Layer 2">
    <g id="Layer_1-2" data-name="Layer 1-2">
      <g>
        <g class="cls-5">
          <g class="cls-3">
            <g class="cls-4">
              <rect class="cls-2" x="-61.4" y="-111.9" width="341.3" height="436.3"/>
            </g>
          </g>
        </g>
        <path d="M67.1,152.7c2.9-.1,5-.5,6.5-1,1.5-.6,2.7-1.8,3.5-3.8.8-1.9,1.3-4.9,1.3-9.1v-61.1c0-6,.2-10.7.6-14.4l-12,.5v-12.3h45.8v10.5c-2.9.1-5.1.4-6.5,1-1.5.6-2.7,1.8-3.5,3.8-.9,1.9-1.3,4.9-1.3,9.1v61.1c0,5.9-.2,10.7-.6,14.4,3.4-.3,7.4-.5,12-.5v12.3h-45.8v-10.5h0Z"/>
        <path d="M139.6,165.8c-3.4,0-6.2-1.2-8.5-3.6-2.2-2.4-3.3-5.3-3.3-8.9s1.2-6.3,3.5-8.8c2.3-2.4,5.1-3.7,8.1-3.7s6,1.2,8.2,3.7,3.3,5.4,3.3,8.8-1,6.5-3.1,8.9-4.8,3.6-8.2,3.6h0Z"/>
      </g>
    </g>
  </g>
</svg>