<?xml version="1.0" encoding="UTF-8"?>
<svg id="Layer_2" data-name="Layer 2" xmlns="http://www.w3.org/2000/svg" xmlns:xlink="http://www.w3.org/1999/xlink" viewBox="0 0 1009.33 841.81">
  <defs>
    <style>
      .cls-1 {
        fill: none;
      }

      .cls-2 {
        fill: #ffe222;
      }

      .cls-3 {
        clip-path: url(#clippath-1);
      }

      .cls-4 {
        clip-path: url(#clippath-3);
      }

      .cls-5 {
        clip-path: url(#clippath-2);
      }

      .cls-6 {
        clip-path: url(#clippath);
      }
    </style>
    <clipPath id="clippath">
      <rect class="cls-1" y="489.81" width="1009.33" height="352"/>
    </clipPath>
    <clipPath id="clippath-1">
      <rect class="cls-1" y="491.15" width="1008" height="349.91"/>
    </clipPath>
    <clipPath id="clippath-2">
      <rect class="cls-1" x="-1.94" y="495.93" width="1025.29" height="342.62" transform="translate(-14.72 11.53) rotate(-1.28)"/>
    </clipPath>
    <clipPath id="clippath-3">
      <path class="cls-1" d="M22.47,543.03c628.51-15.83,870.85-91.78,947.84-32.59,62.05,46.89,70.7,223.25,13.76,275.55-71.28,65.66-324.62,16.42-485.22,22.3-158.25,6.28-395.49,73.97-470.18,13.22-60.22-47.85-6.2-278.48-6.2-278.48Z"/>
    </clipPath>
  </defs>
  <g id="Layer_1-2" data-name="Layer 1">
    <g>
      <g class="cls-6">
        <g class="cls-3">
          <g class="cls-5">
            <g class="cls-4">
              <path class="cls-2" d="M-1.65,513.69l1002.03-22.31,7.29,327.19L5.63,840.88-1.65,513.69Z"/>
            </g>
          </g>
        </g>
      </g>
      <path d="M336.86,532.25c15.11-.55,26.58-2.36,34.42-5.44,7.83-3.08,13.98-9.66,18.46-19.73,4.48-10.08,6.73-26.03,6.73-47.85V137.69c0-31.34,1.11-56.53,3.35-75.56l-62.96,2.52V0h240.94v55.42c-15.11.56-26.58,2.38-34.42,5.46-7.83,3.07-13.99,9.65-18.48,19.73-4.47,10.07-6.71,26.02-6.71,47.85v321.52c0,31.35-1.12,56.54-3.35,75.56,17.9-1.68,38.89-2.52,62.96-2.52v64.65h-240.94v-55.42Z"/>
      <path d="M718.84,601.1c-17.91,0-32.74-6.3-44.5-18.9-11.75-12.59-17.63-28.13-17.63-46.58s6.15-33.31,18.46-46.19c12.32-12.88,26.59-19.31,42.83-19.31,17.34,0,31.76,6.44,43.23,19.31,11.47,12.88,17.21,28.27,17.21,46.19s-5.46,33.99-16.38,46.58c-10.91,12.59-25.31,18.9-43.23,18.9Z"/>
    </g>
  </g>
</svg>