<?xml version="1.0" encoding="UTF-8"?>
<svg id="Layer_2" data-name="Layer 2" xmlns="http://www.w3.org/2000/svg" xmlns:xlink="http://www.w3.org/1999/xlink" viewBox="0 0 250.3 250.3">
  <defs>
    <style>
      .cls-1 {
        fill: #fff;
      }

      .cls-2 {
        fill: none;
      }

      .cls-3 {
        fill: #ffe222;
      }

      .cls-4 {
        clip-path: url(#clippath-1);
      }

      .cls-5 {
        clip-path: url(#clippath-2);
      }

      .cls-6 {
        clip-path: url(#clippath);
      }
    </style>
    <clipPath id="clippath">
      <rect class="cls-2" x="35.15" y="27.15" width="180" height="196"/>
    </clipPath>
    <clipPath id="clippath-1">
      <rect class="cls-2" x="36.39" y="27.93" width="178.57" height="195.14"/>
    </clipPath>
    <clipPath id="clippath-2">
      <path class="cls-2" d="M127.46,57.62c-54.78,52.02-56.41,52.69-59.17,53.14-2.65.45-5.81.11-8.47-.9-2.65-1.01-5.3-2.91-7.14-5.15-1.94-2.23-3.47-5.26-4.18-8.17-.71-2.91-.81-6.38-.2-9.4.61-2.91,2.45-6.38,3.78-8.39,1.02-1.45,1.32-2.01,3.16-3.24,6.63-4.14,33.97-11.63,51.41-16.44,17.55-4.81,39.17-12.42,53.66-12.53,9.89,0,20.2.34,24.99,5.59,4.39,4.7,6.43,15.78,4.49,22.6-2.24,7.72-12.85,14.43-20.09,20.47-7.24,6.16-15.51,10.29-23.36,16-8.16,6.04-14.69,11.19-24.48,19.02-15.2,12.42-46.93,42.18-57.64,48.55-3.68,2.23-5.31,2.91-8.06,3.24-2.76.33-5.92-.22-8.46-1.34-2.55-1.12-5.1-3.13-6.94-5.48-1.84-2.23-3.27-5.36-3.88-8.28-.61-3.02-.51-6.49.2-9.4.71-2.91,2.65-6.27,4.08-8.28,1.02-1.34,1.64-1.91,3.27-3.02,3.88-2.46,12.34-5.48,20.81-8.61,12.96-4.81,35.91-12.42,49.89-16.33,9.79-2.69,16.42-4.03,25.51-5.82,10.1-2.02,25.3-5.82,32.64-5.59,3.67.22,5.81.67,8.36,2.02,2.45,1.34,4.9,3.47,6.53,5.93,1.63,2.46,2.85,5.71,3.26,8.72.51,2.91.21,6.38-.71,9.29-.92,2.91-2.55,5.82-4.59,7.83-2.04,2.12-5.2,3.8-7.45,4.7-1.53.56-2.34-.11-4.28.67-4.8,2.35-14.79,13.09-23.57,19.69-10.3,7.72-25.71,16.56-34.38,23.27-5.61,4.36-9.29,9.17-13.36,11.86-2.86,1.79-5.1,3.13-7.85,3.58-2.76.45-6.33-.11-8.57-.78-1.53-.56-2.55-1.01-3.88-2.12-1.83-1.45-4.49-4.14-5.81-6.82-1.43-2.57-2.14-6.49-2.35-8.95-.1-1.79-.1-3.02.41-4.7.61-2.46,2.34-6.38,3.67-8.5,1.02-1.45,1.53-2.35,3.16-3.24,3.36-1.79,10.3-2.24,17.85-3.24,12.95-1.68,36.52-2.57,52.64-4.25,13.67-1.34,27.34-5.7,38.05-4.81,7.95.56,17.03,1.12,20.81,5.93,3.57,4.58,3.98,15.21,1.84,21.36-2.35,6.71-9.8,11.74-16.73,17.01-8.78,6.6-26.93,15.77-32.85,17.79-1.94.67-2.55.78-4.18.67-2.35-.11-5.92-.67-8.36-1.9-2.55-1.34-5.1-4.03-6.63-6.04-1.02-1.34-1.53-2.69-2.04-4.14-.61-1.45-1.02-2.68-1.22-4.47-.2-2.57.2-6.94.82-9.4.41-1.68.92-2.8,1.83-4.25,1.43-2.02,3.88-6.83,6.22-6.38,4.79.79,19.28,28.97,17.44,33.9-.92,2.35-5.92,2.24-8.26,2.46-1.64.22-2.76.11-4.29-.45-2.24-.67-5.61-2.12-7.76-4.03-2.04-1.9-3.97-5.26-4.99-7.61-.71-1.57-1.02-2.68-1.22-4.47-.2-2.57.2-6.94.81-9.4.41-1.68.92-2.8,1.84-4.25,1.43-2.02,3.16-5.15,6.22-6.38,5.2-2.01,21.73-2.57,23.87,1.91,2.55,5.48-20.4,30.09-18.26,33.67,1.22,2.12,11.93-1.79,12.04-1.46,0,.22-5.51,2.35-8.26,2.46-2.76.11-6.22-1.01-8.36-1.9-1.53-.67-2.45-1.34-3.68-2.57-1.63-1.79-3.97-4.7-4.99-7.61-1.12-2.8-1.53-6.15-1.33-9.17.31-3.02,1.33-6.38,2.76-8.95,1.53-2.46,3.88-6.71,6.22-6.38,4.79.79,19.07,30.09,17.75,34.23-.41,1.56-2.55,1.45-3.98,1.9-1.33.33-2.55.78-4.18.67-2.35-.11-5.92-.67-8.36-1.9-2.55-1.34-4.9-3.58-6.63-6.04-1.64-2.46-2.86-5.71-3.27-8.61-.41-3.02.2-6.94.82-9.4.41-1.68.92-2.8,1.83-4.25,1.33-2.02,3.16-4.26,5.82-6.27,4.18-3.24,11.73-7.05,17.85-9.17,5.92-1.91,13.77-5.93,18.26-3.14,5.2,3.24,12.24,19.69,9.39,24.95-3.67,6.82-29.28,4.03-41.42,5.03-9.28.9-16.53,1.46-24.89,1.46s-19.59-2.69-25.6-1.57c-3.47.67-5.1,3.13-7.85,3.58-2.76.45-5.92.11-8.57-.78-2.55-1.01-5.41-3.35-7.15-5.15-1.22-1.23-1.83-2.35-2.55-3.8-.71-1.34-1.33-2.57-1.64-4.36-.51-2.46-.71-6.82-.3-9.29.2-1.79.61-2.91,1.32-4.47,1.22-2.23,5.51-7.27,5.51-7.27,0,.11-2.04,2.69-1.84,2.8.21.22,9.69-9.96,14.79-14.21,4.9-4.25,8.67-6.93,15-11.41,10.51-7.49,30.91-21.03,42.74-28.19,7.96-4.81,15.2-10.63,20.71-11.41,3.27-.45,6.22,1.01,8.36,2.02,1.53.67,2.35,1.34,3.57,2.57,1.73,1.68,4.08,4.7,5.1,7.49,1.02,2.8,1.33,6.71,1.33,9.29-.1,1.79-.31,2.91-.92,4.58-.92,2.35-2.55,5.82-4.59,7.83-2.04,2.12-3.78,3.24-7.45,4.7-8.16,3.13-27.14,3.91-41.82,7.38-16.43,3.81-37.34,10.18-52.03,15.21-11.02,3.69-23.26,10.07-28.67,11.08-2.04.33-2.65.22-4.28-.11-2.24-.56-6.02-2.12-7.96-3.47-1.43-1.01-2.14-1.79-3.16-3.24-1.43-2.01-3.27-5.36-3.88-8.28-.61-3.02-.51-6.49.2-9.4.71-2.91,1.63-5.04,4.08-8.28,5.71-7.39,21.83-19.47,34.68-30.21,15.51-12.86,36.62-33.78,52.13-41.28,10.41-5.15,21.02-8.72,28.67-6.6,6.42,1.79,16.02,11.3,15.3,13.98-.71,2.69-10.91.67-19.48,2.24-17.14,3.24-63.86,15.55-76.2,19.8-4.08,1.45-5.2,3.13-7.96,3.58-2.65.45-6.22-.22-8.47-.9-1.53-.45-2.65-1.23-3.88-2.12-1.12-.78-2.24-1.57-3.27-3.02-1.53-1.9-3.36-5.7-4.18-8.17-.51-1.68-.61-2.91-.61-4.7.1-2.57.92-6.82,1.83-9.17.61-1.57,1.12-2.24,2.35-3.92,2.65-3.47,8.16-8.84,14.08-14.77,9.39-9.4,26.42-36.58,37.23-35.91,9.18.67,24.07,29.54,24.07,29.54h0Z"/>
    </clipPath>
  </defs>
  <g id="Layer_2-2" data-name="Layer 2">
    <g id="Layer_1-2" data-name="Layer 1-2">
      <circle class="cls-1" cx="125.15" cy="125.15" r="125.15"/>
      <g>
        <g class="cls-6">
          <g class="cls-4">
            <g class="cls-5">
              <rect class="cls-3" x="-26.32" y="-84.84" width="341.28" height="436.32"/>
            </g>
          </g>
        </g>
        <path d="M102.19,179.81c2.86-.11,5.03-.46,6.52-1.04,1.5-.58,2.67-1.83,3.52-3.75.84-1.92,1.27-4.94,1.27-9.08v-61.08c0-5.96.21-10.74.65-14.35l-11.96.48v-12.27h45.77v10.52c-2.88.1-5.06.45-6.54,1.04-1.49.58-2.66,1.83-3.52,3.75-.85,1.91-1.27,4.93-1.27,9.08v61.08c0,5.95-.21,10.73-.63,14.35,3.4-.32,7.39-.48,11.96-.48v12.27h-45.77v-10.52h0Z"/>
        <path d="M174.74,192.87c-3.41,0-6.22-1.2-8.46-3.58-2.22-2.39-3.33-5.34-3.33-8.85s1.17-6.32,3.5-8.77c2.34-2.44,5.06-3.67,8.15-3.67,3.29,0,6.03,1.22,8.21,3.67,2.18,2.45,3.27,5.37,3.27,8.77s-1.04,6.47-3.13,8.85c-2.07,2.39-4.81,3.58-8.21,3.58h0Z"/>
      </g>
    </g>
  </g>
</svg>