<svg xmlns="http://www.w3.org/2000/svg" xmlns:xlink="http://www.w3.org/1999/xlink" width="2000" zoomAndPan="magnify" viewBox="0 0 1500 1499.999933" height="2000" preserveAspectRatio="xMidYMid meet" version="1.0"><defs><filter x="0%" y="0%" width="100%" height="100%" id="6cc69577eb"><feColorMatrix values="0 0 0 0 1 0 0 0 0 1 0 0 0 0 1 0 0 0 1 0" color-interpolation-filters="sRGB"/></filter><g/><clipPath id="8124b7a96d"><path d="M 11.320312 178 L 1205.238281 178 L 1205.238281 313.625 L 11.320312 313.625 Z M 11.320312 178 " clip-rule="nonzero"/></clipPath><clipPath id="c06abdf75b"><path d="M 14.046875 223.976562 C 298.167969 208.996094 383.992188 206.613281 457.554688 203.113281 C 522.855469 200.171875 575.097656 196.113281 641.730469 193.453125 C 720.890625 190.371094 812.308594 187.992188 901.597656 186.449219 C 995.953125 184.769531 1152.671875 163.546875 1193.984375 184.351562 C 1214.78125 200.171875 1214.78125 252.125 1194.25 268.367188 C 1153.472656 289.929688 1000.75 268.785156 908.796875 270.328125 C 822.4375 271.726562 735.28125 273.96875 657.722656 277.046875 C 590.289062 279.707031 535.648438 283.910156 469.816406 286.992188 C 396.785156 290.351562 313.628906 292.453125 238.734375 296.09375 C 167.570312 299.59375 66.554688 323.089844 30.835938 308.414062 C 1.382812 295.113281 14.046875 223.976562 14.046875 223.976562 " clip-rule="nonzero"/></clipPath><mask id="1f469af390"><g filter="url(#6cc69577eb)"><rect x="-475" width="2160" fill="#000000" y="-809.999985" height="2159.999904" fill-opacity="0.7"/></g></mask><clipPath id="bf4f6c2480"><path d="M 0.320312 0.558594 L 1194.238281 0.558594 L 1194.238281 135.625 L 0.320312 135.625 Z M 0.320312 0.558594 " clip-rule="nonzero"/></clipPath><clipPath id="3dcabdb453"><path d="M 3.046875 45.976562 C 287.167969 30.996094 372.992188 28.613281 446.554688 25.113281 C 511.855469 22.171875 564.097656 18.113281 630.730469 15.453125 C 709.890625 12.371094 801.308594 9.992188 890.597656 8.449219 C 984.953125 6.769531 1141.671875 -14.453125 1182.984375 6.351562 C 1203.78125 22.171875 1203.78125 74.125 1183.25 90.367188 C 1142.472656 111.929688 989.75 90.785156 897.796875 92.328125 C 811.4375 93.726562 724.28125 95.96875 646.722656 99.046875 C 579.289062 101.707031 524.648438 105.910156 458.816406 108.992188 C 385.785156 112.351562 302.628906 114.453125 227.734375 118.09375 C 156.570312 121.59375 55.554688 145.089844 19.835938 130.414062 C -9.617188 117.113281 3.046875 45.976562 3.046875 45.976562 " clip-rule="nonzero"/></clipPath><clipPath id="e9b961595a"><rect x="0" width="1195" y="0" height="136"/></clipPath><clipPath id="a3ae6a169a"><path d="M 0.679688 369 L 890 369 L 890 375 L 0.679688 375 Z M 0.679688 369 " clip-rule="nonzero"/></clipPath><clipPath id="3aa17db3d9"><rect x="0" width="1206" y="0" height="533"/></clipPath></defs><g transform="matrix(1, 0, 0, 1, 145, 480)"><g clip-path="url(#3aa17db3d9)"><g clip-path="url(#8124b7a96d)"><g clip-path="url(#c06abdf75b)"><g mask="url(#1f469af390)"><g transform="matrix(1, 0, 0, 1, 11, 178)"><g clip-path="url(#e9b961595a)"><g clip-path="url(#bf4f6c2480)"><g clip-path="url(#3dcabdb453)"><path fill="#fff732" d="M -7.617188 0.75 L 1194.121094 0.75 L 1194.121094 136.15625 L -7.617188 136.15625 Z M -7.617188 0.75 " fill-opacity="1" fill-rule="nonzero"/></g></g></g></g></g></g></g><g fill="#000000" fill-opacity="1"><g transform="translate(3.471793, 214.803074)"><g><path d="M 10.671875 -14.078125 C 14.515625 -14.222656 17.429688 -14.6875 19.421875 -15.46875 C 21.410156 -16.25 22.972656 -17.921875 24.109375 -20.484375 C 25.242188 -23.046875 25.8125 -27.097656 25.8125 -32.640625 L 25.8125 -114.375 C 25.8125 -122.332031 26.097656 -128.734375 26.671875 -133.578125 L 10.671875 -132.9375 L 10.671875 -149.359375 L 71.90625 -149.359375 L 71.90625 -135.28125 C 68.0625 -135.132812 65.144531 -134.671875 63.15625 -133.890625 C 61.164062 -133.109375 59.597656 -131.4375 58.453125 -128.875 C 57.316406 -126.3125 56.75 -122.257812 56.75 -116.71875 L 56.75 -35 C 56.75 -27.03125 56.46875 -20.628906 55.90625 -15.796875 C 60.457031 -16.222656 65.789062 -16.4375 71.90625 -16.4375 L 71.90625 0 L 10.671875 0 Z M 10.671875 -14.078125 "/></g></g></g><g fill="#000000" fill-opacity="1"><g transform="translate(86.048084, 214.803074)"><g><path d="M 55.90625 -85.140625 C 52.34375 -89.691406 48.429688 -95.023438 44.171875 -101.140625 L 43.953125 -101.140625 L 44.375 -35 C 44.375 -27.03125 44.09375 -20.628906 43.53125 -15.796875 C 48.082031 -16.222656 53.414062 -16.4375 59.53125 -16.4375 L 59.53125 0 L 10.875 0 L 10.875 -14.078125 C 14.71875 -14.222656 17.632812 -14.6875 19.625 -15.46875 C 21.625 -16.25 23.191406 -17.921875 24.328125 -20.484375 C 25.460938 -23.046875 26.03125 -27.097656 26.03125 -32.640625 L 25.609375 -114.375 C 25.609375 -123.90625 25.890625 -130.304688 26.453125 -133.578125 L 10.234375 -132.9375 L 10.234375 -149.359375 L 43.734375 -149.359375 L 109.03125 -67 C 115.007812 -59.175781 119.988281 -52.421875 123.96875 -46.734375 L 124.1875 -46.734375 L 124.1875 -114.375 C 124.1875 -123.613281 124.398438 -130.015625 124.828125 -133.578125 L 108.828125 -132.9375 L 108.828125 -149.359375 L 157.46875 -149.359375 L 157.46875 -135.28125 C 153.625 -135.132812 150.707031 -134.671875 148.71875 -133.890625 C 146.726562 -133.109375 145.164062 -131.4375 144.03125 -128.875 C 142.894531 -126.3125 142.328125 -122.257812 142.328125 -116.71875 L 142.328125 2.140625 L 124.1875 2.140625 Z M 55.90625 -85.140625 "/></g></g></g><g fill="#000000" fill-opacity="1"><g transform="translate(250.987307, 214.803074)"><g><path d="M 10.671875 -14.078125 C 14.515625 -14.222656 17.429688 -14.6875 19.421875 -15.46875 C 21.410156 -16.25 22.972656 -17.921875 24.109375 -20.484375 C 25.242188 -23.046875 25.8125 -27.097656 25.8125 -32.640625 L 25.8125 -114.375 C 25.8125 -122.332031 26.097656 -128.734375 26.671875 -133.578125 L 10.671875 -132.9375 L 10.671875 -149.359375 L 72.765625 -149.578125 C 90.546875 -149.578125 105.585938 -146.054688 117.890625 -139.015625 C 130.191406 -131.972656 139.363281 -122.832031 145.40625 -111.59375 C 151.457031 -100.351562 154.484375 -88.546875 154.484375 -76.171875 C 154.484375 -63.648438 151.601562 -51.59375 145.84375 -40 C 140.082031 -28.414062 130.976562 -18.851562 118.53125 -11.3125 C 106.082031 -3.769531 90.46875 0 71.6875 0 L 10.671875 0 Z M 76.171875 -15.578125 C 86.128906 -15.578125 94.453125 -18.207031 101.140625 -23.46875 C 107.828125 -28.726562 112.769531 -35.585938 115.96875 -44.046875 C 119.164062 -52.515625 120.765625 -61.726562 120.765625 -71.6875 C 120.765625 -93.3125 116.351562 -109.316406 107.53125 -119.703125 C 98.71875 -130.085938 86.273438 -135.28125 70.203125 -135.28125 C 65.367188 -135.28125 61.914062 -134.070312 59.84375 -131.65625 C 57.78125 -129.238281 56.75 -124.398438 56.75 -117.140625 L 56.75 -35 C 56.75 -27.03125 56.46875 -20.628906 55.90625 -15.796875 C 56.613281 -15.929688 57.960938 -16 59.953125 -16 L 69.140625 -15.796875 C 70.984375 -15.648438 73.328125 -15.578125 76.171875 -15.578125 Z M 76.171875 -15.578125 "/></g></g></g><g fill="#000000" fill-opacity="1"><g transform="translate(409.952025, 214.803074)"><g><path d="M 10.671875 -14.078125 C 14.515625 -14.222656 17.429688 -14.6875 19.421875 -15.46875 C 21.410156 -16.25 22.972656 -17.921875 24.109375 -20.484375 C 25.242188 -23.046875 25.8125 -27.097656 25.8125 -32.640625 L 25.8125 -114.375 C 25.8125 -122.332031 26.097656 -128.734375 26.671875 -133.578125 L 10.671875 -132.9375 L 10.671875 -149.359375 L 117.359375 -149.359375 L 118.640625 -107.96875 L 104.546875 -107.96875 C 104.546875 -118.488281 102.019531 -125.773438 96.96875 -129.828125 C 91.925781 -133.890625 85.847656 -135.78125 78.734375 -135.5 L 71.046875 -135.28125 C 67.640625 -135.132812 64.9375 -134.671875 62.9375 -133.890625 C 60.945312 -133.109375 59.414062 -131.363281 58.34375 -128.65625 C 57.28125 -125.957031 56.75 -121.976562 56.75 -116.71875 L 56.75 -84.703125 L 81.71875 -84.703125 C 81.582031 -87.128906 81.300781 -93.320312 80.875 -103.28125 L 97.296875 -103.28125 L 97.296875 -51.421875 L 83.21875 -51.421875 C 83.21875 -57.109375 82.328125 -61.300781 80.546875 -64 C 78.765625 -66.707031 76.453125 -68.453125 73.609375 -69.234375 C 70.765625 -70.015625 67 -70.335938 62.3125 -70.203125 L 56.75 -69.984375 L 56.75 -35 C 56.75 -27.3125 56.46875 -21.050781 55.90625 -16.21875 L 84.5 -16.21875 C 91.75 -16.21875 97.898438 -18.671875 102.953125 -23.578125 C 108.003906 -28.484375 110.53125 -36.269531 110.53125 -46.9375 L 124.390625 -46.9375 L 123.328125 0 L 10.671875 0 Z M 10.671875 -14.078125 "/></g></g></g><g fill="#000000" fill-opacity="1"><g transform="translate(543.098267, 214.803074)"><g><path d="M 10.671875 -14.078125 C 14.515625 -14.222656 17.429688 -14.6875 19.421875 -15.46875 C 21.410156 -16.25 22.972656 -17.921875 24.109375 -20.484375 C 25.242188 -23.046875 25.8125 -27.097656 25.8125 -32.640625 L 25.8125 -114.375 C 25.8125 -122.332031 26.097656 -128.734375 26.671875 -133.578125 L 10.671875 -132.9375 L 10.671875 -149.359375 L 71.90625 -149.359375 L 71.90625 -135.28125 C 68.0625 -135.132812 65.144531 -134.671875 63.15625 -133.890625 C 61.164062 -133.109375 59.597656 -131.4375 58.453125 -128.875 C 57.316406 -126.3125 56.75 -122.257812 56.75 -116.71875 L 56.75 -35 C 56.75 -27.3125 56.46875 -21.050781 55.90625 -16.21875 L 84.5 -16.21875 C 93.03125 -16.363281 99.640625 -19.382812 104.328125 -25.28125 C 109.023438 -31.1875 111.375 -39.828125 111.375 -51.203125 L 125.671875 -51.203125 L 124.390625 0 L 10.671875 0 Z M 10.671875 -14.078125 "/></g></g></g><g fill="#000000" fill-opacity="1"><g transform="translate(671.977068, 214.803074)"><g><path d="M 10.671875 -14.078125 C 14.515625 -14.222656 17.429688 -14.6875 19.421875 -15.46875 C 21.410156 -16.25 22.972656 -17.921875 24.109375 -20.484375 C 25.242188 -23.046875 25.8125 -27.097656 25.8125 -32.640625 L 25.8125 -114.375 C 25.8125 -122.332031 26.097656 -128.734375 26.671875 -133.578125 L 10.671875 -132.9375 L 10.671875 -149.359375 L 71.90625 -149.359375 L 71.90625 -135.28125 C 68.0625 -135.132812 65.144531 -134.671875 63.15625 -133.890625 C 61.164062 -133.109375 59.597656 -131.4375 58.453125 -128.875 C 57.316406 -126.3125 56.75 -122.257812 56.75 -116.71875 L 56.75 -35 C 56.75 -27.03125 56.46875 -20.628906 55.90625 -15.796875 C 60.457031 -16.222656 65.789062 -16.4375 71.90625 -16.4375 L 71.90625 0 L 10.671875 0 Z M 10.671875 -14.078125 "/></g></g></g><g fill="#000000" fill-opacity="1"><g transform="translate(754.553379, 214.803074)"><g><path d="M 10.671875 -14.078125 C 14.515625 -14.222656 17.429688 -14.6875 19.421875 -15.46875 C 21.410156 -16.25 22.972656 -17.921875 24.109375 -20.484375 C 25.242188 -23.046875 25.8125 -27.097656 25.8125 -32.640625 L 25.8125 -114.375 C 25.8125 -122.332031 26.097656 -128.734375 26.671875 -133.578125 L 10.671875 -132.9375 L 10.671875 -149.359375 L 69.78125 -149.796875 C 86.84375 -149.929688 100.207031 -146.867188 109.875 -140.609375 C 119.550781 -134.347656 124.390625 -125.175781 124.390625 -113.09375 C 124.390625 -106.125 121.796875 -99.6875 116.609375 -93.78125 C 111.421875 -87.875 103.773438 -83.570312 93.671875 -80.875 L 93.671875 -80.65625 C 107.328125 -78.519531 117.640625 -73.96875 124.609375 -67 C 131.578125 -60.03125 135.0625 -51.851562 135.0625 -42.46875 C 135.0625 -28.945312 130.257812 -18.488281 120.65625 -11.09375 C 111.0625 -3.695312 98.582031 0 83.21875 0 L 10.671875 0 Z M 67.859375 -84.0625 C 76.242188 -84.207031 82.320312 -86.875 86.09375 -92.0625 C 89.863281 -97.257812 91.75 -104.125 91.75 -112.65625 C 91.75 -120.34375 89.613281 -125.960938 85.34375 -129.515625 C 81.082031 -133.078125 75.894531 -134.859375 69.78125 -134.859375 C 66.789062 -134.859375 64.40625 -134.5 62.625 -133.78125 C 60.84375 -133.070312 59.414062 -131.398438 58.34375 -128.765625 C 57.28125 -126.140625 56.75 -122.191406 56.75 -116.921875 L 56.75 -83.859375 Z M 55.90625 -15.15625 C 65.289062 -15.15625 72.191406 -15.222656 76.609375 -15.359375 C 84.992188 -15.785156 91.25 -18.453125 95.375 -23.359375 C 99.5 -28.265625 101.5625 -34.847656 101.5625 -43.109375 C 101.5625 -52.203125 98.929688 -58.773438 93.671875 -62.828125 C 88.410156 -66.890625 81.867188 -68.921875 74.046875 -68.921875 C 66.222656 -68.921875 60.457031 -68.847656 56.75 -68.703125 L 56.75 -33.921875 C 56.75 -26.242188 56.46875 -19.988281 55.90625 -15.15625 Z M 55.90625 -15.15625 "/></g></g></g><g fill="#000000" fill-opacity="1"><g transform="translate(893.247344, 214.803074)"><g><path d="M 10.671875 -14.078125 C 14.515625 -14.222656 17.429688 -14.6875 19.421875 -15.46875 C 21.410156 -16.25 22.972656 -17.921875 24.109375 -20.484375 C 25.242188 -23.046875 25.8125 -27.097656 25.8125 -32.640625 L 25.8125 -114.375 C 25.8125 -122.332031 26.097656 -128.734375 26.671875 -133.578125 L 10.671875 -132.9375 L 10.671875 -149.359375 L 71.90625 -149.359375 L 71.90625 -135.28125 C 68.0625 -135.132812 65.144531 -134.671875 63.15625 -133.890625 C 61.164062 -133.109375 59.597656 -131.4375 58.453125 -128.875 C 57.316406 -126.3125 56.75 -122.257812 56.75 -116.71875 L 56.75 -35 C 56.75 -27.3125 56.46875 -21.050781 55.90625 -16.21875 L 84.5 -16.21875 C 93.03125 -16.363281 99.640625 -19.382812 104.328125 -25.28125 C 109.023438 -31.1875 111.375 -39.828125 111.375 -51.203125 L 125.671875 -51.203125 L 124.390625 0 L 10.671875 0 Z M 10.671875 -14.078125 "/></g></g></g><g fill="#000000" fill-opacity="1"><g transform="translate(1022.126144, 214.803074)"><g><path d="M 10.671875 -14.078125 C 14.515625 -14.222656 17.429688 -14.6875 19.421875 -15.46875 C 21.410156 -16.25 22.972656 -17.921875 24.109375 -20.484375 C 25.242188 -23.046875 25.8125 -27.097656 25.8125 -32.640625 L 25.8125 -114.375 C 25.8125 -122.332031 26.097656 -128.734375 26.671875 -133.578125 L 10.671875 -132.9375 L 10.671875 -149.359375 L 117.359375 -149.359375 L 118.640625 -107.96875 L 104.546875 -107.96875 C 104.546875 -118.488281 102.019531 -125.773438 96.96875 -129.828125 C 91.925781 -133.890625 85.847656 -135.78125 78.734375 -135.5 L 71.046875 -135.28125 C 67.640625 -135.132812 64.9375 -134.671875 62.9375 -133.890625 C 60.945312 -133.109375 59.414062 -131.363281 58.34375 -128.65625 C 57.28125 -125.957031 56.75 -121.976562 56.75 -116.71875 L 56.75 -84.703125 L 81.71875 -84.703125 C 81.582031 -87.128906 81.300781 -93.320312 80.875 -103.28125 L 97.296875 -103.28125 L 97.296875 -51.421875 L 83.21875 -51.421875 C 83.21875 -57.109375 82.328125 -61.300781 80.546875 -64 C 78.765625 -66.707031 76.453125 -68.453125 73.609375 -69.234375 C 70.765625 -70.015625 67 -70.335938 62.3125 -70.203125 L 56.75 -69.984375 L 56.75 -35 C 56.75 -27.3125 56.46875 -21.050781 55.90625 -16.21875 L 84.5 -16.21875 C 91.75 -16.21875 97.898438 -18.671875 102.953125 -23.578125 C 108.003906 -28.484375 110.53125 -36.269531 110.53125 -46.9375 L 124.390625 -46.9375 L 123.328125 0 L 10.671875 0 Z M 10.671875 -14.078125 "/></g></g></g><g fill="#000000" fill-opacity="1"><g transform="translate(1155.272386, 214.803074)"><g><path d="M 25.171875 3.40625 C 20.617188 3.40625 16.847656 1.804688 13.859375 -1.390625 C 10.878906 -4.585938 9.390625 -8.535156 9.390625 -13.234375 C 9.390625 -17.785156 10.953125 -21.695312 14.078125 -24.96875 C 17.210938 -28.238281 20.84375 -29.875 24.96875 -29.875 C 29.375 -29.875 33.035156 -28.238281 35.953125 -24.96875 C 38.867188 -21.695312 40.328125 -17.785156 40.328125 -13.234375 C 40.328125 -8.535156 38.9375 -4.585938 36.15625 -1.390625 C 33.382812 1.804688 29.722656 3.40625 25.171875 3.40625 Z M 25.171875 3.40625 "/></g></g></g><g clip-path="url(#a3ae6a169a)"><path stroke-linecap="butt" transform="matrix(1.333596, 0, 0, 1.333596, 3.471793, 369.561528)" fill="none" stroke-linejoin="miter" d="M 0.000647285 2.001311 L 662.697337 2.001311 " stroke="#000000" stroke-width="4" stroke-opacity="1" stroke-miterlimit="4"/></g><g fill="#000000" fill-opacity="1"><g transform="translate(3.471793, 453.221945)"><g><path d="M 2.671875 -3.515625 C 3.628906 -3.554688 4.351562 -3.671875 4.84375 -3.859375 C 5.34375 -4.054688 5.734375 -4.472656 6.015625 -5.109375 C 6.304688 -5.753906 6.453125 -6.769531 6.453125 -8.15625 L 6.453125 -28.59375 C 6.453125 -30.582031 6.523438 -32.179688 6.671875 -33.390625 L 2.671875 -33.234375 L 2.671875 -37.34375 L 17.984375 -37.34375 L 17.984375 -33.8125 C 17.015625 -33.78125 16.28125 -33.664062 15.78125 -33.46875 C 15.289062 -33.28125 14.898438 -32.863281 14.609375 -32.21875 C 14.328125 -31.582031 14.1875 -30.566406 14.1875 -29.171875 L 14.1875 -8.75 C 14.1875 -6.757812 14.113281 -5.160156 13.96875 -3.953125 C 15.113281 -4.054688 16.453125 -4.109375 17.984375 -4.109375 L 17.984375 0 L 2.671875 0 Z M 2.671875 -3.515625 "/></g></g></g><g fill="#000000" fill-opacity="1"><g transform="translate(24.11583, 453.221945)"><g><path d="M 13.96875 -21.28125 C 13.082031 -22.414062 12.109375 -23.75 11.046875 -25.28125 L 10.984375 -25.28125 L 11.09375 -8.75 C 11.09375 -6.757812 11.019531 -5.160156 10.875 -3.953125 C 12.019531 -4.054688 13.359375 -4.109375 14.890625 -4.109375 L 14.890625 0 L 2.71875 0 L 2.71875 -3.515625 C 3.675781 -3.554688 4.40625 -3.671875 4.90625 -3.859375 C 5.40625 -4.054688 5.796875 -4.472656 6.078125 -5.109375 C 6.367188 -5.753906 6.515625 -6.769531 6.515625 -8.15625 L 6.40625 -28.59375 C 6.40625 -30.976562 6.472656 -32.578125 6.609375 -33.390625 L 2.5625 -33.234375 L 2.5625 -37.34375 L 10.9375 -37.34375 L 27.265625 -16.75 C 28.753906 -14.789062 30 -13.101562 31 -11.6875 L 31.046875 -11.6875 L 31.046875 -28.59375 C 31.046875 -30.90625 31.097656 -32.503906 31.203125 -33.390625 L 27.203125 -33.234375 L 27.203125 -37.34375 L 39.375 -37.34375 L 39.375 -33.8125 C 38.40625 -33.78125 37.671875 -33.664062 37.171875 -33.46875 C 36.679688 -33.28125 36.289062 -32.863281 36 -32.21875 C 35.71875 -31.582031 35.578125 -30.566406 35.578125 -29.171875 L 35.578125 0.53125 L 31.046875 0.53125 Z M 13.96875 -21.28125 "/></g></g></g><g fill="#000000" fill-opacity="1"><g transform="translate(64.390378, 453.221945)"><g><path d="M 2.71875 -19.625 L 22.34375 -19.625 L 22.34375 -14.03125 L 2.71875 -13.875 Z M 2.71875 -19.625 "/></g></g></g><g fill="#000000" fill-opacity="1"><g transform="translate(88.288393, 453.221945)"><g><path d="M 2.671875 -3.515625 C 3.628906 -3.554688 4.351562 -3.671875 4.84375 -3.859375 C 5.34375 -4.054688 5.734375 -4.472656 6.015625 -5.109375 C 6.304688 -5.753906 6.453125 -6.769531 6.453125 -8.15625 L 6.453125 -28.59375 C 6.453125 -30.582031 6.523438 -32.179688 6.671875 -33.390625 L 2.671875 -33.234375 L 2.671875 -37.34375 L 18.1875 -37.390625 C 22.632812 -37.390625 26.394531 -36.507812 29.46875 -34.75 C 32.550781 -32.988281 34.847656 -30.703125 36.359375 -27.890625 C 37.867188 -25.085938 38.625 -22.140625 38.625 -19.046875 C 38.625 -15.910156 37.898438 -12.894531 36.453125 -10 C 35.015625 -7.101562 32.738281 -4.710938 29.625 -2.828125 C 26.519531 -0.941406 22.617188 0 17.921875 0 L 2.671875 0 Z M 19.046875 -3.890625 C 21.535156 -3.890625 23.613281 -4.546875 25.28125 -5.859375 C 26.957031 -7.179688 28.191406 -8.898438 28.984375 -11.015625 C 29.785156 -13.128906 30.1875 -15.429688 30.1875 -17.921875 C 30.1875 -23.328125 29.082031 -27.328125 26.875 -29.921875 C 24.675781 -32.515625 21.566406 -33.8125 17.546875 -33.8125 C 16.335938 -33.8125 15.472656 -33.507812 14.953125 -32.90625 C 14.441406 -32.300781 14.1875 -31.09375 14.1875 -29.28125 L 14.1875 -8.75 C 14.1875 -6.757812 14.113281 -5.160156 13.96875 -3.953125 C 14.15625 -3.984375 14.492188 -4 14.984375 -4 L 17.28125 -3.953125 C 17.75 -3.910156 18.335938 -3.890625 19.046875 -3.890625 Z M 19.046875 -3.890625 "/></g></g></g><g fill="#000000" fill-opacity="1"><g transform="translate(128.029512, 453.221945)"><g><path d="M 2.671875 -3.515625 C 3.628906 -3.554688 4.351562 -3.671875 4.84375 -3.859375 C 5.34375 -4.054688 5.734375 -4.472656 6.015625 -5.109375 C 6.304688 -5.753906 6.453125 -6.769531 6.453125 -8.15625 L 6.453125 -28.59375 C 6.453125 -30.582031 6.523438 -32.179688 6.671875 -33.390625 L 2.671875 -33.234375 L 2.671875 -37.34375 L 29.34375 -37.34375 L 29.65625 -26.984375 L 26.140625 -26.984375 C 26.140625 -29.617188 25.503906 -31.441406 24.234375 -32.453125 C 22.972656 -33.472656 21.457031 -33.945312 19.6875 -33.875 L 17.765625 -33.8125 C 16.910156 -33.78125 16.234375 -33.664062 15.734375 -33.46875 C 15.234375 -33.28125 14.847656 -32.847656 14.578125 -32.171875 C 14.316406 -31.492188 14.1875 -30.492188 14.1875 -29.171875 L 14.1875 -21.171875 L 20.4375 -21.171875 C 20.394531 -21.773438 20.320312 -23.320312 20.21875 -25.8125 L 24.328125 -25.8125 L 24.328125 -12.859375 L 20.796875 -12.859375 C 20.796875 -14.273438 20.570312 -15.320312 20.125 -16 C 19.6875 -16.675781 19.113281 -17.113281 18.40625 -17.3125 C 17.695312 -17.507812 16.753906 -17.585938 15.578125 -17.546875 L 14.1875 -17.5 L 14.1875 -8.75 C 14.1875 -6.832031 14.113281 -5.265625 13.96875 -4.046875 L 21.125 -4.046875 C 22.9375 -4.046875 24.472656 -4.660156 25.734375 -5.890625 C 26.992188 -7.117188 27.625 -9.066406 27.625 -11.734375 L 31.09375 -11.734375 L 30.828125 0 L 2.671875 0 Z M 2.671875 -3.515625 "/></g></g></g><g fill="#000000" fill-opacity="1"><g transform="translate(161.316031, 453.221945)"><g><path d="M 2.671875 -3.515625 C 3.628906 -3.554688 4.351562 -3.671875 4.84375 -3.859375 C 5.34375 -4.054688 5.734375 -4.472656 6.015625 -5.109375 C 6.304688 -5.753906 6.453125 -6.769531 6.453125 -8.15625 L 6.453125 -28.59375 C 6.453125 -30.582031 6.523438 -32.179688 6.671875 -33.390625 L 2.671875 -33.234375 L 2.671875 -37.34375 L 17.984375 -37.34375 L 17.984375 -33.8125 C 17.015625 -33.78125 16.28125 -33.664062 15.78125 -33.46875 C 15.289062 -33.28125 14.898438 -32.863281 14.609375 -32.21875 C 14.328125 -31.582031 14.1875 -30.566406 14.1875 -29.171875 L 14.1875 -8.75 C 14.1875 -6.832031 14.113281 -5.265625 13.96875 -4.046875 L 21.125 -4.046875 C 23.257812 -4.085938 24.910156 -4.84375 26.078125 -6.3125 C 27.253906 -7.789062 27.84375 -9.953125 27.84375 -12.796875 L 31.421875 -12.796875 L 31.09375 0 L 2.671875 0 Z M 2.671875 -3.515625 "/></g></g></g><g fill="#000000" fill-opacity="1"><g transform="translate(193.53567, 453.221945)"><g><path d="M 2.71875 -19.625 L 22.34375 -19.625 L 22.34375 -14.03125 L 2.71875 -13.875 Z M 2.71875 -19.625 "/></g></g></g><g fill="#000000" fill-opacity="1"><g transform="translate(217.433685, 453.221945)"><g><path d="M 2.671875 -3.515625 C 3.628906 -3.554688 4.351562 -3.671875 4.84375 -3.859375 C 5.34375 -4.054688 5.734375 -4.472656 6.015625 -5.109375 C 6.304688 -5.753906 6.453125 -6.769531 6.453125 -8.15625 L 6.453125 -28.59375 C 6.453125 -30.582031 6.523438 -32.179688 6.671875 -33.390625 L 2.671875 -33.234375 L 2.671875 -37.34375 L 17.984375 -37.34375 L 17.984375 -33.8125 C 17.015625 -33.78125 16.28125 -33.664062 15.78125 -33.46875 C 15.289062 -33.28125 14.898438 -32.863281 14.609375 -32.21875 C 14.328125 -31.582031 14.1875 -30.566406 14.1875 -29.171875 L 14.1875 -8.75 C 14.1875 -6.757812 14.113281 -5.160156 13.96875 -3.953125 C 15.113281 -4.054688 16.453125 -4.109375 17.984375 -4.109375 L 17.984375 0 L 2.671875 0 Z M 2.671875 -3.515625 "/></g></g></g><g fill="#000000" fill-opacity="1"><g transform="translate(236.850816, 453.221945)"><g><path d="M 2.71875 -19.625 L 22.34375 -19.625 L 22.34375 -14.03125 L 2.71875 -13.875 Z M 2.71875 -19.625 "/></g></g></g><g fill="#000000" fill-opacity="1"><g transform="translate(260.74883, 453.221945)"><g><path d="M 2.671875 -3.515625 C 3.628906 -3.554688 4.351562 -3.671875 4.84375 -3.859375 C 5.34375 -4.054688 5.734375 -4.472656 6.015625 -5.109375 C 6.304688 -5.753906 6.453125 -6.769531 6.453125 -8.15625 L 6.453125 -28.59375 C 6.453125 -30.582031 6.523438 -32.179688 6.671875 -33.390625 L 2.671875 -33.234375 L 2.671875 -37.34375 L 17.4375 -37.453125 C 21.707031 -37.484375 25.050781 -36.71875 27.46875 -35.15625 C 29.882812 -33.59375 31.09375 -31.296875 31.09375 -28.265625 C 31.09375 -26.523438 30.441406 -24.914062 29.140625 -23.4375 C 27.847656 -21.96875 25.941406 -20.894531 23.421875 -20.21875 L 23.421875 -20.15625 C 26.828125 -19.625 29.398438 -18.488281 31.140625 -16.75 C 32.890625 -15.007812 33.765625 -12.960938 33.765625 -10.609375 C 33.765625 -7.234375 32.5625 -4.617188 30.15625 -2.765625 C 27.757812 -0.921875 24.640625 0 20.796875 0 L 2.671875 0 Z M 16.96875 -21.015625 C 19.0625 -21.054688 20.578125 -21.722656 21.515625 -23.015625 C 22.460938 -24.316406 22.9375 -26.035156 22.9375 -28.171875 C 22.9375 -30.085938 22.398438 -31.488281 21.328125 -32.375 C 20.265625 -33.269531 18.96875 -33.71875 17.4375 -33.71875 C 16.695312 -33.71875 16.101562 -33.628906 15.65625 -33.453125 C 15.207031 -33.273438 14.847656 -32.851562 14.578125 -32.1875 C 14.316406 -31.53125 14.1875 -30.546875 14.1875 -29.234375 L 14.1875 -20.96875 Z M 13.96875 -3.78125 C 16.320312 -3.78125 18.050781 -3.800781 19.15625 -3.84375 C 21.25 -3.945312 22.8125 -4.613281 23.84375 -5.84375 C 24.875 -7.070312 25.390625 -8.71875 25.390625 -10.78125 C 25.390625 -13.050781 24.726562 -14.691406 23.40625 -15.703125 C 22.09375 -16.722656 20.460938 -17.234375 18.515625 -17.234375 C 16.554688 -17.234375 15.113281 -17.210938 14.1875 -17.171875 L 14.1875 -8.484375 C 14.1875 -6.554688 14.113281 -4.988281 13.96875 -3.78125 Z M 13.96875 -3.78125 "/></g></g></g><g fill="#000000" fill-opacity="1"><g transform="translate(295.42228, 453.221945)"><g><path d="M 2.671875 -3.515625 C 3.628906 -3.554688 4.351562 -3.671875 4.84375 -3.859375 C 5.34375 -4.054688 5.734375 -4.472656 6.015625 -5.109375 C 6.304688 -5.753906 6.453125 -6.769531 6.453125 -8.15625 L 6.453125 -28.59375 C 6.453125 -30.582031 6.523438 -32.179688 6.671875 -33.390625 L 2.671875 -33.234375 L 2.671875 -37.34375 L 17.984375 -37.34375 L 17.984375 -33.8125 C 17.015625 -33.78125 16.28125 -33.664062 15.78125 -33.46875 C 15.289062 -33.28125 14.898438 -32.863281 14.609375 -32.21875 C 14.328125 -31.582031 14.1875 -30.566406 14.1875 -29.171875 L 14.1875 -8.75 C 14.1875 -6.832031 14.113281 -5.265625 13.96875 -4.046875 L 21.125 -4.046875 C 23.257812 -4.085938 24.910156 -4.84375 26.078125 -6.3125 C 27.253906 -7.789062 27.84375 -9.953125 27.84375 -12.796875 L 31.421875 -12.796875 L 31.09375 0 L 2.671875 0 Z M 2.671875 -3.515625 "/></g></g></g><g fill="#000000" fill-opacity="1"><g transform="translate(327.641919, 453.221945)"><g><path d="M 2.671875 -3.515625 C 3.628906 -3.554688 4.351562 -3.671875 4.84375 -3.859375 C 5.34375 -4.054688 5.734375 -4.472656 6.015625 -5.109375 C 6.304688 -5.753906 6.453125 -6.769531 6.453125 -8.15625 L 6.453125 -28.59375 C 6.453125 -30.582031 6.523438 -32.179688 6.671875 -33.390625 L 2.671875 -33.234375 L 2.671875 -37.34375 L 29.34375 -37.34375 L 29.65625 -26.984375 L 26.140625 -26.984375 C 26.140625 -29.617188 25.503906 -31.441406 24.234375 -32.453125 C 22.972656 -33.472656 21.457031 -33.945312 19.6875 -33.875 L 17.765625 -33.8125 C 16.910156 -33.78125 16.234375 -33.664062 15.734375 -33.46875 C 15.234375 -33.28125 14.847656 -32.847656 14.578125 -32.171875 C 14.316406 -31.492188 14.1875 -30.492188 14.1875 -29.171875 L 14.1875 -21.171875 L 20.4375 -21.171875 C 20.394531 -21.773438 20.320312 -23.320312 20.21875 -25.8125 L 24.328125 -25.8125 L 24.328125 -12.859375 L 20.796875 -12.859375 C 20.796875 -14.273438 20.570312 -15.320312 20.125 -16 C 19.6875 -16.675781 19.113281 -17.113281 18.40625 -17.3125 C 17.695312 -17.507812 16.753906 -17.585938 15.578125 -17.546875 L 14.1875 -17.5 L 14.1875 -8.75 C 14.1875 -6.832031 14.113281 -5.265625 13.96875 -4.046875 L 21.125 -4.046875 C 22.9375 -4.046875 24.472656 -4.660156 25.734375 -5.890625 C 26.992188 -7.117188 27.625 -9.066406 27.625 -11.734375 L 31.09375 -11.734375 L 30.828125 0 L 2.671875 0 Z M 2.671875 -3.515625 "/></g></g></g><g fill="#000000" fill-opacity="1"><g transform="translate(360.928458, 453.221945)"><g><path d="M 6.671875 0.859375 C 5.535156 0.859375 4.59375 0.457031 3.84375 -0.34375 C 3.09375 -1.144531 2.71875 -2.132812 2.71875 -3.3125 C 2.71875 -4.445312 3.109375 -5.421875 3.890625 -6.234375 C 4.671875 -7.054688 5.578125 -7.46875 6.609375 -7.46875 C 7.710938 -7.46875 8.628906 -7.054688 9.359375 -6.234375 C 10.085938 -5.421875 10.453125 -4.445312 10.453125 -3.3125 C 10.453125 -2.132812 10.101562 -1.144531 9.40625 -0.34375 C 8.71875 0.457031 7.804688 0.859375 6.671875 0.859375 Z M 6.671875 -20.640625 C 5.535156 -20.640625 4.59375 -21.039062 3.84375 -21.84375 C 3.09375 -22.644531 2.71875 -23.632812 2.71875 -24.8125 C 2.71875 -25.945312 3.109375 -26.921875 3.890625 -27.734375 C 4.671875 -28.554688 5.578125 -28.96875 6.609375 -28.96875 C 7.710938 -28.96875 8.628906 -28.554688 9.359375 -27.734375 C 10.085938 -26.921875 10.453125 -25.945312 10.453125 -24.8125 C 10.453125 -23.632812 10.101562 -22.644531 9.40625 -21.84375 C 8.71875 -21.039062 7.804688 -20.640625 6.671875 -20.640625 Z M 6.671875 -20.640625 "/></g></g></g><g fill="#000000" fill-opacity="1"><g transform="translate(374.169754, 453.221945)"><g/></g></g><g fill="#000000" fill-opacity="1"><g transform="translate(388.199168, 453.221945)"><g><path d="M 1.8125 -1.59375 C 2.84375 -1.59375 3.578125 -1.847656 4.015625 -2.359375 C 4.460938 -2.878906 4.734375 -3.539062 4.828125 -4.34375 C 4.921875 -5.144531 4.96875 -6.398438 4.96875 -8.109375 L 4.96875 -33.34375 C 4.96875 -34.6875 5.019531 -35.84375 5.125 -36.8125 L 1.328125 -36.59375 L 1.328125 -38.828125 C 3.460938 -38.828125 4.984375 -38.953125 5.890625 -39.203125 C 6.796875 -39.453125 7.5 -39.8125 8 -40.28125 L 9.546875 -40.28125 L 9.609375 -5.65625 C 9.609375 -4.269531 9.515625 -3.0625 9.328125 -2.03125 L 12.703125 -2.1875 L 12.703125 0 L 1.8125 0 Z M 1.8125 -1.59375 "/></g></g></g><g fill="#000000" fill-opacity="1"><g transform="translate(402.708676, 453.221945)"><g><path d="M 9.8125 0.859375 C 7.21875 0.859375 5.234375 0.269531 3.859375 -0.90625 C 2.492188 -2.082031 1.8125 -3.613281 1.8125 -5.5 C 1.8125 -7.5625 2.640625 -9.300781 4.296875 -10.71875 C 5.953125 -12.144531 8.03125 -13.203125 10.53125 -13.890625 C 13.039062 -14.585938 15.554688 -14.921875 18.078125 -14.890625 L 18.078125 -18.1875 C 18.078125 -20.5 17.738281 -22.300781 17.0625 -23.59375 C 16.394531 -24.894531 14.957031 -25.546875 12.75 -25.546875 C 11.644531 -25.546875 10.59375 -25.316406 9.59375 -24.859375 C 8.601562 -24.398438 7.878906 -23.707031 7.421875 -22.78125 C 7.878906 -22.28125 8.109375 -21.601562 8.109375 -20.75 C 8.109375 -20.21875 7.910156 -19.710938 7.515625 -19.234375 C 7.128906 -18.753906 6.5625 -18.515625 5.8125 -18.515625 C 5.0625 -18.515625 4.472656 -18.753906 4.046875 -19.234375 C 3.617188 -19.710938 3.40625 -20.34375 3.40625 -21.125 C 3.40625 -22.300781 3.859375 -23.375 4.765625 -24.34375 C 5.679688 -25.320312 6.945312 -26.097656 8.5625 -26.671875 C 10.175781 -27.242188 11.976562 -27.53125 13.96875 -27.53125 C 16.957031 -27.53125 19.160156 -26.738281 20.578125 -25.15625 C 22.003906 -23.570312 22.703125 -21.070312 22.671875 -17.65625 L 22.625 -5.65625 C 22.625 -4.519531 22.550781 -3.3125 22.40625 -2.03125 L 26.1875 -2.234375 L 26.1875 0 L 18.5625 0 C 18.457031 -0.53125 18.332031 -1.546875 18.1875 -3.046875 C 15.59375 -0.441406 12.800781 0.859375 9.8125 0.859375 Z M 11.046875 -2.1875 C 12.390625 -2.1875 13.613281 -2.441406 14.71875 -2.953125 C 15.820312 -3.472656 16.941406 -4.265625 18.078125 -5.328125 C 18.046875 -5.867188 18.03125 -6.78125 18.03125 -8.0625 L 18.078125 -13.0625 C 15.160156 -12.957031 12.5625 -12.363281 10.28125 -11.28125 C 8.007812 -10.195312 6.875 -8.535156 6.875 -6.296875 C 6.875 -4.984375 7.265625 -3.96875 8.046875 -3.25 C 8.835938 -2.539062 9.835938 -2.1875 11.046875 -2.1875 Z M 11.046875 -2.1875 "/></g></g></g><g fill="#000000" fill-opacity="1"><g transform="translate(430.234072, 453.221945)"><g><path d="M 13.28125 0.859375 C 11.613281 0.859375 10.082031 0.632812 8.6875 0.1875 C 7.300781 -0.257812 6.113281 -0.820312 5.125 -1.5 L 5.328125 0.375 L 3.09375 0.375 L 2.78125 -8.796875 L 4.421875 -8.796875 C 4.492188 -7.335938 4.894531 -6.039062 5.625 -4.90625 C 6.351562 -3.769531 7.3125 -2.875 8.5 -2.21875 C 9.695312 -1.5625 10.972656 -1.234375 12.328125 -1.234375 C 13.847656 -1.234375 15.203125 -1.59375 16.390625 -2.3125 C 17.585938 -3.039062 18.1875 -4.082031 18.1875 -5.4375 C 18.1875 -6.4375 17.894531 -7.273438 17.3125 -7.953125 C 16.726562 -8.628906 16 -9.1875 15.125 -9.625 C 14.25 -10.070312 13.03125 -10.597656 11.46875 -11.203125 C 9.582031 -11.910156 8.070312 -12.578125 6.9375 -13.203125 C 5.800781 -13.828125 4.820312 -14.671875 4 -15.734375 C 3.1875 -16.804688 2.78125 -18.160156 2.78125 -19.796875 C 2.78125 -20.960938 3.0625 -22.132812 3.625 -23.3125 C 4.195312 -24.488281 5.15625 -25.484375 6.5 -26.296875 C 7.851562 -27.117188 9.648438 -27.53125 11.890625 -27.53125 C 12.992188 -27.53125 14.125 -27.347656 15.28125 -26.984375 C 16.4375 -26.628906 17.515625 -26.046875 18.515625 -25.234375 L 18.40625 -27.265625 L 20.640625 -27.265625 L 20.640625 -17.921875 L 18.9375 -17.921875 C 18.832031 -19.984375 18.203125 -21.769531 17.046875 -23.28125 C 15.890625 -24.789062 14.257812 -25.546875 12.15625 -25.546875 C 10.5625 -25.546875 9.289062 -25.144531 8.34375 -24.34375 C 7.40625 -23.550781 6.9375 -22.601562 6.9375 -21.5 C 6.9375 -20.46875 7.242188 -19.59375 7.859375 -18.875 C 8.484375 -18.164062 9.257812 -17.5625 10.1875 -17.0625 C 11.113281 -16.570312 12.359375 -16.023438 13.921875 -15.421875 C 15.773438 -14.671875 17.269531 -13.972656 18.40625 -13.328125 C 19.539062 -12.691406 20.507812 -11.847656 21.3125 -10.796875 C 22.113281 -9.753906 22.515625 -8.484375 22.515625 -6.984375 C 22.515625 -5.273438 22.078125 -3.832031 21.203125 -2.65625 C 20.328125 -1.488281 19.1875 -0.609375 17.78125 -0.015625 C 16.382812 0.566406 14.882812 0.859375 13.28125 0.859375 Z M 13.28125 0.859375 "/></g></g></g><g fill="#000000" fill-opacity="1"><g transform="translate(454.932252, 453.221945)"><g><path d="M 12.375 0.859375 C 7.5 0.859375 5.082031 -2.414062 5.125 -8.96875 L 5.234375 -24.4375 L 1.125 -24.375 L 1.125 -26.671875 C 2.832031 -26.703125 4.28125 -27.472656 5.46875 -28.984375 C 6.65625 -30.503906 7.535156 -32.222656 8.109375 -34.140625 L 9.921875 -34.140625 L 9.921875 -26.671875 L 18.890625 -26.671875 L 18.890625 -24.59375 L 9.921875 -24.484375 C 9.890625 -19.046875 9.863281 -15.273438 9.84375 -13.171875 C 9.820312 -11.078125 9.8125 -9.90625 9.8125 -9.65625 C 9.8125 -7.132812 10.113281 -5.257812 10.71875 -4.03125 C 11.320312 -2.800781 12.375 -2.1875 13.875 -2.1875 C 14.789062 -2.1875 15.703125 -2.46875 16.609375 -3.03125 C 17.523438 -3.601562 18.316406 -4.390625 18.984375 -5.390625 L 20.4375 -4.21875 C 19.039062 -2.15625 17.664062 -0.789062 16.3125 -0.125 C 14.96875 0.53125 13.65625 0.859375 12.375 0.859375 Z M 12.375 0.859375 "/></g></g></g><g fill="#000000" fill-opacity="1"><g transform="translate(475.576289, 453.221945)"><g><path d="M 7.625 -32.484375 C 6.882812 -32.484375 6.226562 -32.796875 5.65625 -33.421875 C 5.082031 -34.046875 4.796875 -34.785156 4.796875 -35.640625 C 4.796875 -36.484375 5.085938 -37.222656 5.671875 -37.859375 C 6.265625 -38.503906 6.9375 -38.828125 7.6875 -38.828125 C 8.5 -38.828125 9.179688 -38.515625 9.734375 -37.890625 C 10.285156 -37.273438 10.5625 -36.523438 10.5625 -35.640625 C 10.5625 -34.785156 10.265625 -34.046875 9.671875 -33.421875 C 9.085938 -32.796875 8.40625 -32.484375 7.625 -32.484375 Z M 2.34375 -1.59375 C 3.375 -1.59375 4.113281 -1.847656 4.5625 -2.359375 C 5.007812 -2.878906 5.273438 -3.539062 5.359375 -4.34375 C 5.453125 -5.144531 5.5 -6.398438 5.5 -8.109375 L 5.5 -20.265625 C 5.5 -21.296875 5.566406 -22.453125 5.703125 -23.734375 L 1.921875 -23.53125 L 1.921875 -25.765625 C 4.015625 -25.765625 5.515625 -25.890625 6.421875 -26.140625 C 7.328125 -26.390625 8.03125 -26.742188 8.53125 -27.203125 L 10.078125 -27.203125 L 10.078125 -5.65625 C 10.078125 -4.050781 10.007812 -2.84375 9.875 -2.03125 L 13.234375 -2.1875 L 13.234375 0 L 2.34375 0 Z M 2.34375 -1.59375 "/></g></g></g><g fill="#000000" fill-opacity="1"><g transform="translate(490.565893, 453.221945)"><g><path d="M 2.34375 -1.59375 C 3.375 -1.59375 4.113281 -1.847656 4.5625 -2.359375 C 5.007812 -2.878906 5.265625 -3.519531 5.328125 -4.28125 C 5.398438 -5.050781 5.457031 -6.328125 5.5 -8.109375 L 5.546875 -20.265625 C 5.546875 -21.765625 5.617188 -22.921875 5.765625 -23.734375 L 1.96875 -23.53125 L 1.96875 -25.765625 C 4.070312 -25.765625 5.515625 -25.878906 6.296875 -26.109375 C 7.078125 -26.335938 7.734375 -26.703125 8.265625 -27.203125 L 9.8125 -27.203125 C 9.882812 -26.523438 9.957031 -25.441406 10.03125 -23.953125 C 11.238281 -25.015625 12.613281 -25.875 14.15625 -26.53125 C 15.707031 -27.195312 17.226562 -27.53125 18.71875 -27.53125 C 21.8125 -27.53125 24.066406 -26.554688 25.484375 -24.609375 C 26.910156 -22.671875 27.625 -19.660156 27.625 -15.578125 L 27.625 -5.65625 C 27.625 -4.050781 27.554688 -2.84375 27.421875 -2.03125 L 30.78125 -2.1875 L 30.78125 0 L 19.890625 0 L 19.890625 -1.59375 C 20.921875 -1.59375 21.660156 -1.847656 22.109375 -2.359375 C 22.554688 -2.878906 22.820312 -3.539062 22.90625 -4.34375 C 23 -5.144531 23.046875 -6.398438 23.046875 -8.109375 L 23.046875 -15.578125 C 23.003906 -18.628906 22.503906 -20.929688 21.546875 -22.484375 C 20.585938 -24.035156 19.078125 -24.8125 17.015625 -24.8125 C 15.734375 -24.8125 14.460938 -24.488281 13.203125 -23.84375 C 11.941406 -23.207031 10.898438 -22.375 10.078125 -21.34375 C 10.117188 -20.945312 10.140625 -20.25 10.140625 -19.25 L 10.078125 -5.65625 C 10.078125 -4.050781 10.007812 -2.84375 9.875 -2.03125 L 13.234375 -2.1875 L 13.234375 0 L 2.34375 0 Z M 2.34375 -1.59375 "/></g></g></g><g fill="#000000" fill-opacity="1"><g transform="translate(522.945578, 453.221945)"><g><path d="M 15.203125 14.453125 C 12.140625 14.453125 9.613281 14.113281 7.625 13.4375 C 5.632812 12.757812 4.175781 11.867188 3.25 10.765625 C 2.320312 9.671875 1.859375 8.5 1.859375 7.25 C 1.859375 5.757812 2.359375 4.453125 3.359375 3.328125 C 4.359375 2.210938 5.5 1.390625 6.78125 0.859375 C 5.570312 0.460938 4.65625 -0.0703125 4.03125 -0.75 C 3.40625 -1.425781 3.09375 -2.296875 3.09375 -3.359375 C 3.09375 -4.640625 3.597656 -5.8125 4.609375 -6.875 C 5.628906 -7.945312 6.898438 -8.609375 8.421875 -8.859375 C 6.753906 -9.640625 5.441406 -10.734375 4.484375 -12.140625 C 3.523438 -13.546875 3.046875 -15.15625 3.046875 -16.96875 C 3.046875 -19.03125 3.585938 -20.859375 4.671875 -22.453125 C 5.753906 -24.054688 7.15625 -25.300781 8.875 -26.1875 C 10.601562 -27.082031 12.410156 -27.53125 14.296875 -27.53125 C 16.710938 -27.53125 18.972656 -26.867188 21.078125 -25.546875 C 21.609375 -27.078125 22.46875 -28.320312 23.65625 -29.28125 C 24.84375 -30.238281 26.132812 -30.71875 27.53125 -30.71875 C 28.414062 -30.71875 29.109375 -30.476562 29.609375 -30 C 30.109375 -29.519531 30.359375 -28.875 30.359375 -28.0625 C 30.359375 -27.5625 30.171875 -27.070312 29.796875 -26.59375 C 29.421875 -26.113281 28.878906 -25.875 28.171875 -25.875 C 27.566406 -25.875 27.050781 -26.050781 26.625 -26.40625 C 26.195312 -26.757812 25.925781 -27.203125 25.8125 -27.734375 C 24.957031 -27.628906 24.28125 -27.25 23.78125 -26.59375 C 23.289062 -25.9375 22.9375 -25.144531 22.71875 -24.21875 C 23.613281 -23.394531 24.304688 -22.429688 24.796875 -21.328125 C 25.296875 -20.234375 25.546875 -19.082031 25.546875 -17.875 C 25.546875 -15.914062 25.03125 -14.148438 24 -12.578125 C 22.96875 -11.015625 21.585938 -9.789062 19.859375 -8.90625 C 18.140625 -8.019531 16.285156 -7.578125 14.296875 -7.578125 C 13.835938 -7.578125 13.25 -7.613281 12.53125 -7.6875 C 12 -7.789062 11.394531 -7.84375 10.71875 -7.84375 C 9.550781 -7.84375 8.566406 -7.582031 7.765625 -7.0625 C 6.960938 -6.550781 6.5625 -5.921875 6.5625 -5.171875 C 6.5625 -4.140625 7.207031 -3.453125 8.5 -3.109375 C 9.800781 -2.773438 12.019531 -2.554688 15.15625 -2.453125 C 19.519531 -2.242188 22.796875 -1.539062 24.984375 -0.34375 C 27.171875 0.84375 28.265625 2.804688 28.265625 5.546875 C 28.265625 7.359375 27.632812 8.941406 26.375 10.296875 C 25.113281 11.648438 23.476562 12.679688 21.46875 13.390625 C 19.457031 14.097656 17.367188 14.453125 15.203125 14.453125 Z M 14.453125 -9.5 C 16.378906 -9.5 17.847656 -10.171875 18.859375 -11.515625 C 19.867188 -12.867188 20.375 -14.628906 20.375 -16.796875 C 20.375 -19.285156 19.832031 -21.382812 18.75 -23.09375 C 17.664062 -24.800781 16.144531 -25.65625 14.1875 -25.65625 C 12.300781 -25.65625 10.820312 -24.953125 9.75 -23.546875 C 8.6875 -22.140625 8.15625 -20.335938 8.15625 -18.140625 C 8.15625 -15.546875 8.710938 -13.457031 9.828125 -11.875 C 10.953125 -10.289062 12.492188 -9.5 14.453125 -9.5 Z M 15.15625 12.375 C 17.101562 12.375 18.816406 12.113281 20.296875 11.59375 C 21.773438 11.082031 22.90625 10.390625 23.6875 9.515625 C 24.46875 8.648438 24.859375 7.703125 24.859375 6.671875 C 24.859375 4.859375 23.992188 3.613281 22.265625 2.9375 C 20.546875 2.257812 17.992188 1.867188 14.609375 1.765625 C 12.367188 1.691406 10.539062 1.546875 9.125 1.328125 C 8.164062 1.972656 7.414062 2.753906 6.875 3.671875 C 6.34375 4.597656 6.078125 5.578125 6.078125 6.609375 C 6.078125 8.359375 6.90625 9.753906 8.5625 10.796875 C 10.21875 11.847656 12.414062 12.375 15.15625 12.375 Z M 15.15625 12.375 "/></g></g></g><g fill="#000000" fill-opacity="1"><g transform="translate(552.444691, 453.221945)"><g><path d="M 5.078125 8.484375 C 5.679688 7.703125 6.25 6.597656 6.78125 5.171875 C 7.3125 3.753906 7.578125 2.347656 7.578125 0.953125 C 7.578125 0.523438 7.5625 0.207031 7.53125 0 C 7.0625 0.207031 6.613281 0.3125 6.1875 0.3125 C 5.476562 0.3125 4.890625 0.0664062 4.421875 -0.421875 C 3.960938 -0.921875 3.734375 -1.546875 3.734375 -2.296875 C 3.734375 -3.253906 4.019531 -4.007812 4.59375 -4.5625 C 5.164062 -5.113281 5.859375 -5.390625 6.671875 -5.390625 C 7.847656 -5.390625 8.769531 -4.9375 9.4375 -4.03125 C 10.113281 -3.125 10.453125 -1.957031 10.453125 -0.53125 C 10.453125 0.925781 10.070312 2.6875 9.3125 4.75 C 8.550781 6.8125 7.617188 8.410156 6.515625 9.546875 Z M 6.828125 -20.640625 C 5.972656 -20.640625 5.238281 -20.96875 4.625 -21.625 C 4.019531 -22.289062 3.71875 -23.101562 3.71875 -24.0625 C 3.71875 -25.019531 4.03125 -25.835938 4.65625 -26.515625 C 5.28125 -27.191406 6.019531 -27.53125 6.875 -27.53125 C 7.757812 -27.53125 8.492188 -27.191406 9.078125 -26.515625 C 9.671875 -25.835938 9.96875 -25.019531 9.96875 -24.0625 C 9.96875 -23.101562 9.65625 -22.289062 9.03125 -21.625 C 8.40625 -20.96875 7.671875 -20.640625 6.828125 -20.640625 Z M 6.828125 -20.640625 "/></g></g></g><g fill="#000000" fill-opacity="1"><g transform="translate(566.474104, 453.221945)"><g/></g></g><g fill="#000000" fill-opacity="1"><g transform="translate(580.503517, 453.221945)"><g><path d="M 2.34375 -1.59375 C 3.375 -1.59375 4.113281 -1.847656 4.5625 -2.359375 C 5.007812 -2.878906 5.265625 -3.519531 5.328125 -4.28125 C 5.398438 -5.050781 5.457031 -6.328125 5.5 -8.109375 L 5.546875 -20.265625 C 5.546875 -21.765625 5.617188 -22.921875 5.765625 -23.734375 L 1.96875 -23.53125 L 1.96875 -25.765625 C 4.070312 -25.765625 5.515625 -25.878906 6.296875 -26.109375 C 7.078125 -26.335938 7.734375 -26.703125 8.265625 -27.203125 L 9.8125 -27.203125 C 9.882812 -26.523438 9.957031 -25.441406 10.03125 -23.953125 C 11.238281 -25.015625 12.613281 -25.875 14.15625 -26.53125 C 15.707031 -27.195312 17.226562 -27.53125 18.71875 -27.53125 C 21.8125 -27.53125 24.066406 -26.554688 25.484375 -24.609375 C 26.910156 -22.671875 27.625 -19.660156 27.625 -15.578125 L 27.625 -5.65625 C 27.625 -4.050781 27.554688 -2.84375 27.421875 -2.03125 L 30.78125 -2.1875 L 30.78125 0 L 19.890625 0 L 19.890625 -1.59375 C 20.921875 -1.59375 21.660156 -1.847656 22.109375 -2.359375 C 22.554688 -2.878906 22.820312 -3.539062 22.90625 -4.34375 C 23 -5.144531 23.046875 -6.398438 23.046875 -8.109375 L 23.046875 -15.578125 C 23.003906 -18.628906 22.503906 -20.929688 21.546875 -22.484375 C 20.585938 -24.035156 19.078125 -24.8125 17.015625 -24.8125 C 15.734375 -24.8125 14.460938 -24.488281 13.203125 -23.84375 C 11.941406 -23.207031 10.898438 -22.375 10.078125 -21.34375 C 10.117188 -20.945312 10.140625 -20.25 10.140625 -19.25 L 10.078125 -5.65625 C 10.078125 -4.050781 10.007812 -2.84375 9.875 -2.03125 L 13.234375 -2.1875 L 13.234375 0 L 2.34375 0 Z M 2.34375 -1.59375 "/></g></g></g><g fill="#000000" fill-opacity="1"><g transform="translate(612.883202, 453.221945)"><g><path d="M 15.578125 0.859375 C 13.117188 0.859375 10.867188 0.28125 8.828125 -0.875 C 6.785156 -2.03125 5.164062 -3.640625 3.96875 -5.703125 C 2.78125 -7.765625 2.1875 -10.097656 2.1875 -12.703125 C 2.1875 -15.472656 2.769531 -17.984375 3.9375 -20.234375 C 5.113281 -22.492188 6.722656 -24.273438 8.765625 -25.578125 C 10.816406 -26.878906 13.085938 -27.53125 15.578125 -27.53125 C 18.023438 -27.53125 20.28125 -26.929688 22.34375 -25.734375 C 24.40625 -24.546875 26.03125 -22.921875 27.21875 -20.859375 C 28.414062 -18.796875 29.015625 -16.5 29.015625 -13.96875 C 29.015625 -11.269531 28.414062 -8.78125 27.21875 -6.5 C 26.03125 -4.226562 24.414062 -2.429688 22.375 -1.109375 C 20.332031 0.203125 18.066406 0.859375 15.578125 0.859375 Z M 16 -1.28125 C 18.59375 -1.28125 20.503906 -2.347656 21.734375 -4.484375 C 22.960938 -6.617188 23.578125 -9.265625 23.578125 -12.421875 C 23.578125 -16.015625 22.910156 -19.09375 21.578125 -21.65625 C 20.242188 -24.21875 18.242188 -25.5 15.578125 -25.5 C 12.941406 -25.5 10.957031 -24.410156 9.625 -22.234375 C 8.289062 -20.066406 7.625 -17.40625 7.625 -14.25 C 7.625 -11.96875 7.9375 -9.835938 8.5625 -7.859375 C 9.1875 -5.890625 10.128906 -4.300781 11.390625 -3.09375 C 12.648438 -1.882812 14.1875 -1.28125 16 -1.28125 Z M 16 -1.28125 "/></g></g></g><g fill="#000000" fill-opacity="1"><g transform="translate(644.089316, 453.221945)"><g><path d="M 12.375 0.859375 C 7.5 0.859375 5.082031 -2.414062 5.125 -8.96875 L 5.234375 -24.4375 L 1.125 -24.375 L 1.125 -26.671875 C 2.832031 -26.703125 4.28125 -27.472656 5.46875 -28.984375 C 6.65625 -30.503906 7.535156 -32.222656 8.109375 -34.140625 L 9.921875 -34.140625 L 9.921875 -26.671875 L 18.890625 -26.671875 L 18.890625 -24.59375 L 9.921875 -24.484375 C 9.890625 -19.046875 9.863281 -15.273438 9.84375 -13.171875 C 9.820312 -11.078125 9.8125 -9.90625 9.8125 -9.65625 C 9.8125 -7.132812 10.113281 -5.257812 10.71875 -4.03125 C 11.320312 -2.800781 12.375 -2.1875 13.875 -2.1875 C 14.789062 -2.1875 15.703125 -2.46875 16.609375 -3.03125 C 17.523438 -3.601562 18.316406 -4.390625 18.984375 -5.390625 L 20.4375 -4.21875 C 19.039062 -2.15625 17.664062 -0.789062 16.3125 -0.125 C 14.96875 0.53125 13.65625 0.859375 12.375 0.859375 Z M 12.375 0.859375 "/></g></g></g><g fill="#000000" fill-opacity="1"><g transform="translate(664.733354, 453.221945)"><g/></g></g><g fill="#000000" fill-opacity="1"><g transform="translate(678.762767, 453.221945)"><g><path d="M 9.8125 0.859375 C 7.21875 0.859375 5.234375 0.269531 3.859375 -0.90625 C 2.492188 -2.082031 1.8125 -3.613281 1.8125 -5.5 C 1.8125 -7.5625 2.640625 -9.300781 4.296875 -10.71875 C 5.953125 -12.144531 8.03125 -13.203125 10.53125 -13.890625 C 13.039062 -14.585938 15.554688 -14.921875 18.078125 -14.890625 L 18.078125 -18.1875 C 18.078125 -20.5 17.738281 -22.300781 17.0625 -23.59375 C 16.394531 -24.894531 14.957031 -25.546875 12.75 -25.546875 C 11.644531 -25.546875 10.59375 -25.316406 9.59375 -24.859375 C 8.601562 -24.398438 7.878906 -23.707031 7.421875 -22.78125 C 7.878906 -22.28125 8.109375 -21.601562 8.109375 -20.75 C 8.109375 -20.21875 7.910156 -19.710938 7.515625 -19.234375 C 7.128906 -18.753906 6.5625 -18.515625 5.8125 -18.515625 C 5.0625 -18.515625 4.472656 -18.753906 4.046875 -19.234375 C 3.617188 -19.710938 3.40625 -20.34375 3.40625 -21.125 C 3.40625 -22.300781 3.859375 -23.375 4.765625 -24.34375 C 5.679688 -25.320312 6.945312 -26.097656 8.5625 -26.671875 C 10.175781 -27.242188 11.976562 -27.53125 13.96875 -27.53125 C 16.957031 -27.53125 19.160156 -26.738281 20.578125 -25.15625 C 22.003906 -23.570312 22.703125 -21.070312 22.671875 -17.65625 L 22.625 -5.65625 C 22.625 -4.519531 22.550781 -3.3125 22.40625 -2.03125 L 26.1875 -2.234375 L 26.1875 0 L 18.5625 0 C 18.457031 -0.53125 18.332031 -1.546875 18.1875 -3.046875 C 15.59375 -0.441406 12.800781 0.859375 9.8125 0.859375 Z M 11.046875 -2.1875 C 12.390625 -2.1875 13.613281 -2.441406 14.71875 -2.953125 C 15.820312 -3.472656 16.941406 -4.265625 18.078125 -5.328125 C 18.046875 -5.867188 18.03125 -6.78125 18.03125 -8.0625 L 18.078125 -13.0625 C 15.160156 -12.957031 12.5625 -12.363281 10.28125 -11.28125 C 8.007812 -10.195312 6.875 -8.535156 6.875 -6.296875 C 6.875 -4.984375 7.265625 -3.96875 8.046875 -3.25 C 8.835938 -2.539062 9.835938 -2.1875 11.046875 -2.1875 Z M 11.046875 -2.1875 "/></g></g></g><g fill="#000000" fill-opacity="1"><g transform="translate(706.288163, 453.221945)"><g><path d="M 14.9375 0.859375 C 13.507812 0.859375 12.101562 0.609375 10.71875 0.109375 C 9.332031 -0.390625 8.125 -1.226562 7.09375 -2.40625 L 5.8125 0 L 3.953125 0 L 4.046875 -33.34375 C 4.046875 -34.6875 4.101562 -35.84375 4.21875 -36.8125 L 0.421875 -36.59375 L 0.421875 -38.828125 C 2.554688 -38.828125 4.078125 -38.953125 4.984375 -39.203125 C 5.890625 -39.453125 6.59375 -39.8125 7.09375 -40.28125 L 8.640625 -40.28125 L 8.640625 -24.375 C 9.640625 -25.375 10.820312 -26.148438 12.1875 -26.703125 C 13.5625 -27.253906 15.066406 -27.53125 16.703125 -27.53125 C 18.972656 -27.53125 21.03125 -26.976562 22.875 -25.875 C 24.726562 -24.769531 26.179688 -23.1875 27.234375 -21.125 C 28.285156 -19.0625 28.8125 -16.675781 28.8125 -13.96875 C 28.8125 -11.019531 28.171875 -8.425781 26.890625 -6.1875 C 25.609375 -3.945312 23.898438 -2.210938 21.765625 -0.984375 C 19.628906 0.242188 17.351562 0.859375 14.9375 0.859375 Z M 14.9375 -1.328125 C 17.5 -1.328125 19.535156 -2.367188 21.046875 -4.453125 C 22.554688 -6.535156 23.3125 -9.265625 23.3125 -12.640625 C 23.3125 -16.378906 22.617188 -19.359375 21.234375 -21.578125 C 19.847656 -23.796875 17.800781 -24.90625 15.09375 -24.90625 C 13.925781 -24.90625 12.765625 -24.628906 11.609375 -24.078125 C 10.453125 -23.535156 9.460938 -22.800781 8.640625 -21.875 L 8.640625 -8.375 C 8.640625 -3.675781 10.738281 -1.328125 14.9375 -1.328125 Z M 14.9375 -1.328125 "/></g></g></g><g fill="#000000" fill-opacity="1"><g transform="translate(737.334252, 453.221945)"><g><path d="M 1.8125 -1.59375 C 2.84375 -1.59375 3.578125 -1.847656 4.015625 -2.359375 C 4.460938 -2.878906 4.734375 -3.539062 4.828125 -4.34375 C 4.921875 -5.144531 4.96875 -6.398438 4.96875 -8.109375 L 4.96875 -33.34375 C 4.96875 -34.6875 5.019531 -35.84375 5.125 -36.8125 L 1.328125 -36.59375 L 1.328125 -38.828125 C 3.460938 -38.828125 4.984375 -38.953125 5.890625 -39.203125 C 6.796875 -39.453125 7.5 -39.8125 8 -40.28125 L 9.546875 -40.28125 L 9.609375 -5.65625 C 9.609375 -4.269531 9.515625 -3.0625 9.328125 -2.03125 L 12.703125 -2.1875 L 12.703125 0 L 1.8125 0 Z M 1.8125 -1.59375 "/></g></g></g><g fill="#000000" fill-opacity="1"><g transform="translate(751.843781, 453.221945)"><g><path d="M 15.25 0.859375 C 12.800781 0.859375 10.585938 0.28125 8.609375 -0.875 C 6.640625 -2.03125 5.082031 -3.679688 3.9375 -5.828125 C 2.800781 -7.984375 2.234375 -10.46875 2.234375 -13.28125 C 2.234375 -15.769531 2.800781 -18.109375 3.9375 -20.296875 C 5.082031 -22.484375 6.675781 -24.234375 8.71875 -25.546875 C 10.757812 -26.867188 13.082031 -27.53125 15.6875 -27.53125 C 17.707031 -27.53125 19.535156 -27.082031 21.171875 -26.1875 C 22.804688 -25.300781 24.101562 -23.976562 25.0625 -22.21875 C 26.03125 -20.457031 26.515625 -18.296875 26.515625 -15.734375 L 7.734375 -15.421875 C 7.703125 -11.148438 8.40625 -7.820312 9.84375 -5.4375 C 11.28125 -3.050781 13.507812 -1.859375 16.53125 -1.859375 C 18.164062 -1.859375 19.847656 -2.285156 21.578125 -3.140625 C 23.304688 -3.992188 24.628906 -5.046875 25.546875 -6.296875 L 26.828125 -5.234375 C 25.484375 -3.171875 23.734375 -1.640625 21.578125 -0.640625 C 19.421875 0.359375 17.3125 0.859375 15.25 0.859375 Z M 21.5 -17.65625 C 21.5 -19.789062 21.015625 -21.617188 20.046875 -23.140625 C 19.085938 -24.671875 17.648438 -25.4375 15.734375 -25.4375 C 11.328125 -25.4375 8.710938 -22.84375 7.890625 -17.65625 Z M 21.5 -17.65625 "/></g></g></g><g fill="#000000" fill-opacity="1"><g transform="translate(780.756088, 453.221945)"><g/></g></g><g fill="#000000" fill-opacity="1"><g transform="translate(794.785501, 453.221945)"><g><path d="M 12.375 0.859375 C 7.5 0.859375 5.082031 -2.414062 5.125 -8.96875 L 5.234375 -24.4375 L 1.125 -24.375 L 1.125 -26.671875 C 2.832031 -26.703125 4.28125 -27.472656 5.46875 -28.984375 C 6.65625 -30.503906 7.535156 -32.222656 8.109375 -34.140625 L 9.921875 -34.140625 L 9.921875 -26.671875 L 18.890625 -26.671875 L 18.890625 -24.59375 L 9.921875 -24.484375 C 9.890625 -19.046875 9.863281 -15.273438 9.84375 -13.171875 C 9.820312 -11.078125 9.8125 -9.90625 9.8125 -9.65625 C 9.8125 -7.132812 10.113281 -5.257812 10.71875 -4.03125 C 11.320312 -2.800781 12.375 -2.1875 13.875 -2.1875 C 14.789062 -2.1875 15.703125 -2.46875 16.609375 -3.03125 C 17.523438 -3.601562 18.316406 -4.390625 18.984375 -5.390625 L 20.4375 -4.21875 C 19.039062 -2.15625 17.664062 -0.789062 16.3125 -0.125 C 14.96875 0.53125 13.65625 0.859375 12.375 0.859375 Z M 12.375 0.859375 "/></g></g></g><g fill="#000000" fill-opacity="1"><g transform="translate(815.429538, 453.221945)"><g><path d="M 15.578125 0.859375 C 13.117188 0.859375 10.867188 0.28125 8.828125 -0.875 C 6.785156 -2.03125 5.164062 -3.640625 3.96875 -5.703125 C 2.78125 -7.765625 2.1875 -10.097656 2.1875 -12.703125 C 2.1875 -15.472656 2.769531 -17.984375 3.9375 -20.234375 C 5.113281 -22.492188 6.722656 -24.273438 8.765625 -25.578125 C 10.816406 -26.878906 13.085938 -27.53125 15.578125 -27.53125 C 18.023438 -27.53125 20.28125 -26.929688 22.34375 -25.734375 C 24.40625 -24.546875 26.03125 -22.921875 27.21875 -20.859375 C 28.414062 -18.796875 29.015625 -16.5 29.015625 -13.96875 C 29.015625 -11.269531 28.414062 -8.78125 27.21875 -6.5 C 26.03125 -4.226562 24.414062 -2.429688 22.375 -1.109375 C 20.332031 0.203125 18.066406 0.859375 15.578125 0.859375 Z M 16 -1.28125 C 18.59375 -1.28125 20.503906 -2.347656 21.734375 -4.484375 C 22.960938 -6.617188 23.578125 -9.265625 23.578125 -12.421875 C 23.578125 -16.015625 22.910156 -19.09375 21.578125 -21.65625 C 20.242188 -24.21875 18.242188 -25.5 15.578125 -25.5 C 12.941406 -25.5 10.957031 -24.410156 9.625 -22.234375 C 8.289062 -20.066406 7.625 -17.40625 7.625 -14.25 C 7.625 -11.96875 7.9375 -9.835938 8.5625 -7.859375 C 9.1875 -5.890625 10.128906 -4.300781 11.390625 -3.09375 C 12.648438 -1.882812 14.1875 -1.28125 16 -1.28125 Z M 16 -1.28125 "/></g></g></g><g fill="#000000" fill-opacity="1"><g transform="translate(846.635631, 453.221945)"><g/></g></g><g fill="#000000" fill-opacity="1"><g transform="translate(860.665085, 453.221945)"><g><path d="M 14.9375 0.859375 C 13.507812 0.859375 12.101562 0.609375 10.71875 0.109375 C 9.332031 -0.390625 8.125 -1.226562 7.09375 -2.40625 L 5.8125 0 L 3.953125 0 L 4.046875 -33.34375 C 4.046875 -34.6875 4.101562 -35.84375 4.21875 -36.8125 L 0.421875 -36.59375 L 0.421875 -38.828125 C 2.554688 -38.828125 4.078125 -38.953125 4.984375 -39.203125 C 5.890625 -39.453125 6.59375 -39.8125 7.09375 -40.28125 L 8.640625 -40.28125 L 8.640625 -24.375 C 9.640625 -25.375 10.820312 -26.148438 12.1875 -26.703125 C 13.5625 -27.253906 15.066406 -27.53125 16.703125 -27.53125 C 18.972656 -27.53125 21.03125 -26.976562 22.875 -25.875 C 24.726562 -24.769531 26.179688 -23.1875 27.234375 -21.125 C 28.285156 -19.0625 28.8125 -16.675781 28.8125 -13.96875 C 28.8125 -11.019531 28.171875 -8.425781 26.890625 -6.1875 C 25.609375 -3.945312 23.898438 -2.210938 21.765625 -0.984375 C 19.628906 0.242188 17.351562 0.859375 14.9375 0.859375 Z M 14.9375 -1.328125 C 17.5 -1.328125 19.535156 -2.367188 21.046875 -4.453125 C 22.554688 -6.535156 23.3125 -9.265625 23.3125 -12.640625 C 23.3125 -16.378906 22.617188 -19.359375 21.234375 -21.578125 C 19.847656 -23.796875 17.800781 -24.90625 15.09375 -24.90625 C 13.925781 -24.90625 12.765625 -24.628906 11.609375 -24.078125 C 10.453125 -23.535156 9.460938 -22.800781 8.640625 -21.875 L 8.640625 -8.375 C 8.640625 -3.675781 10.738281 -1.328125 14.9375 -1.328125 Z M 14.9375 -1.328125 "/></g></g></g><g fill="#000000" fill-opacity="1"><g transform="translate(891.711153, 453.221945)"><g><path d="M 15.25 0.859375 C 12.800781 0.859375 10.585938 0.28125 8.609375 -0.875 C 6.640625 -2.03125 5.082031 -3.679688 3.9375 -5.828125 C 2.800781 -7.984375 2.234375 -10.46875 2.234375 -13.28125 C 2.234375 -15.769531 2.800781 -18.109375 3.9375 -20.296875 C 5.082031 -22.484375 6.675781 -24.234375 8.71875 -25.546875 C 10.757812 -26.867188 13.082031 -27.53125 15.6875 -27.53125 C 17.707031 -27.53125 19.535156 -27.082031 21.171875 -26.1875 C 22.804688 -25.300781 24.101562 -23.976562 25.0625 -22.21875 C 26.03125 -20.457031 26.515625 -18.296875 26.515625 -15.734375 L 7.734375 -15.421875 C 7.703125 -11.148438 8.40625 -7.820312 9.84375 -5.4375 C 11.28125 -3.050781 13.507812 -1.859375 16.53125 -1.859375 C 18.164062 -1.859375 19.847656 -2.285156 21.578125 -3.140625 C 23.304688 -3.992188 24.628906 -5.046875 25.546875 -6.296875 L 26.828125 -5.234375 C 25.484375 -3.171875 23.734375 -1.640625 21.578125 -0.640625 C 19.421875 0.359375 17.3125 0.859375 15.25 0.859375 Z M 21.5 -17.65625 C 21.5 -19.789062 21.015625 -21.617188 20.046875 -23.140625 C 19.085938 -24.671875 17.648438 -25.4375 15.734375 -25.4375 C 11.328125 -25.4375 8.710938 -22.84375 7.890625 -17.65625 Z M 21.5 -17.65625 "/></g></g></g><g fill="#000000" fill-opacity="1"><g transform="translate(920.623501, 453.221945)"><g/></g></g><g fill="#000000" fill-opacity="1"><g transform="translate(934.652873, 453.221945)"><g><path d="M 2.609375 -1.59375 C 3.640625 -1.59375 4.378906 -1.847656 4.828125 -2.359375 C 5.273438 -2.878906 5.539062 -3.539062 5.625 -4.34375 C 5.71875 -5.144531 5.765625 -6.398438 5.765625 -8.109375 L 5.703125 -24.375 L 1.328125 -24.265625 L 1.328125 -26.671875 L 5.703125 -26.671875 L 5.703125 -27.796875 C 5.703125 -31.921875 6.457031 -35.078125 7.96875 -37.265625 C 9.476562 -39.453125 11.925781 -40.546875 15.3125 -40.546875 C 16.664062 -40.546875 17.953125 -40.207031 19.171875 -39.53125 C 20.398438 -38.851562 21.015625 -37.875 21.015625 -36.59375 C 21.015625 -35.882812 20.8125 -35.304688 20.40625 -34.859375 C 20 -34.410156 19.4375 -34.1875 18.71875 -34.1875 C 18.007812 -34.1875 17.46875 -34.425781 17.09375 -34.90625 C 16.71875 -35.394531 16.53125 -35.882812 16.53125 -36.375 C 16.53125 -36.875 16.617188 -37.320312 16.796875 -37.71875 C 16.554688 -38 16.222656 -38.21875 15.796875 -38.375 C 15.367188 -38.539062 14.941406 -38.625 14.515625 -38.625 C 12.984375 -38.625 11.894531 -38.007812 11.25 -36.78125 C 10.613281 -35.550781 10.296875 -34.046875 10.296875 -32.265625 L 10.296875 -26.671875 L 17.5 -26.671875 L 17.5 -24.59375 L 10.296875 -24.4375 L 10.34375 -5.65625 C 10.34375 -4.050781 10.273438 -2.84375 10.140625 -2.03125 L 13.5 -2.1875 L 13.5 0 L 2.609375 0 Z M 2.609375 -1.59375 "/></g></g></g><g fill="#000000" fill-opacity="1"><g transform="translate(952.416379, 453.221945)"><g><path d="M 15.578125 0.859375 C 13.117188 0.859375 10.867188 0.28125 8.828125 -0.875 C 6.785156 -2.03125 5.164062 -3.640625 3.96875 -5.703125 C 2.78125 -7.765625 2.1875 -10.097656 2.1875 -12.703125 C 2.1875 -15.472656 2.769531 -17.984375 3.9375 -20.234375 C 5.113281 -22.492188 6.722656 -24.273438 8.765625 -25.578125 C 10.816406 -26.878906 13.085938 -27.53125 15.578125 -27.53125 C 18.023438 -27.53125 20.28125 -26.929688 22.34375 -25.734375 C 24.40625 -24.546875 26.03125 -22.921875 27.21875 -20.859375 C 28.414062 -18.796875 29.015625 -16.5 29.015625 -13.96875 C 29.015625 -11.269531 28.414062 -8.78125 27.21875 -6.5 C 26.03125 -4.226562 24.414062 -2.429688 22.375 -1.109375 C 20.332031 0.203125 18.066406 0.859375 15.578125 0.859375 Z M 16 -1.28125 C 18.59375 -1.28125 20.503906 -2.347656 21.734375 -4.484375 C 22.960938 -6.617188 23.578125 -9.265625 23.578125 -12.421875 C 23.578125 -16.015625 22.910156 -19.09375 21.578125 -21.65625 C 20.242188 -24.21875 18.242188 -25.5 15.578125 -25.5 C 12.941406 -25.5 10.957031 -24.410156 9.625 -22.234375 C 8.289062 -20.066406 7.625 -17.40625 7.625 -14.25 C 7.625 -11.96875 7.9375 -9.835938 8.5625 -7.859375 C 9.1875 -5.890625 10.128906 -4.300781 11.390625 -3.09375 C 12.648438 -1.882812 14.1875 -1.28125 16 -1.28125 Z M 16 -1.28125 "/></g></g></g><g fill="#000000" fill-opacity="1"><g transform="translate(983.622472, 453.221945)"><g><path d="M 2.34375 -1.59375 C 3.375 -1.59375 4.113281 -1.847656 4.5625 -2.359375 C 5.007812 -2.878906 5.273438 -3.539062 5.359375 -4.34375 C 5.453125 -5.144531 5.5 -6.398438 5.5 -8.109375 L 5.5 -20.265625 C 5.5 -21.765625 5.566406 -22.921875 5.703125 -23.734375 L 1.921875 -23.578125 L 1.921875 -25.765625 L 3.578125 -25.765625 C 4.921875 -25.765625 5.894531 -25.878906 6.5 -26.109375 C 7.113281 -26.335938 7.6875 -26.703125 8.21875 -27.203125 L 9.765625 -27.203125 C 9.898438 -25.816406 9.988281 -24.054688 10.03125 -21.921875 C 10.914062 -23.378906 12.1875 -24.675781 13.84375 -25.8125 C 15.5 -26.957031 17.210938 -27.53125 18.984375 -27.53125 C 20.054688 -27.53125 20.945312 -27.242188 21.65625 -26.671875 C 22.363281 -26.097656 22.71875 -25.265625 22.71875 -24.171875 C 22.71875 -23.597656 22.492188 -23.023438 22.046875 -22.453125 C 21.609375 -21.890625 20.976562 -21.609375 20.15625 -21.609375 C 19.375 -21.609375 18.734375 -21.898438 18.234375 -22.484375 C 17.742188 -23.066406 17.550781 -23.769531 17.65625 -24.59375 C 16.300781 -24.625 14.9375 -24.101562 13.5625 -23.03125 C 12.195312 -21.96875 11.035156 -20.550781 10.078125 -18.78125 L 10.140625 -5.65625 C 10.140625 -4.050781 10.066406 -2.84375 9.921875 -2.03125 L 13.28125 -2.1875 L 13.28125 0 L 2.34375 0 Z M 2.34375 -1.59375 "/></g></g></g><g fill="#000000" fill-opacity="1"><g transform="translate(1006.453626, 453.221945)"><g><path d="M 15.203125 14.453125 C 12.140625 14.453125 9.613281 14.113281 7.625 13.4375 C 5.632812 12.757812 4.175781 11.867188 3.25 10.765625 C 2.320312 9.671875 1.859375 8.5 1.859375 7.25 C 1.859375 5.757812 2.359375 4.453125 3.359375 3.328125 C 4.359375 2.210938 5.5 1.390625 6.78125 0.859375 C 5.570312 0.460938 4.65625 -0.0703125 4.03125 -0.75 C 3.40625 -1.425781 3.09375 -2.296875 3.09375 -3.359375 C 3.09375 -4.640625 3.597656 -5.8125 4.609375 -6.875 C 5.628906 -7.945312 6.898438 -8.609375 8.421875 -8.859375 C 6.753906 -9.640625 5.441406 -10.734375 4.484375 -12.140625 C 3.523438 -13.546875 3.046875 -15.15625 3.046875 -16.96875 C 3.046875 -19.03125 3.585938 -20.859375 4.671875 -22.453125 C 5.753906 -24.054688 7.15625 -25.300781 8.875 -26.1875 C 10.601562 -27.082031 12.410156 -27.53125 14.296875 -27.53125 C 16.710938 -27.53125 18.972656 -26.867188 21.078125 -25.546875 C 21.609375 -27.078125 22.46875 -28.320312 23.65625 -29.28125 C 24.84375 -30.238281 26.132812 -30.71875 27.53125 -30.71875 C 28.414062 -30.71875 29.109375 -30.476562 29.609375 -30 C 30.109375 -29.519531 30.359375 -28.875 30.359375 -28.0625 C 30.359375 -27.5625 30.171875 -27.070312 29.796875 -26.59375 C 29.421875 -26.113281 28.878906 -25.875 28.171875 -25.875 C 27.566406 -25.875 27.050781 -26.050781 26.625 -26.40625 C 26.195312 -26.757812 25.925781 -27.203125 25.8125 -27.734375 C 24.957031 -27.628906 24.28125 -27.25 23.78125 -26.59375 C 23.289062 -25.9375 22.9375 -25.144531 22.71875 -24.21875 C 23.613281 -23.394531 24.304688 -22.429688 24.796875 -21.328125 C 25.296875 -20.234375 25.546875 -19.082031 25.546875 -17.875 C 25.546875 -15.914062 25.03125 -14.148438 24 -12.578125 C 22.96875 -11.015625 21.585938 -9.789062 19.859375 -8.90625 C 18.140625 -8.019531 16.285156 -7.578125 14.296875 -7.578125 C 13.835938 -7.578125 13.25 -7.613281 12.53125 -7.6875 C 12 -7.789062 11.394531 -7.84375 10.71875 -7.84375 C 9.550781 -7.84375 8.566406 -7.582031 7.765625 -7.0625 C 6.960938 -6.550781 6.5625 -5.921875 6.5625 -5.171875 C 6.5625 -4.140625 7.207031 -3.453125 8.5 -3.109375 C 9.800781 -2.773438 12.019531 -2.554688 15.15625 -2.453125 C 19.519531 -2.242188 22.796875 -1.539062 24.984375 -0.34375 C 27.171875 0.84375 28.265625 2.804688 28.265625 5.546875 C 28.265625 7.359375 27.632812 8.941406 26.375 10.296875 C 25.113281 11.648438 23.476562 12.679688 21.46875 13.390625 C 19.457031 14.097656 17.367188 14.453125 15.203125 14.453125 Z M 14.453125 -9.5 C 16.378906 -9.5 17.847656 -10.171875 18.859375 -11.515625 C 19.867188 -12.867188 20.375 -14.628906 20.375 -16.796875 C 20.375 -19.285156 19.832031 -21.382812 18.75 -23.09375 C 17.664062 -24.800781 16.144531 -25.65625 14.1875 -25.65625 C 12.300781 -25.65625 10.820312 -24.953125 9.75 -23.546875 C 8.6875 -22.140625 8.15625 -20.335938 8.15625 -18.140625 C 8.15625 -15.546875 8.710938 -13.457031 9.828125 -11.875 C 10.953125 -10.289062 12.492188 -9.5 14.453125 -9.5 Z M 15.15625 12.375 C 17.101562 12.375 18.816406 12.113281 20.296875 11.59375 C 21.773438 11.082031 22.90625 10.390625 23.6875 9.515625 C 24.46875 8.648438 24.859375 7.703125 24.859375 6.671875 C 24.859375 4.859375 23.992188 3.613281 22.265625 2.9375 C 20.546875 2.257812 17.992188 1.867188 14.609375 1.765625 C 12.367188 1.691406 10.539062 1.546875 9.125 1.328125 C 8.164062 1.972656 7.414062 2.753906 6.875 3.671875 C 6.34375 4.597656 6.078125 5.578125 6.078125 6.609375 C 6.078125 8.359375 6.90625 9.753906 8.5625 10.796875 C 10.21875 11.847656 12.414062 12.375 15.15625 12.375 Z M 15.15625 12.375 "/></g></g></g><g fill="#000000" fill-opacity="1"><g transform="translate(1035.686023, 453.221945)"><g><path d="M 15.578125 0.859375 C 13.117188 0.859375 10.867188 0.28125 8.828125 -0.875 C 6.785156 -2.03125 5.164062 -3.640625 3.96875 -5.703125 C 2.78125 -7.765625 2.1875 -10.097656 2.1875 -12.703125 C 2.1875 -15.472656 2.769531 -17.984375 3.9375 -20.234375 C 5.113281 -22.492188 6.722656 -24.273438 8.765625 -25.578125 C 10.816406 -26.878906 13.085938 -27.53125 15.578125 -27.53125 C 18.023438 -27.53125 20.28125 -26.929688 22.34375 -25.734375 C 24.40625 -24.546875 26.03125 -22.921875 27.21875 -20.859375 C 28.414062 -18.796875 29.015625 -16.5 29.015625 -13.96875 C 29.015625 -11.269531 28.414062 -8.78125 27.21875 -6.5 C 26.03125 -4.226562 24.414062 -2.429688 22.375 -1.109375 C 20.332031 0.203125 18.066406 0.859375 15.578125 0.859375 Z M 16 -1.28125 C 18.59375 -1.28125 20.503906 -2.347656 21.734375 -4.484375 C 22.960938 -6.617188 23.578125 -9.265625 23.578125 -12.421875 C 23.578125 -16.015625 22.910156 -19.09375 21.578125 -21.65625 C 20.242188 -24.21875 18.242188 -25.5 15.578125 -25.5 C 12.941406 -25.5 10.957031 -24.410156 9.625 -22.234375 C 8.289062 -20.066406 7.625 -17.40625 7.625 -14.25 C 7.625 -11.96875 7.9375 -9.835938 8.5625 -7.859375 C 9.1875 -5.890625 10.128906 -4.300781 11.390625 -3.09375 C 12.648438 -1.882812 14.1875 -1.28125 16 -1.28125 Z M 16 -1.28125 "/></g></g></g><g fill="#000000" fill-opacity="1"><g transform="translate(1066.892116, 453.221945)"><g><path d="M 12.375 0.859375 C 7.5 0.859375 5.082031 -2.414062 5.125 -8.96875 L 5.234375 -24.4375 L 1.125 -24.375 L 1.125 -26.671875 C 2.832031 -26.703125 4.28125 -27.472656 5.46875 -28.984375 C 6.65625 -30.503906 7.535156 -32.222656 8.109375 -34.140625 L 9.921875 -34.140625 L 9.921875 -26.671875 L 18.890625 -26.671875 L 18.890625 -24.59375 L 9.921875 -24.484375 C 9.890625 -19.046875 9.863281 -15.273438 9.84375 -13.171875 C 9.820312 -11.078125 9.8125 -9.90625 9.8125 -9.65625 C 9.8125 -7.132812 10.113281 -5.257812 10.71875 -4.03125 C 11.320312 -2.800781 12.375 -2.1875 13.875 -2.1875 C 14.789062 -2.1875 15.703125 -2.46875 16.609375 -3.03125 C 17.523438 -3.601562 18.316406 -4.390625 18.984375 -5.390625 L 20.4375 -4.21875 C 19.039062 -2.15625 17.664062 -0.789062 16.3125 -0.125 C 14.96875 0.53125 13.65625 0.859375 12.375 0.859375 Z M 12.375 0.859375 "/></g></g></g><g fill="#000000" fill-opacity="1"><g transform="translate(1088.069624, 453.221945)"><g><path d="M 12.375 0.859375 C 7.5 0.859375 5.082031 -2.414062 5.125 -8.96875 L 5.234375 -24.4375 L 1.125 -24.375 L 1.125 -26.671875 C 2.832031 -26.703125 4.28125 -27.472656 5.46875 -28.984375 C 6.65625 -30.503906 7.535156 -32.222656 8.109375 -34.140625 L 9.921875 -34.140625 L 9.921875 -26.671875 L 18.890625 -26.671875 L 18.890625 -24.59375 L 9.921875 -24.484375 C 9.890625 -19.046875 9.863281 -15.273438 9.84375 -13.171875 C 9.820312 -11.078125 9.8125 -9.90625 9.8125 -9.65625 C 9.8125 -7.132812 10.113281 -5.257812 10.71875 -4.03125 C 11.320312 -2.800781 12.375 -2.1875 13.875 -2.1875 C 14.789062 -2.1875 15.703125 -2.46875 16.609375 -3.03125 C 17.523438 -3.601562 18.316406 -4.390625 18.984375 -5.390625 L 20.4375 -4.21875 C 19.039062 -2.15625 17.664062 -0.789062 16.3125 -0.125 C 14.96875 0.53125 13.65625 0.859375 12.375 0.859375 Z M 12.375 0.859375 "/></g></g></g><g fill="#000000" fill-opacity="1"><g transform="translate(1108.713661, 453.221945)"><g><path d="M 15.25 0.859375 C 12.800781 0.859375 10.585938 0.28125 8.609375 -0.875 C 6.640625 -2.03125 5.082031 -3.679688 3.9375 -5.828125 C 2.800781 -7.984375 2.234375 -10.46875 2.234375 -13.28125 C 2.234375 -15.769531 2.800781 -18.109375 3.9375 -20.296875 C 5.082031 -22.484375 6.675781 -24.234375 8.71875 -25.546875 C 10.757812 -26.867188 13.082031 -27.53125 15.6875 -27.53125 C 17.707031 -27.53125 19.535156 -27.082031 21.171875 -26.1875 C 22.804688 -25.300781 24.101562 -23.976562 25.0625 -22.21875 C 26.03125 -20.457031 26.515625 -18.296875 26.515625 -15.734375 L 7.734375 -15.421875 C 7.703125 -11.148438 8.40625 -7.820312 9.84375 -5.4375 C 11.28125 -3.050781 13.507812 -1.859375 16.53125 -1.859375 C 18.164062 -1.859375 19.847656 -2.285156 21.578125 -3.140625 C 23.304688 -3.992188 24.628906 -5.046875 25.546875 -6.296875 L 26.828125 -5.234375 C 25.484375 -3.171875 23.734375 -1.640625 21.578125 -0.640625 C 19.421875 0.359375 17.3125 0.859375 15.25 0.859375 Z M 21.5 -17.65625 C 21.5 -19.789062 21.015625 -21.617188 20.046875 -23.140625 C 19.085938 -24.671875 17.648438 -25.4375 15.734375 -25.4375 C 11.328125 -25.4375 8.710938 -22.84375 7.890625 -17.65625 Z M 21.5 -17.65625 "/></g></g></g><g fill="#000000" fill-opacity="1"><g transform="translate(1137.626009, 453.221945)"><g><path d="M 2.34375 -1.59375 C 3.375 -1.59375 4.113281 -1.847656 4.5625 -2.359375 C 5.007812 -2.878906 5.265625 -3.519531 5.328125 -4.28125 C 5.398438 -5.050781 5.457031 -6.328125 5.5 -8.109375 L 5.546875 -20.265625 C 5.546875 -21.765625 5.617188 -22.921875 5.765625 -23.734375 L 1.96875 -23.53125 L 1.96875 -25.765625 C 4.070312 -25.765625 5.515625 -25.878906 6.296875 -26.109375 C 7.078125 -26.335938 7.734375 -26.703125 8.265625 -27.203125 L 9.8125 -27.203125 C 9.882812 -26.523438 9.957031 -25.441406 10.03125 -23.953125 C 11.238281 -25.015625 12.613281 -25.875 14.15625 -26.53125 C 15.707031 -27.195312 17.226562 -27.53125 18.71875 -27.53125 C 21.8125 -27.53125 24.066406 -26.554688 25.484375 -24.609375 C 26.910156 -22.671875 27.625 -19.660156 27.625 -15.578125 L 27.625 -5.65625 C 27.625 -4.050781 27.554688 -2.84375 27.421875 -2.03125 L 30.78125 -2.1875 L 30.78125 0 L 19.890625 0 L 19.890625 -1.59375 C 20.921875 -1.59375 21.660156 -1.847656 22.109375 -2.359375 C 22.554688 -2.878906 22.820312 -3.539062 22.90625 -4.34375 C 23 -5.144531 23.046875 -6.398438 23.046875 -8.109375 L 23.046875 -15.578125 C 23.003906 -18.628906 22.503906 -20.929688 21.546875 -22.484375 C 20.585938 -24.035156 19.078125 -24.8125 17.015625 -24.8125 C 15.734375 -24.8125 14.460938 -24.488281 13.203125 -23.84375 C 11.941406 -23.207031 10.898438 -22.375 10.078125 -21.34375 C 10.117188 -20.945312 10.140625 -20.25 10.140625 -19.25 L 10.078125 -5.65625 C 10.078125 -4.050781 10.007812 -2.84375 9.875 -2.03125 L 13.234375 -2.1875 L 13.234375 0 L 2.34375 0 Z M 2.34375 -1.59375 "/></g></g></g><g fill="#000000" fill-opacity="1"><g transform="translate(1170.0139, 453.221945)"><g/></g></g><g fill="#000000" fill-opacity="1"><g transform="translate(3.471793, 517.234547)"><g><path d="M 15.578125 0.859375 C 13.117188 0.859375 10.867188 0.28125 8.828125 -0.875 C 6.785156 -2.03125 5.164062 -3.640625 3.96875 -5.703125 C 2.78125 -7.765625 2.1875 -10.097656 2.1875 -12.703125 C 2.1875 -15.472656 2.769531 -17.984375 3.9375 -20.234375 C 5.113281 -22.492188 6.722656 -24.273438 8.765625 -25.578125 C 10.816406 -26.878906 13.085938 -27.53125 15.578125 -27.53125 C 18.023438 -27.53125 20.28125 -26.929688 22.34375 -25.734375 C 24.40625 -24.546875 26.03125 -22.921875 27.21875 -20.859375 C 28.414062 -18.796875 29.015625 -16.5 29.015625 -13.96875 C 29.015625 -11.269531 28.414062 -8.78125 27.21875 -6.5 C 26.03125 -4.226562 24.414062 -2.429688 22.375 -1.109375 C 20.332031 0.203125 18.066406 0.859375 15.578125 0.859375 Z M 16 -1.28125 C 18.59375 -1.28125 20.503906 -2.347656 21.734375 -4.484375 C 22.960938 -6.617188 23.578125 -9.265625 23.578125 -12.421875 C 23.578125 -16.015625 22.910156 -19.09375 21.578125 -21.65625 C 20.242188 -24.21875 18.242188 -25.5 15.578125 -25.5 C 12.941406 -25.5 10.957031 -24.410156 9.625 -22.234375 C 8.289062 -20.066406 7.625 -17.40625 7.625 -14.25 C 7.625 -11.96875 7.9375 -9.835938 8.5625 -7.859375 C 9.1875 -5.890625 10.128906 -4.300781 11.390625 -3.09375 C 12.648438 -1.882812 14.1875 -1.28125 16 -1.28125 Z M 16 -1.28125 "/></g></g></g><g fill="#000000" fill-opacity="1"><g transform="translate(34.677907, 517.234547)"><g><path d="M 2.34375 -1.59375 C 3.375 -1.59375 4.113281 -1.847656 4.5625 -2.359375 C 5.007812 -2.878906 5.273438 -3.539062 5.359375 -4.34375 C 5.453125 -5.144531 5.5 -6.398438 5.5 -8.109375 L 5.5 -20.265625 C 5.5 -21.765625 5.566406 -22.921875 5.703125 -23.734375 L 1.921875 -23.578125 L 1.921875 -25.765625 L 3.578125 -25.765625 C 4.921875 -25.765625 5.894531 -25.878906 6.5 -26.109375 C 7.113281 -26.335938 7.6875 -26.703125 8.21875 -27.203125 L 9.765625 -27.203125 C 9.898438 -25.816406 9.988281 -24.054688 10.03125 -21.921875 C 10.914062 -23.378906 12.1875 -24.675781 13.84375 -25.8125 C 15.5 -26.957031 17.210938 -27.53125 18.984375 -27.53125 C 20.054688 -27.53125 20.945312 -27.242188 21.65625 -26.671875 C 22.363281 -26.097656 22.71875 -25.265625 22.71875 -24.171875 C 22.71875 -23.597656 22.492188 -23.023438 22.046875 -22.453125 C 21.609375 -21.890625 20.976562 -21.609375 20.15625 -21.609375 C 19.375 -21.609375 18.734375 -21.898438 18.234375 -22.484375 C 17.742188 -23.066406 17.550781 -23.769531 17.65625 -24.59375 C 16.300781 -24.625 14.9375 -24.101562 13.5625 -23.03125 C 12.195312 -21.96875 11.035156 -20.550781 10.078125 -18.78125 L 10.140625 -5.65625 C 10.140625 -4.050781 10.066406 -2.84375 9.921875 -2.03125 L 13.28125 -2.1875 L 13.28125 0 L 2.34375 0 Z M 2.34375 -1.59375 "/></g></g></g><g fill="#000000" fill-opacity="1"><g transform="translate(57.775756, 517.234547)"><g/></g></g><g fill="#000000" fill-opacity="1"><g transform="translate(71.805169, 517.234547)"><g><path d="M 2.34375 -1.59375 C 3.375 -1.59375 4.113281 -1.847656 4.5625 -2.359375 C 5.007812 -2.878906 5.273438 -3.539062 5.359375 -4.34375 C 5.453125 -5.144531 5.5 -6.398438 5.5 -8.109375 L 5.5 -20.265625 C 5.5 -21.765625 5.566406 -22.921875 5.703125 -23.734375 L 1.921875 -23.578125 L 1.921875 -25.765625 L 3.578125 -25.765625 C 4.921875 -25.765625 5.894531 -25.878906 6.5 -26.109375 C 7.113281 -26.335938 7.6875 -26.703125 8.21875 -27.203125 L 9.765625 -27.203125 C 9.898438 -25.816406 9.988281 -24.054688 10.03125 -21.921875 C 10.914062 -23.378906 12.1875 -24.675781 13.84375 -25.8125 C 15.5 -26.957031 17.210938 -27.53125 18.984375 -27.53125 C 20.054688 -27.53125 20.945312 -27.242188 21.65625 -26.671875 C 22.363281 -26.097656 22.71875 -25.265625 22.71875 -24.171875 C 22.71875 -23.597656 22.492188 -23.023438 22.046875 -22.453125 C 21.609375 -21.890625 20.976562 -21.609375 20.15625 -21.609375 C 19.375 -21.609375 18.734375 -21.898438 18.234375 -22.484375 C 17.742188 -23.066406 17.550781 -23.769531 17.65625 -24.59375 C 16.300781 -24.625 14.9375 -24.101562 13.5625 -23.03125 C 12.195312 -21.96875 11.035156 -20.550781 10.078125 -18.78125 L 10.140625 -5.65625 C 10.140625 -4.050781 10.066406 -2.84375 9.921875 -2.03125 L 13.28125 -2.1875 L 13.28125 0 L 2.34375 0 Z M 2.34375 -1.59375 "/></g></g></g><g fill="#000000" fill-opacity="1"><g transform="translate(94.903018, 517.234547)"><g><path d="M 15.25 0.859375 C 12.800781 0.859375 10.585938 0.28125 8.609375 -0.875 C 6.640625 -2.03125 5.082031 -3.679688 3.9375 -5.828125 C 2.800781 -7.984375 2.234375 -10.46875 2.234375 -13.28125 C 2.234375 -15.769531 2.800781 -18.109375 3.9375 -20.296875 C 5.082031 -22.484375 6.675781 -24.234375 8.71875 -25.546875 C 10.757812 -26.867188 13.082031 -27.53125 15.6875 -27.53125 C 17.707031 -27.53125 19.535156 -27.082031 21.171875 -26.1875 C 22.804688 -25.300781 24.101562 -23.976562 25.0625 -22.21875 C 26.03125 -20.457031 26.515625 -18.296875 26.515625 -15.734375 L 7.734375 -15.421875 C 7.703125 -11.148438 8.40625 -7.820312 9.84375 -5.4375 C 11.28125 -3.050781 13.507812 -1.859375 16.53125 -1.859375 C 18.164062 -1.859375 19.847656 -2.285156 21.578125 -3.140625 C 23.304688 -3.992188 24.628906 -5.046875 25.546875 -6.296875 L 26.828125 -5.234375 C 25.484375 -3.171875 23.734375 -1.640625 21.578125 -0.640625 C 19.421875 0.359375 17.3125 0.859375 15.25 0.859375 Z M 21.5 -17.65625 C 21.5 -19.789062 21.015625 -21.617188 20.046875 -23.140625 C 19.085938 -24.671875 17.648438 -25.4375 15.734375 -25.4375 C 11.328125 -25.4375 8.710938 -22.84375 7.890625 -17.65625 Z M 21.5 -17.65625 "/></g></g></g><g fill="#000000" fill-opacity="1"><g transform="translate(123.815345, 517.234547)"><g><path d="M 2.34375 -1.59375 C 3.375 -1.59375 4.113281 -1.847656 4.5625 -2.359375 C 5.007812 -2.878906 5.273438 -3.539062 5.359375 -4.34375 C 5.453125 -5.144531 5.5 -6.398438 5.5 -8.109375 L 5.5 -20.265625 C 5.5 -21.765625 5.566406 -22.921875 5.703125 -23.734375 L 1.921875 -23.53125 L 1.921875 -25.765625 C 4.015625 -25.765625 5.453125 -25.878906 6.234375 -26.109375 C 7.023438 -26.335938 7.6875 -26.703125 8.21875 -27.203125 L 9.765625 -27.203125 C 9.835938 -26.671875 9.90625 -25.726562 9.96875 -24.375 C 11.070312 -25.332031 12.316406 -26.097656 13.703125 -26.671875 C 15.097656 -27.242188 16.46875 -27.53125 17.8125 -27.53125 C 19.5625 -27.53125 21.046875 -27.21875 22.265625 -26.59375 C 23.492188 -25.96875 24.445312 -25.085938 25.125 -23.953125 C 26.40625 -24.984375 27.835938 -25.835938 29.421875 -26.515625 C 31.003906 -27.191406 32.523438 -27.53125 33.984375 -27.53125 C 37.109375 -27.53125 39.390625 -26.578125 40.828125 -24.671875 C 42.273438 -22.765625 42.960938 -19.734375 42.890625 -15.578125 L 42.828125 -5.65625 C 42.828125 -4.050781 42.757812 -2.84375 42.625 -2.03125 L 45.984375 -2.1875 L 45.984375 0 L 35.09375 0 L 35.09375 -1.59375 C 36.125 -1.59375 36.863281 -1.847656 37.3125 -2.359375 C 37.757812 -2.878906 38.023438 -3.539062 38.109375 -4.34375 C 38.203125 -5.144531 38.25 -6.398438 38.25 -8.109375 L 38.25 -15.578125 C 38.25 -18.628906 37.765625 -20.910156 36.796875 -22.421875 C 35.835938 -23.941406 34.328125 -24.703125 32.265625 -24.703125 C 31.171875 -24.703125 30.0625 -24.460938 28.9375 -23.984375 C 27.820312 -23.503906 26.835938 -22.867188 25.984375 -22.078125 C 26.335938 -20.984375 26.515625 -19.6875 26.515625 -18.1875 L 26.40625 -5.65625 C 26.40625 -4.050781 26.332031 -2.84375 26.1875 -2.03125 L 29.546875 -2.1875 L 29.546875 0 L 18.671875 0 L 18.671875 -1.59375 C 19.703125 -1.59375 20.4375 -1.847656 20.875 -2.359375 C 21.320312 -2.878906 21.582031 -3.519531 21.65625 -4.28125 C 21.726562 -5.050781 21.78125 -6.328125 21.8125 -8.109375 L 21.875 -15.578125 C 21.90625 -18.671875 21.457031 -20.984375 20.53125 -22.515625 C 19.613281 -24.046875 18.140625 -24.8125 16.109375 -24.8125 C 15.003906 -24.8125 13.910156 -24.578125 12.828125 -24.109375 C 11.742188 -23.648438 10.8125 -23.03125 10.03125 -22.25 L 10.078125 -19.359375 L 10.078125 -5.65625 C 10.078125 -4.050781 10.007812 -2.84375 9.875 -2.03125 L 13.234375 -2.1875 L 13.234375 0 L 2.34375 0 Z M 2.34375 -1.59375 "/></g></g></g><g fill="#000000" fill-opacity="1"><g transform="translate(171.504683, 517.234547)"><g><path d="M 15.578125 0.859375 C 13.117188 0.859375 10.867188 0.28125 8.828125 -0.875 C 6.785156 -2.03125 5.164062 -3.640625 3.96875 -5.703125 C 2.78125 -7.765625 2.1875 -10.097656 2.1875 -12.703125 C 2.1875 -15.472656 2.769531 -17.984375 3.9375 -20.234375 C 5.113281 -22.492188 6.722656 -24.273438 8.765625 -25.578125 C 10.816406 -26.878906 13.085938 -27.53125 15.578125 -27.53125 C 18.023438 -27.53125 20.28125 -26.929688 22.34375 -25.734375 C 24.40625 -24.546875 26.03125 -22.921875 27.21875 -20.859375 C 28.414062 -18.796875 29.015625 -16.5 29.015625 -13.96875 C 29.015625 -11.269531 28.414062 -8.78125 27.21875 -6.5 C 26.03125 -4.226562 24.414062 -2.429688 22.375 -1.109375 C 20.332031 0.203125 18.066406 0.859375 15.578125 0.859375 Z M 16 -1.28125 C 18.59375 -1.28125 20.503906 -2.347656 21.734375 -4.484375 C 22.960938 -6.617188 23.578125 -9.265625 23.578125 -12.421875 C 23.578125 -16.015625 22.910156 -19.09375 21.578125 -21.65625 C 20.242188 -24.21875 18.242188 -25.5 15.578125 -25.5 C 12.941406 -25.5 10.957031 -24.410156 9.625 -22.234375 C 8.289062 -20.066406 7.625 -17.40625 7.625 -14.25 C 7.625 -11.96875 7.9375 -9.835938 8.5625 -7.859375 C 9.1875 -5.890625 10.128906 -4.300781 11.390625 -3.09375 C 12.648438 -1.882812 14.1875 -1.28125 16 -1.28125 Z M 16 -1.28125 "/></g></g></g><g fill="#000000" fill-opacity="1"><g transform="translate(202.710797, 517.234547)"><g><path d="M 4.859375 -17.234375 C 3.429688 -20.503906 2.679688 -22.972656 2.609375 -24.640625 L 0.3125 -24.484375 L 0.3125 -26.671875 L 10.140625 -26.671875 L 10.140625 -25.078125 C 8.566406 -25.078125 7.78125 -24.414062 7.78125 -23.09375 C 7.78125 -22.132812 8.15625 -20.820312 8.90625 -19.15625 L 13.015625 -9.765625 C 13.472656 -8.660156 14.003906 -7.34375 14.609375 -5.8125 L 14.671875 -5.8125 C 14.773438 -6.164062 14.914062 -6.554688 15.09375 -6.984375 L 15.890625 -9.28125 L 20.15625 -20.96875 C 20.519531 -22 21.054688 -23.222656 21.765625 -24.640625 L 18.34375 -24.484375 L 18.34375 -26.671875 L 26.78125 -26.671875 L 26.78125 -25.078125 C 26.03125 -25.078125 25.390625 -24.816406 24.859375 -24.296875 C 24.328125 -23.785156 23.835938 -23.066406 23.390625 -22.140625 C 22.941406 -21.210938 22.347656 -19.789062 21.609375 -17.875 L 14.609375 0.15625 L 12.484375 0.15625 Z M 4.859375 -17.234375 "/></g></g></g><g fill="#000000" fill-opacity="1"><g transform="translate(229.649408, 517.234547)"><g><path d="M 15.25 0.859375 C 12.800781 0.859375 10.585938 0.28125 8.609375 -0.875 C 6.640625 -2.03125 5.082031 -3.679688 3.9375 -5.828125 C 2.800781 -7.984375 2.234375 -10.46875 2.234375 -13.28125 C 2.234375 -15.769531 2.800781 -18.109375 3.9375 -20.296875 C 5.082031 -22.484375 6.675781 -24.234375 8.71875 -25.546875 C 10.757812 -26.867188 13.082031 -27.53125 15.6875 -27.53125 C 17.707031 -27.53125 19.535156 -27.082031 21.171875 -26.1875 C 22.804688 -25.300781 24.101562 -23.976562 25.0625 -22.21875 C 26.03125 -20.457031 26.515625 -18.296875 26.515625 -15.734375 L 7.734375 -15.421875 C 7.703125 -11.148438 8.40625 -7.820312 9.84375 -5.4375 C 11.28125 -3.050781 13.507812 -1.859375 16.53125 -1.859375 C 18.164062 -1.859375 19.847656 -2.285156 21.578125 -3.140625 C 23.304688 -3.992188 24.628906 -5.046875 25.546875 -6.296875 L 26.828125 -5.234375 C 25.484375 -3.171875 23.734375 -1.640625 21.578125 -0.640625 C 19.421875 0.359375 17.3125 0.859375 15.25 0.859375 Z M 21.5 -17.65625 C 21.5 -19.789062 21.015625 -21.617188 20.046875 -23.140625 C 19.085938 -24.671875 17.648438 -25.4375 15.734375 -25.4375 C 11.328125 -25.4375 8.710938 -22.84375 7.890625 -17.65625 Z M 21.5 -17.65625 "/></g></g></g><g fill="#000000" fill-opacity="1"><g transform="translate(258.561735, 517.234547)"><g><path d="M 13.765625 0.859375 C 11.554688 0.859375 9.582031 0.304688 7.84375 -0.796875 C 6.101562 -1.898438 4.734375 -3.460938 3.734375 -5.484375 C 2.734375 -7.515625 2.234375 -9.882812 2.234375 -12.59375 C 2.234375 -15.4375 2.820312 -17.992188 4 -20.265625 C 5.175781 -22.546875 6.800781 -24.328125 8.875 -25.609375 C 10.957031 -26.890625 13.316406 -27.53125 15.953125 -27.53125 C 17.054688 -27.53125 18.1875 -27.378906 19.34375 -27.078125 C 20.5 -26.773438 21.445312 -26.425781 22.1875 -26.03125 L 22.1875 -33.34375 C 22.1875 -34.6875 22.238281 -35.84375 22.34375 -36.8125 L 18.5625 -36.59375 L 18.5625 -38.828125 C 20.65625 -38.828125 22.15625 -38.953125 23.0625 -39.203125 C 23.976562 -39.453125 24.679688 -39.8125 25.171875 -40.28125 L 26.71875 -40.28125 L 26.71875 -5.65625 C 26.71875 -4.519531 26.648438 -3.3125 26.515625 -2.03125 L 30.296875 -2.234375 L 30.296875 0 L 22.671875 0 C 22.492188 -0.957031 22.367188 -1.882812 22.296875 -2.78125 C 21.265625 -1.632812 20.007812 -0.738281 18.53125 -0.09375 C 17.0625 0.539062 15.472656 0.859375 13.765625 0.859375 Z M 15.6875 -1.765625 C 16.820312 -1.765625 17.984375 -2.09375 19.171875 -2.75 C 20.367188 -3.40625 21.375 -4.25 22.1875 -5.28125 C 22.15625 -5.851562 22.140625 -6.832031 22.140625 -8.21875 L 22.1875 -23.578125 C 20.519531 -24.816406 18.546875 -25.4375 16.265625 -25.4375 C 13.703125 -25.4375 11.640625 -24.378906 10.078125 -22.265625 C 8.515625 -20.148438 7.734375 -17.351562 7.734375 -13.875 C 7.734375 -10.238281 8.425781 -7.3125 9.8125 -5.09375 C 11.195312 -2.875 13.15625 -1.765625 15.6875 -1.765625 Z M 15.6875 -1.765625 "/></g></g></g><g fill="#000000" fill-opacity="1"><g transform="translate(290.461324, 517.234547)"><g><path d="M 6.515625 0.859375 C 5.660156 0.859375 4.925781 0.53125 4.3125 -0.125 C 3.707031 -0.789062 3.40625 -1.601562 3.40625 -2.5625 C 3.40625 -3.519531 3.71875 -4.335938 4.34375 -5.015625 C 4.96875 -5.691406 5.707031 -6.03125 6.5625 -6.03125 C 7.445312 -6.03125 8.179688 -5.691406 8.765625 -5.015625 C 9.359375 -4.335938 9.65625 -3.519531 9.65625 -2.5625 C 9.65625 -1.601562 9.34375 -0.789062 8.71875 -0.125 C 8.09375 0.53125 7.359375 0.859375 6.515625 0.859375 Z M 6.515625 0.859375 "/></g></g></g></g></g></svg>