<?xml version="1.0" encoding="UTF-8"?>
<svg id="Layer_2" data-name="Layer 2" xmlns="http://www.w3.org/2000/svg" xmlns:xlink="http://www.w3.org/1999/xlink" viewBox="0 0 1607.85 709.33">
  <defs>
    <style>
      .cls-1 {
        clip-path: url(#clippath-6);
      }

      .cls-2 {
        clip-path: url(#clippath-7);
      }

      .cls-3 {
        clip-path: url(#clippath-4);
      }

      .cls-4, .cls-5 {
        fill: none;
      }

      .cls-6 {
        fill: #ffe222;
      }

      .cls-7 {
        clip-path: url(#clippath-1);
      }

      .cls-8 {
        clip-path: url(#clippath-5);
      }

      .cls-5 {
        stroke: #000;
        stroke-miterlimit: 4;
        stroke-width: 6.99px;
      }

      .cls-9 {
        clip-path: url(#clippath-3);
      }

      .cls-10 {
        clip-path: url(#clippath-2);
      }

      .cls-11 {
        clip-path: url(#clippath);
      }
    </style>
    <clipPath id="clippath">
      <rect class="cls-4" x="10.67" y="237.33" width="1592" height="181.33"/>
    </clipPath>
    <clipPath id="clippath-1">
      <rect class="cls-4" x="11.43" y="238.24" width="1590.57" height="179.76"/>
    </clipPath>
    <clipPath id="clippath-2">
      <path class="cls-4" d="M15.06,298.57c378.53-19.96,492.86-23.14,590.87-27.8,86.99-3.92,156.59-9.33,245.36-12.88,105.46-4.1,227.26-7.28,346.21-9.33,125.7-2.23,334.49-30.51,389.53-2.8,27.7,21.08,27.7,90.29.35,111.93-54.33,28.73-257.79.56-380.3,2.61-115.05,1.87-231.16,4.85-334.49,8.96-89.83,3.54-162.63,9.14-250.33,13.24-97.3,4.47-208.08,7.28-307.86,12.12-94.81,4.66-229.39,35.97-276.96,16.42-39.24-17.72-22.38-112.49-22.38-112.49Z"/>
    </clipPath>
    <clipPath id="clippath-3">
      <rect class="cls-4" width="1602.67" height="365.33"/>
    </clipPath>
    <clipPath id="clippath-4">
      <rect class="cls-4" y="532" width="1576" height="92"/>
    </clipPath>
    <clipPath id="clippath-5">
      <rect class="cls-4" x="694.67" y="562.67" width="40" height="60.86"/>
    </clipPath>
    <clipPath id="clippath-6">
      <rect class="cls-4" x="1338.67" y="562.67" width="40" height="60.86"/>
    </clipPath>
    <clipPath id="clippath-7">
      <rect class="cls-4" y="617.33" width="402.67" height="92"/>
    </clipPath>
  </defs>
  <g id="Layer_1-2" data-name="Layer 1">
    <g class="cls-11">
      <g class="cls-7">
        <g class="cls-10">
          <path class="cls-6" d="M.85,238.31h1601.02v180.4H.85v-180.4Z"/>
        </g>
      </g>
    </g>
    <g class="cls-9">
      <g>
        <path d="M15.18,267.58c5.13-.18,9.01-.79,11.67-1.83,2.65-1.04,4.73-3.27,6.25-6.69,1.51-3.42,2.27-8.82,2.27-16.21v-108.88c0-10.61.38-19.14,1.15-25.58l-21.33.85v-21.9h81.58v18.77c-5.11.2-8.99.81-11.65,1.85-2.66,1.04-4.74,3.27-6.25,6.69-1.52,3.41-2.27,8.8-2.27,16.19v108.88c0,10.61-.39,19.14-1.15,25.58,6.07-.57,13.17-.85,21.31-.85v21.9H15.18v-18.77Z"/>
        <path d="M185.46,172.93c-4.74-6.07-9.95-13.18-15.63-21.33h-.29l.56,88.13c0,10.61-.38,19.14-1.13,25.58,6.05-.57,13.16-.85,21.31-.85v21.9h-64.81v-18.77c5.11-.18,8.99-.79,11.65-1.83,2.65-1.04,4.73-3.27,6.25-6.69,1.53-3.42,2.29-8.82,2.29-16.21l-.58-108.88c0-12.69.38-21.22,1.15-25.58l-21.6.85v-21.9h44.63l87,109.73c7.96,10.43,14.59,19.44,19.9,27.02h.27v-90.13c0-12.32.28-20.84.85-25.58l-21.31.85v-21.9h64.81v18.77c-5.11.2-8.99.81-11.65,1.85-2.66,1.04-4.74,3.27-6.27,6.69-1.52,3.41-2.27,8.8-2.27,16.19v158.33h-24.17l-90.96-116.25Z"/>
        <path d="M344.93,267.58c5.13-.18,9.01-.79,11.67-1.83,2.65-1.04,4.73-3.27,6.25-6.69,1.51-3.42,2.27-8.82,2.27-16.21v-108.88c0-10.61.38-19.14,1.15-25.58l-21.33.85v-21.9l82.73-.27c23.69,0,43.73,4.7,60.13,14.08,16.39,9.38,28.61,21.55,36.67,36.52,8.05,14.97,12.08,30.7,12.08,47.19s-3.84,32.73-11.52,48.19c-7.67,15.45-19.79,28.19-36.38,38.23s-37.39,15.06-62.4,15.06h-81.31v-18.77ZM432.2,265.6c13.26,0,24.34-3.51,33.25-10.52,8.92-7.01,15.51-16.16,19.77-27.44,4.26-11.28,6.4-23.55,6.4-36.81,0-28.8-5.88-50.13-17.63-63.96s-28.33-20.75-49.75-20.75c-6.45,0-11.04,1.61-13.79,4.83-2.74,3.22-4.1,9.67-4.1,19.33v109.44c0,10.61-.39,19.14-1.15,25.58.94-.18,2.74-.27,5.4-.27l12.23.27c2.46.2,5.58.29,9.38.29Z"/>
        <path d="M556.71,267.58c5.13-.18,9.01-.79,11.67-1.83,2.65-1.04,4.73-3.27,6.25-6.69,1.51-3.42,2.27-8.82,2.27-16.21v-108.88c0-10.61.38-19.14,1.15-25.58l-21.33.85v-21.9h142.15l1.71,55.17h-18.77c0-14.03-3.37-23.74-10.1-29.15-6.72-5.4-14.82-7.92-24.29-7.54l-10.23.29c-4.56.2-8.16.81-10.81,1.85-2.66,1.04-4.69,3.36-6.1,6.96-1.42,3.6-2.13,8.91-2.13,15.92v42.65h33.25c-.2-3.22-.58-11.46-1.15-24.73h21.9v69.08h-18.75c0-7.58-1.19-13.17-3.56-16.77-2.38-3.61-5.46-5.94-9.25-6.98-3.78-1.04-8.8-1.46-15.06-1.27l-7.38.27v46.63c0,10.24-.39,18.58-1.15,25.02h38.08c9.67,0,17.86-3.27,24.58-9.81,6.73-6.54,10.1-16.92,10.1-31.13h18.48l-1.42,62.54h-150.1v-18.77Z"/>
        <path d="M734.1,267.58c5.13-.18,9.01-.79,11.67-1.83,2.65-1.04,4.73-3.27,6.25-6.69,1.51-3.42,2.27-8.82,2.27-16.21v-108.88c0-10.61.38-19.14,1.15-25.58l-21.33.85v-21.9h81.58v18.77c-5.11.2-8.99.81-11.65,1.85-2.66,1.04-4.74,3.27-6.25,6.69-1.52,3.41-2.27,8.8-2.27,16.19v108.88c0,10.24-.39,18.58-1.15,25.02h38.08c11.38-.19,20.19-4.22,26.44-12.08,6.26-7.86,9.4-19.38,9.4-34.54h19.04l-1.71,68.23h-151.52v-18.77Z"/>
        <path d="M905.8,267.58c5.13-.18,9.01-.79,11.67-1.83,2.65-1.04,4.73-3.27,6.25-6.69,1.51-3.42,2.27-8.82,2.27-16.21v-108.88c0-10.61.38-19.14,1.15-25.58l-21.33.85v-21.9h81.58v18.77c-5.11.2-8.99.81-11.65,1.85-2.66,1.04-4.74,3.27-6.25,6.69-1.52,3.41-2.27,8.8-2.27,16.19v108.88c0,10.61-.39,19.14-1.15,25.58,6.07-.57,13.17-.85,21.31-.85v21.9h-81.58v-18.77Z"/>
        <path d="M1015.81,267.58c5.13-.18,9.01-.79,11.67-1.83,2.65-1.04,4.73-3.27,6.25-6.69,1.51-3.42,2.27-8.82,2.27-16.21v-108.88c0-10.61.38-19.14,1.15-25.58l-21.33.85v-21.9l78.75-.56c22.73-.18,40.55,3.9,53.44,12.23,12.89,8.33,19.33,20.56,19.33,36.67,0,9.29-3.46,17.87-10.38,25.73-6.92,7.86-17.1,13.6-30.56,17.21v.27c18.19,2.85,31.93,8.92,41.21,18.21,9.29,9.28,13.94,20.18,13.94,32.69,0,18-6.4,31.93-19.19,41.79-12.79,9.85-29.42,14.77-49.88,14.77h-96.67v-18.77ZM1091.99,174.35c11.18-.19,19.28-3.75,24.29-10.67,5.03-6.92,7.54-16.06,7.54-27.44,0-10.22-2.84-17.7-8.52-22.44-5.68-4.75-12.6-7.13-20.75-7.13-3.99,0-7.17.48-9.54,1.44-2.36.95-4.25,3.18-5.67,6.69-1.42,3.5-2.13,8.76-2.13,15.77v44.06l14.77-.29ZM1076.08,266.16c12.51,0,21.71-.09,27.58-.27,11.18-.57,19.51-4.13,25-10.67,5.5-6.54,8.25-15.3,8.25-26.29,0-12.14-3.51-20.9-10.52-26.29-7.02-5.4-15.73-8.1-26.15-8.1s-18.1.09-23.02.27v46.33c0,10.24-.39,18.58-1.15,25.02Z"/>
        <path d="M1200.58,267.58c5.13-.18,9.01-.79,11.67-1.83,2.65-1.04,4.73-3.27,6.25-6.69,1.51-3.42,2.27-8.82,2.27-16.21v-108.88c0-10.61.38-19.14,1.15-25.58l-21.33.85v-21.9h81.58v18.77c-5.11.2-8.99.81-11.65,1.85-2.66,1.04-4.74,3.27-6.25,6.69-1.52,3.41-2.27,8.8-2.27,16.19v108.88c0,10.24-.39,18.58-1.15,25.02h38.08c11.38-.19,20.19-4.22,26.44-12.08,6.26-7.86,9.4-19.38,9.4-34.54h19.04l-1.71,68.23h-151.52v-18.77Z"/>
        <path d="M1372.28,267.58c5.13-.18,9.01-.79,11.67-1.83,2.65-1.04,4.73-3.27,6.25-6.69,1.51-3.42,2.27-8.82,2.27-16.21v-108.88c0-10.61.38-19.14,1.15-25.58l-21.33.85v-21.9h142.15l1.71,55.17h-18.77c0-14.03-3.37-23.74-10.1-29.15-6.72-5.4-14.82-7.92-24.29-7.54l-10.23.29c-4.56.2-8.16.81-10.81,1.85-2.66,1.04-4.69,3.36-6.1,6.96-1.42,3.6-2.13,8.91-2.13,15.92v42.65h33.25c-.2-3.22-.58-11.46-1.15-24.73h21.9v69.08h-18.75c0-7.58-1.19-13.17-3.56-16.77-2.38-3.61-5.46-5.94-9.25-6.98-3.78-1.04-8.8-1.46-15.06-1.27l-7.38.27v46.63c0,10.24-.39,18.58-1.15,25.02h38.08c9.67,0,17.86-3.27,24.58-9.81,6.73-6.54,10.1-16.92,10.1-31.13h18.48l-1.42,62.54h-150.1v-18.77Z"/>
        <path d="M1569,290.89c-6.07,0-11.1-2.14-15.08-6.4-3.97-4.26-5.96-9.52-5.96-15.77s2.08-11.28,6.25-15.63c4.18-4.36,9.01-6.54,14.5-6.54,5.88,0,10.76,2.18,14.65,6.54,3.89,4.35,5.83,9.56,5.83,15.63s-1.85,11.51-5.54,15.77c-3.7,4.26-8.58,6.4-14.65,6.4Z"/>
      </g>
    </g>
    <path class="cls-5" d="M.97,496.08h1177.4"/>
    <g class="cls-3">
      <g>
        <path d="M4.53,599.29c1.28-.05,2.24-.21,2.9-.46.67-.26,1.19-.82,1.56-1.67.39-.86.58-2.21.58-4.06v-27.21c0-2.65.09-4.78.27-6.4l-5.31.21v-5.48h20.4v4.69c-1.29.06-2.27.22-2.94.48-.66.25-1.18.81-1.56,1.67-.38.85-.56,2.2-.56,4.04v27.23c0,2.66-.09,4.79-.27,6.4,1.51-.15,3.29-.23,5.33-.23v5.48H4.53v-4.69Z"/>
        <path d="M47.1,575.63c-1.2-1.51-2.5-3.29-3.92-5.33h-.06l.13,22.04c0,2.66-.09,4.79-.27,6.4,1.51-.15,3.29-.23,5.33-.23v5.48h-16.21v-4.69c1.28-.05,2.25-.21,2.92-.46.67-.26,1.19-.82,1.56-1.67.38-.86.56-2.21.56-4.06l-.15-27.21c0-3.18.09-5.31.29-6.4l-5.4.21v-5.48h11.15l21.75,27.44c1.98,2.61,3.65,4.86,4.98,6.75h.06v-22.52c0-3.08.07-5.21.21-6.4l-5.31.21v-5.48h16.19v4.69c-1.28.06-2.25.22-2.92.48-.66.25-1.18.81-1.56,1.67-.38.85-.56,2.2-.56,4.04v39.58h-6.04l-22.73-29.06Z"/>
        <path d="M85.76,577.84h26.15v7.46l-26.15.21v-7.67Z"/>
        <path d="M117.53,599.29c1.28-.05,2.24-.21,2.9-.46.67-.26,1.19-.82,1.56-1.67.39-.86.58-2.21.58-4.06v-27.21c0-2.65.09-4.78.27-6.4l-5.31.21v-5.48l20.67-.06c5.93,0,10.94,1.18,15.04,3.52,4.09,2.35,7.15,5.4,9.17,9.15,2.01,3.74,3.02,7.66,3.02,11.77s-.97,8.18-2.9,12.04c-1.92,3.86-4.95,7.05-9.1,9.56-4.14,2.52-9.33,3.77-15.58,3.77h-20.31v-4.69ZM139.34,598.79c3.3,0,6.07-.88,8.29-2.63,2.23-1.75,3.89-4.03,4.96-6.85,1.07-2.82,1.6-5.89,1.6-9.21,0-7.21-1.47-12.54-4.42-16-2.93-3.46-7.08-5.19-12.44-5.19-1.61,0-2.77.41-3.46,1.21-.68.81-1.02,2.42-1.02,4.83v27.38c0,2.66-.09,4.79-.27,6.4.23-.05.68-.08,1.33-.08l3.06.08c.63.04,1.41.06,2.35.06Z"/>
        <path d="M170.48,599.29c1.28-.05,2.24-.21,2.9-.46.67-.26,1.19-.82,1.56-1.67.39-.86.58-2.21.58-4.06v-27.21c0-2.65.09-4.78.27-6.4l-5.31.21v-5.48h35.52l.44,13.79h-4.71c0-3.5-.84-5.92-2.52-7.27-1.68-1.36-3.7-1.99-6.06-1.9l-2.56.06c-1.14.06-2.04.22-2.71.48-.67.25-1.18.83-1.54,1.73-.35.91-.52,2.23-.52,3.98v10.67h8.31c-.04-.8-.14-2.86-.27-6.19h5.46v17.27h-4.69c0-1.89-.3-3.28-.9-4.19-.58-.9-1.35-1.48-2.29-1.75-.95-.26-2.2-.36-3.77-.31l-1.85.06v11.67c0,2.56-.09,4.64-.27,6.25h9.52c2.42,0,4.46-.82,6.15-2.46,1.68-1.64,2.52-4.23,2.52-7.77h4.63l-.35,15.63h-37.52v-4.69Z"/>
        <path d="M214.82,599.29c1.28-.05,2.24-.21,2.9-.46.67-.26,1.19-.82,1.56-1.67.39-.86.58-2.21.58-4.06v-27.21c0-2.65.09-4.78.27-6.4l-5.31.21v-5.48h20.4v4.69c-1.29.06-2.27.22-2.94.48-.66.25-1.18.81-1.56,1.67-.38.85-.56,2.2-.56,4.04v27.23c0,2.56-.09,4.64-.27,6.25h9.52c2.83-.05,5.03-1.06,6.6-3.02,1.57-1.97,2.35-4.85,2.35-8.65h4.75l-.42,17.06h-37.88v-4.69Z"/>
        <path d="M257.81,577.84h26.15v7.46l-26.15.21v-7.67Z"/>
        <path d="M289.59,599.29c1.28-.05,2.24-.21,2.9-.46.67-.26,1.19-.82,1.56-1.67.39-.86.58-2.21.58-4.06v-27.21c0-2.65.09-4.78.27-6.4l-5.31.21v-5.48h20.4v4.69c-1.29.06-2.27.22-2.94.48-.66.25-1.18.81-1.56,1.67-.38.85-.56,2.2-.56,4.04v27.23c0,2.66-.09,4.79-.27,6.4,1.51-.15,3.29-.23,5.33-.23v5.48h-20.4v-4.69Z"/>
        <path d="M315.52,577.84h26.15v7.46l-26.15.21v-7.67Z"/>
        <path d="M347.29,599.29c1.28-.05,2.24-.21,2.9-.46.67-.26,1.19-.82,1.56-1.67.39-.86.58-2.21.58-4.06v-27.21c0-2.65.09-4.78.27-6.4l-5.31.21v-5.48l19.67-.15c5.69-.04,10.15.98,13.38,3.06,3.22,2.08,4.83,5.14,4.83,9.17,0,2.32-.87,4.47-2.6,6.44-1.72,1.96-4.27,3.39-7.65,4.29v.08c4.55.71,7.99,2.22,10.31,4.54,2.32,2.32,3.48,5.04,3.48,8.17,0,4.5-1.6,7.99-4.79,10.46-3.2,2.46-7.35,3.69-12.48,3.69h-24.15v-4.69ZM366.33,575.98c2.79-.04,4.81-.92,6.06-2.65,1.26-1.73,1.9-4.03,1.9-6.88,0-2.55-.72-4.42-2.15-5.6-1.42-1.19-3.15-1.79-5.19-1.79-.99,0-1.78.12-2.38.35-.6.24-1.08.8-1.44,1.69-.35.88-.52,2.19-.52,3.94v11l3.71-.06ZM362.35,598.94c3.13,0,5.42-.03,6.9-.08,2.79-.14,4.88-1.02,6.25-2.65,1.38-1.64,2.06-3.83,2.06-6.58,0-3.03-.89-5.21-2.65-6.56-1.75-1.36-3.93-2.04-6.52-2.04s-4.54.03-5.77.08v11.58c0,2.56-.09,4.64-.27,6.25Z"/>
        <path d="M393.49,599.29c1.28-.05,2.24-.21,2.9-.46.67-.26,1.19-.82,1.56-1.67.39-.86.58-2.21.58-4.06v-27.21c0-2.65.09-4.78.27-6.4l-5.31.21v-5.48h20.4v4.69c-1.29.06-2.27.22-2.94.48-.66.25-1.18.81-1.56,1.67-.38.85-.56,2.2-.56,4.04v27.23c0,2.56-.09,4.64-.27,6.25h9.52c2.83-.05,5.03-1.06,6.6-3.02,1.57-1.97,2.35-4.85,2.35-8.65h4.75l-.42,17.06h-37.88v-4.69Z"/>
        <path d="M436.41,599.29c1.28-.05,2.24-.21,2.9-.46.67-.26,1.19-.82,1.56-1.67.39-.86.58-2.21.58-4.06v-27.21c0-2.65.09-4.78.27-6.4l-5.31.21v-5.48h35.52l.44,13.79h-4.71c0-3.5-.84-5.92-2.52-7.27-1.68-1.36-3.7-1.99-6.06-1.9l-2.56.06c-1.14.06-2.04.22-2.71.48-.67.25-1.18.83-1.54,1.73-.35.91-.52,2.23-.52,3.98v10.67h8.31c-.04-.8-.14-2.86-.27-6.19h5.46v17.27h-4.69c0-1.89-.3-3.28-.9-4.19-.58-.9-1.35-1.48-2.29-1.75-.95-.26-2.2-.36-3.77-.31l-1.85.06v11.67c0,2.56-.09,4.64-.27,6.25h9.52c2.42,0,4.46-.82,6.15-2.46,1.68-1.64,2.52-4.23,2.52-7.77h4.63l-.35,15.63h-37.52v-4.69Z"/>
        <path d="M486.07,605.13c-1.52,0-2.77-.54-3.77-1.6-.99-1.07-1.48-2.38-1.48-3.94s.52-2.83,1.56-3.92c1.04-1.09,2.25-1.65,3.63-1.65,1.47,0,2.69.55,3.67,1.65.97,1.08,1.46,2.39,1.46,3.92s-.47,2.87-1.4,3.94c-.92,1.07-2.14,1.6-3.67,1.6ZM486.07,576.48c-1.52,0-2.77-.53-3.77-1.6-.99-1.07-1.48-2.38-1.48-3.94s.52-2.83,1.56-3.92c1.04-1.09,2.25-1.65,3.63-1.65,1.47,0,2.69.55,3.67,1.65.97,1.08,1.46,2.39,1.46,3.92s-.47,2.87-1.4,3.94c-.92,1.07-2.14,1.6-3.67,1.6Z"/>
        <path d="M515.94,601.86c1.38,0,2.35-.34,2.94-1.02.59-.69.95-1.57,1.06-2.65.13-1.07.19-2.73.19-5v-33.63c0-1.79.07-3.33.21-4.63l-5.04.29v-2.98c2.84,0,4.88-.17,6.08-.5s2.15-.8,2.81-1.42h2.06l.06,46.1c0,1.85-.12,3.46-.35,4.83l4.48-.21v2.92h-14.5v-2.13Z"/>
        <path d="M545.94,605.13c-3.46,0-6.1-.79-7.94-2.35-1.82-1.57-2.73-3.6-2.73-6.1,0-2.75,1.09-5.07,3.29-6.96,2.21-1.9,4.98-3.31,8.31-4.23,3.34-.93,6.7-1.38,10.06-1.33v-4.4c0-3.08-.45-5.48-1.35-7.21-.89-1.73-2.81-2.6-5.75-2.6-1.47,0-2.88.31-4.21.94-1.32.61-2.29,1.54-2.9,2.77.61.66.92,1.55.92,2.69,0,.71-.27,1.39-.79,2.02-.52.64-1.27.96-2.25.96s-1.79-.32-2.35-.96c-.57-.64-.85-1.48-.85-2.52,0-1.55.6-2.98,1.81-4.29,1.21-1.3,2.89-2.33,5.04-3.08,2.17-.76,4.57-1.15,7.23-1.15,3.97,0,6.9,1.06,8.79,3.17,1.9,2.11,2.83,5.44,2.79,9.98l-.08,15.98c0,1.53-.09,3.14-.27,4.83l5.04-.27v2.98h-10.17c-.14-.71-.31-2.05-.5-4.04-3.46,3.46-7.18,5.19-11.15,5.19ZM547.56,601.06c1.8,0,3.44-.34,4.9-1.02,1.47-.69,2.96-1.75,4.48-3.17-.04-.71-.06-1.92-.06-3.63l.06-6.69c-3.88.16-7.33.95-10.38,2.4-3.03,1.45-4.54,3.66-4.54,6.65,0,1.75.52,3.1,1.56,4.04,1.04.95,2.36,1.42,3.98,1.42Z"/>
        <path d="M587.21,605.13c-2.22,0-4.26-.3-6.1-.9-1.85-.59-3.44-1.34-4.77-2.25l.29,2.5h-2.98l-.44-12.23h2.21c.09,1.95.63,3.68,1.6,5.19.97,1.52,2.25,2.72,3.83,3.6,1.58.88,3.28,1.31,5.08,1.31,2.04,0,3.85-.48,5.44-1.46,1.58-.97,2.38-2.36,2.38-4.17,0-1.32-.39-2.43-1.17-3.33-.78-.9-1.75-1.65-2.92-2.23-1.17-.59-2.79-1.3-4.88-2.1-2.5-.96-4.52-1.84-6.04-2.67-1.52-.83-2.82-1.96-3.92-3.38-1.08-1.43-1.63-3.23-1.63-5.4,0-1.57.38-3.13,1.15-4.69.76-1.57,2.04-2.9,3.83-3.98,1.8-1.09,4.2-1.65,7.19-1.65,1.46,0,2.96.24,4.5.71,1.54.47,2.98,1.26,4.31,2.35l-.15-2.71h2.98v12.44h-2.27c-.14-2.75-.98-5.13-2.52-7.15-1.54-2.01-3.71-3.02-6.5-3.02-2.14,0-3.84.54-5.1,1.6-1.25,1.07-1.88,2.33-1.88,3.79,0,1.38.42,2.54,1.25,3.5.83.95,1.86,1.75,3.08,2.42,1.23.66,2.9,1.39,4.98,2.19,2.47,1,4.46,1.93,5.98,2.79,1.51.85,2.8,1.97,3.85,3.38,1.07,1.39,1.6,3.08,1.6,5.06,0,2.28-.58,4.2-1.75,5.77-1.16,1.56-2.67,2.73-4.54,3.52-1.86.78-3.86,1.17-6,1.17Z"/>
        <path d="M618.91,605.13c-6.49,0-9.71-4.36-9.67-13.08l.15-20.6-5.46.06v-3.04c2.26-.05,4.19-1.09,5.77-3.1,1.59-2.01,2.77-4.3,3.52-6.85h2.42v9.96h11.94v2.77l-11.94.13c-.04,7.25-.08,12.28-.1,15.08-.02,2.79-.02,4.35-.02,4.69,0,3.36.4,5.86,1.21,7.5.8,1.63,2.2,2.44,4.19,2.44,1.23,0,2.46-.38,3.67-1.13,1.21-.76,2.26-1.81,3.15-3.15l1.92,1.58c-1.85,2.74-3.68,4.55-5.48,5.44-1.79.88-3.54,1.31-5.25,1.31Z"/>
        <path d="M640.1,560.71c-1,0-1.89-.42-2.65-1.25-.75-.83-1.13-1.82-1.13-2.96s.39-2.11,1.17-2.96c.79-.86,1.68-1.29,2.67-1.29,1.09,0,2.01.42,2.73,1.25.73.82,1.1,1.82,1.1,3s-.39,2.13-1.17,2.96c-.78.83-1.69,1.25-2.73,1.25ZM633.06,601.86c1.38,0,2.35-.34,2.94-1.02.59-.69.95-1.57,1.06-2.65.13-1.07.19-2.73.19-5v-16.21c0-1.38.09-2.92.29-4.63l-5.04.29v-3c2.79,0,4.79-.16,6-.48,1.21-.33,2.15-.81,2.81-1.44h2.06v28.71c0,2.14-.1,3.75-.29,4.83l4.48-.21v2.92h-14.5v-2.13Z"/>
        <path d="M653.03,601.86c1.38,0,2.35-.34,2.94-1.02.59-.69.94-1.55,1.04-2.56.09-1.03.17-2.72.21-5.08l.08-16.21c0-1.98.09-3.53.27-4.63l-5.04.29v-3c2.79,0,4.71-.15,5.75-.46,1.05-.3,1.94-.79,2.65-1.46h2.06c.08.91.17,2.35.27,4.33,1.61-1.42,3.44-2.56,5.5-3.44,2.07-.88,4.09-1.31,6.08-1.31,4.13,0,7.13,1.29,9.02,3.88,1.9,2.58,2.85,6.6,2.85,12.04v13.21c0,2.14-.1,3.75-.29,4.83l4.48-.21v2.92h-14.5v-2.13c1.38,0,2.35-.34,2.94-1.02.59-.69.96-1.57,1.08-2.65.13-1.07.19-2.73.19-5v-9.96c-.06-4.07-.72-7.13-2-9.19-1.28-2.07-3.29-3.1-6.04-3.1-1.71,0-3.41.43-5.08,1.29-1.68.85-3.06,1.96-4.15,3.33.04.52.06,1.44.06,2.77l-.06,18.1c0,2.14-.1,3.75-.29,4.83l4.48-.21v2.92h-14.5v-2.13Z"/>
        <g class="cls-8">
          <path d="M713.29,623.23c-4.07,0-7.43-.45-10.08-1.35-2.66-.89-4.6-2.07-5.83-3.54-1.24-1.47-1.85-3.04-1.85-4.69,0-1.99.66-3.73,1.98-5.23,1.33-1.49,2.85-2.58,4.56-3.29-1.61-.53-2.83-1.24-3.67-2.15-.82-.9-1.23-2.06-1.23-3.48,0-1.71.67-3.27,2.02-4.69,1.34-1.42,3.04-2.29,5.08-2.63-2.22-1.04-3.98-2.5-5.27-4.38-1.28-1.88-1.92-4.02-1.92-6.44,0-2.75.72-5.19,2.17-7.31,1.44-2.14,3.31-3.8,5.6-4.98,2.3-1.18,4.71-1.77,7.23-1.77,3.22,0,6.23.88,9.02,2.63.72-2.04,1.88-3.7,3.46-4.98,1.58-1.28,3.3-1.92,5.15-1.92,1.18,0,2.1.32,2.77.96.67.64,1,1.51,1,2.6,0,.67-.25,1.32-.75,1.96-.5.64-1.22.96-2.17.96-.81,0-1.49-.23-2.06-.71-.57-.48-.93-1.08-1.06-1.79-1.14.16-2.04.67-2.71,1.54-.66.88-1.13,1.93-1.42,3.15,1.18,1.1,2.1,2.39,2.77,3.85.67,1.46,1,2.99,1,4.6,0,2.61-.69,4.96-2.06,7.04s-3.22,3.72-5.52,4.92c-2.29,1.18-4.77,1.77-7.42,1.77-.61,0-1.39-.05-2.33-.15-.72-.14-1.53-.21-2.42-.21-1.57,0-2.89.35-3.96,1.04-1.06.68-1.58,1.52-1.58,2.5,0,1.38.86,2.29,2.58,2.75,1.73.45,4.69.74,8.85.88,5.82.29,10.19,1.23,13.1,2.81s4.38,4.2,4.38,7.85c0,2.42-.84,4.52-2.52,6.31-1.68,1.8-3.86,3.18-6.54,4.13-2.68.94-5.47,1.42-8.35,1.42ZM712.29,591.34c2.57,0,4.53-.9,5.88-2.69,1.34-1.8,2.02-4.15,2.02-7.04,0-3.32-.72-6.11-2.17-8.4-1.45-2.28-3.47-3.42-6.08-3.42s-4.47.94-5.9,2.81c-1.42,1.88-2.13,4.28-2.13,7.21,0,3.46.74,6.24,2.23,8.35,1.5,2.11,3.55,3.17,6.15,3.17ZM713.23,620.46c2.59,0,4.88-.35,6.83-1.04,1.97-.68,3.48-1.6,4.52-2.77,1.05-1.16,1.58-2.42,1.58-3.79,0-2.42-1.16-4.08-3.46-4.98-2.29-.89-5.69-1.41-10.19-1.54-2.99-.1-5.43-.29-7.33-.58-1.28.86-2.27,1.9-2.98,3.13-.71,1.23-1.06,2.54-1.06,3.92,0,2.32,1.09,4.17,3.29,5.56,2.21,1.4,5.14,2.1,8.79,2.1Z"/>
        </g>
        <path d="M739.09,615.27c.8-1.04,1.56-2.52,2.27-4.42.72-1.89,1.08-3.76,1.08-5.6,0-.57-.03-.99-.08-1.27-.61.28-1.2.42-1.77.42-.95,0-1.73-.33-2.35-.98-.61-.67-.92-1.5-.92-2.5,0-1.28.38-2.28,1.13-3.02.76-.73,1.69-1.1,2.79-1.1,1.55,0,2.78.6,3.69,1.81.9,1.21,1.35,2.77,1.35,4.67s-.52,4.28-1.54,7.02c-1.02,2.75-2.26,4.89-3.73,6.42l-1.92-1.44ZM741.42,576.48c-1.14,0-2.11-.44-2.92-1.31-.81-.89-1.21-1.97-1.21-3.25s.42-2.36,1.25-3.25c.83-.9,1.82-1.35,2.96-1.35s2.16.45,2.94,1.35c.78.89,1.17,1.97,1.17,3.25s-.42,2.36-1.25,3.25c-.82.88-1.8,1.31-2.94,1.31Z"/>
        <path d="M772.85,601.86c1.38,0,2.35-.34,2.94-1.02.59-.69.94-1.55,1.04-2.56.09-1.03.17-2.72.21-5.08l.08-16.21c0-1.98.09-3.53.27-4.63l-5.04.29v-3c2.79,0,4.71-.15,5.75-.46,1.05-.3,1.94-.79,2.65-1.46h2.06c.08.91.17,2.35.27,4.33,1.61-1.42,3.44-2.56,5.5-3.44,2.07-.88,4.09-1.31,6.08-1.31,4.13,0,7.13,1.29,9.02,3.88,1.9,2.58,2.85,6.6,2.85,12.04v13.21c0,2.14-.1,3.75-.29,4.83l4.48-.21v2.92h-14.5v-2.13c1.38,0,2.35-.34,2.94-1.02.59-.69.96-1.57,1.08-2.65.13-1.07.19-2.73.19-5v-9.96c-.06-4.07-.72-7.13-2-9.19-1.28-2.07-3.29-3.1-6.04-3.1-1.71,0-3.41.43-5.08,1.29-1.68.85-3.06,1.96-4.15,3.33.04.52.06,1.44.06,2.77l-.06,18.1c0,2.14-.1,3.75-.29,4.83l4.48-.21v2.92h-14.5v-2.13Z"/>
        <path d="M833.61,605.13c-3.27,0-6.27-.77-9-2.31-2.72-1.54-4.88-3.69-6.46-6.44s-2.38-5.85-2.38-9.31c0-3.69.78-7.04,2.33-10.04,1.57-3.01,3.71-5.38,6.44-7.1,2.72-1.73,5.74-2.6,9.06-2.6s6.27.79,9.02,2.38,4.92,3.75,6.5,6.5c1.59,2.75,2.4,5.81,2.4,9.17,0,3.61-.8,6.93-2.4,9.96-1.58,3.03-3.74,5.43-6.46,7.19-2.72,1.75-5.74,2.63-9.06,2.63ZM834.17,602.27c3.46,0,6.01-1.42,7.65-4.25,1.64-2.84,2.46-6.38,2.46-10.6,0-4.78-.89-8.86-2.67-12.27-1.78-3.42-4.45-5.13-8-5.13s-6.14,1.45-7.92,4.33c-1.78,2.89-2.67,6.44-2.67,10.65,0,3.04.41,5.88,1.23,8.5.83,2.63,2.09,4.74,3.77,6.35,1.68,1.61,3.73,2.42,6.15,2.42Z"/>
        <path d="M870.91,605.13c-6.49,0-9.71-4.36-9.67-13.08l.15-20.6-5.46.06v-3.04c2.26-.05,4.19-1.09,5.77-3.1,1.59-2.01,2.77-4.3,3.52-6.85h2.42v9.96h11.94v2.77l-11.94.13c-.04,7.25-.08,12.28-.1,15.08-.02,2.79-.02,4.35-.02,4.69,0,3.36.4,5.86,1.21,7.5.8,1.63,2.2,2.44,4.19,2.44,1.23,0,2.46-.38,3.67-1.13,1.21-.76,2.26-1.81,3.15-3.15l1.92,1.58c-1.85,2.74-3.68,4.55-5.48,5.44-1.79.88-3.54,1.31-5.25,1.31Z"/>
        <path d="M913.71,605.13c-3.46,0-6.1-.79-7.94-2.35-1.82-1.57-2.73-3.6-2.73-6.1,0-2.75,1.09-5.07,3.29-6.96,2.21-1.9,4.98-3.31,8.31-4.23,3.34-.93,6.7-1.38,10.06-1.33v-4.4c0-3.08-.45-5.48-1.35-7.21-.89-1.73-2.81-2.6-5.75-2.6-1.47,0-2.88.31-4.21.94-1.32.61-2.29,1.54-2.9,2.77.61.66.92,1.55.92,2.69,0,.71-.27,1.39-.79,2.02-.52.64-1.27.96-2.25.96s-1.79-.32-2.35-.96c-.57-.64-.85-1.48-.85-2.52,0-1.55.6-2.98,1.81-4.29,1.21-1.3,2.89-2.33,5.04-3.08,2.17-.76,4.57-1.15,7.23-1.15,3.97,0,6.9,1.06,8.79,3.17,1.9,2.11,2.83,5.44,2.79,9.98l-.08,15.98c0,1.53-.09,3.14-.27,4.83l5.04-.27v2.98h-10.17c-.14-.71-.31-2.05-.5-4.04-3.46,3.46-7.18,5.19-11.15,5.19ZM915.34,601.06c1.8,0,3.44-.34,4.9-1.02,1.47-.69,2.96-1.75,4.48-3.17-.04-.71-.06-1.92-.06-3.63l.06-6.69c-3.88.16-7.33.95-10.38,2.4-3.03,1.45-4.54,3.66-4.54,6.65,0,1.75.52,3.1,1.56,4.04,1.04.95,2.36,1.42,3.98,1.42Z"/>
        <path d="M957.19,605.13c-1.89,0-3.76-.33-5.6-1-1.85-.67-3.46-1.78-4.83-3.33l-1.71,3.19h-2.5l.15-44.42c0-1.79.07-3.33.21-4.63l-5.04.29v-2.98c2.84,0,4.88-.17,6.08-.5s2.15-.8,2.81-1.42h2.06v21.17c1.32-1.32,2.89-2.34,4.71-3.08,1.83-.73,3.84-1.1,6.02-1.1,3.03,0,5.77.74,8.23,2.21,2.47,1.46,4.4,3.56,5.79,6.31,1.4,2.75,2.1,5.93,2.1,9.52,0,3.93-.85,7.39-2.56,10.38-1.71,2.99-3.99,5.3-6.83,6.94-2.83,1.64-5.86,2.46-9.08,2.46ZM957.19,602.21c3.42,0,6.13-1.38,8.15-4.15,2.01-2.78,3.02-6.42,3.02-10.92,0-4.98-.93-8.96-2.77-11.92-1.85-2.96-4.58-4.44-8.19-4.44-1.56,0-3.1.37-4.65,1.1-1.54.74-2.85,1.72-3.94,2.94v17.98c0,6.27,2.79,9.4,8.38,9.4Z"/>
        <path d="M981.08,601.86c1.38,0,2.35-.34,2.94-1.02.59-.69.95-1.57,1.06-2.65.13-1.07.19-2.73.19-5v-33.63c0-1.79.07-3.33.21-4.63l-5.04.29v-2.98c2.84,0,4.88-.17,6.08-.5s2.15-.8,2.81-1.42h2.06l.06,46.1c0,1.85-.12,3.46-.35,4.83l4.48-.21v2.92h-14.5v-2.13Z"/>
        <path d="M1018.32,605.13c-3.28,0-6.23-.77-8.85-2.31s-4.7-3.74-6.23-6.6c-1.52-2.88-2.27-6.18-2.27-9.92,0-3.32.76-6.44,2.27-9.35,1.53-2.92,3.65-5.25,6.38-7,2.72-1.75,5.81-2.63,9.27-2.63,2.69,0,5.13.59,7.31,1.77,2.18,1.18,3.91,2.95,5.19,5.29,1.28,2.35,1.92,5.23,1.92,8.65l-25,.42c-.06,5.7.88,10.14,2.79,13.31,1.92,3.17,4.89,4.75,8.92,4.75,2.18,0,4.42-.57,6.71-1.71,2.3-1.14,4.07-2.53,5.31-4.19l1.71,1.42c-1.81,2.75-4.15,4.79-7.02,6.13-2.86,1.32-5.66,1.98-8.4,1.98ZM1026.64,580.46c0-2.84-.65-5.28-1.94-7.31-1.28-2.04-3.2-3.06-5.75-3.06-5.88,0-9.35,3.46-10.44,10.38h18.13Z"/>
        <path d="M1071.68,605.13c-6.49,0-9.71-4.36-9.67-13.08l.15-20.6-5.46.06v-3.04c2.26-.05,4.19-1.09,5.77-3.1,1.59-2.01,2.77-4.3,3.52-6.85h2.42v9.96h11.94v2.77l-11.94.13c-.04,7.25-.08,12.28-.1,15.08-.02,2.79-.02,4.35-.02,4.69,0,3.36.4,5.86,1.21,7.5.8,1.63,2.2,2.44,4.19,2.44,1.23,0,2.46-.38,3.67-1.13,1.21-.76,2.26-1.81,3.15-3.15l1.92,1.58c-1.85,2.74-3.68,4.55-5.48,5.44-1.79.88-3.54,1.31-5.25,1.31Z"/>
        <path d="M1103.45,605.13c-3.27,0-6.27-.77-9-2.31-2.72-1.54-4.88-3.69-6.46-6.44s-2.38-5.85-2.38-9.31c0-3.69.78-7.04,2.33-10.04,1.57-3.01,3.71-5.38,6.44-7.1,2.72-1.73,5.74-2.6,9.06-2.6s6.27.79,9.02,2.38,4.92,3.75,6.5,6.5c1.59,2.75,2.4,5.81,2.4,9.17,0,3.61-.8,6.93-2.4,9.96-1.58,3.03-3.74,5.43-6.46,7.19-2.72,1.75-5.74,2.63-9.06,2.63ZM1104.01,602.27c3.46,0,6.01-1.42,7.65-4.25,1.64-2.84,2.46-6.38,2.46-10.6,0-4.78-.89-8.86-2.67-12.27-1.78-3.42-4.45-5.13-8-5.13s-6.14,1.45-7.92,4.33c-1.78,2.89-2.67,6.44-2.67,10.65,0,3.04.41,5.88,1.23,8.5.83,2.63,2.09,4.74,3.77,6.35,1.68,1.61,3.73,2.42,6.15,2.42Z"/>
        <path d="M1162.86,605.13c-1.89,0-3.76-.33-5.6-1-1.85-.67-3.46-1.78-4.83-3.33l-1.71,3.19h-2.5l.15-44.42c0-1.79.07-3.33.21-4.63l-5.04.29v-2.98c2.84,0,4.88-.17,6.08-.5s2.15-.8,2.81-1.42h2.06v21.17c1.32-1.32,2.89-2.34,4.71-3.08,1.83-.73,3.84-1.1,6.02-1.1,3.03,0,5.77.74,8.23,2.21,2.47,1.46,4.4,3.56,5.79,6.31,1.4,2.75,2.1,5.93,2.1,9.52,0,3.93-.85,7.39-2.56,10.38-1.71,2.99-3.99,5.3-6.83,6.94-2.83,1.64-5.86,2.46-9.08,2.46ZM1162.86,602.21c3.42,0,6.13-1.38,8.15-4.15,2.01-2.78,3.02-6.42,3.02-10.92,0-4.98-.93-8.96-2.77-11.92-1.85-2.96-4.58-4.44-8.19-4.44-1.56,0-3.1.37-4.65,1.1-1.54.74-2.85,1.72-3.94,2.94v17.98c0,6.27,2.79,9.4,8.38,9.4Z"/>
        <path d="M1204.66,605.13c-3.28,0-6.23-.77-8.85-2.31s-4.7-3.74-6.23-6.6c-1.52-2.88-2.27-6.18-2.27-9.92,0-3.32.76-6.44,2.27-9.35,1.53-2.92,3.65-5.25,6.38-7,2.72-1.75,5.81-2.63,9.27-2.63,2.69,0,5.13.59,7.31,1.77,2.18,1.18,3.91,2.95,5.19,5.29,1.28,2.35,1.92,5.23,1.92,8.65l-25,.42c-.06,5.7.88,10.14,2.79,13.31,1.92,3.17,4.89,4.75,8.92,4.75,2.18,0,4.42-.57,6.71-1.71,2.3-1.14,4.07-2.53,5.31-4.19l1.71,1.42c-1.81,2.75-4.15,4.79-7.02,6.13-2.86,1.32-5.66,1.98-8.4,1.98ZM1212.97,580.46c0-2.84-.65-5.28-1.94-7.31-1.28-2.04-3.2-3.06-5.75-3.06-5.88,0-9.35,3.46-10.44,10.38h18.13Z"/>
        <path d="M1245.02,601.86c1.38,0,2.35-.34,2.94-1.02.59-.69.95-1.57,1.06-2.65.13-1.07.19-2.73.19-5l-.06-21.69-5.83.15v-3.19h5.83v-1.5c0-5.5,1.01-9.7,3.02-12.6,2.01-2.92,5.27-4.38,9.77-4.38,1.8,0,3.52.45,5.15,1.35,1.64.89,2.46,2.19,2.46,3.9,0,.95-.28,1.72-.83,2.31-.54.6-1.29.9-2.23.9s-1.67-.32-2.17-.96c-.5-.65-.75-1.3-.75-1.96s.11-1.26.35-1.79c-.32-.38-.77-.67-1.33-.88-.57-.22-1.14-.33-1.71-.33-2.04,0-3.49.82-4.35,2.46-.85,1.64-1.27,3.64-1.27,6v7.48h9.6v2.77l-9.6.21.08,25c0,2.14-.1,3.75-.29,4.83l4.48-.21v2.92h-14.5v-2.13Z"/>
        <path d="M1285.95,605.13c-3.27,0-6.27-.77-9-2.31-2.72-1.54-4.88-3.69-6.46-6.44s-2.38-5.85-2.38-9.31c0-3.69.78-7.04,2.33-10.04,1.57-3.01,3.71-5.38,6.44-7.1,2.72-1.73,5.74-2.6,9.06-2.6s6.27.79,9.02,2.38,4.92,3.75,6.5,6.5c1.59,2.75,2.4,5.81,2.4,9.17,0,3.61-.8,6.93-2.4,9.96-1.58,3.03-3.74,5.43-6.46,7.19-2.72,1.75-5.74,2.63-9.06,2.63ZM1286.51,602.27c3.46,0,6.01-1.42,7.65-4.25,1.64-2.84,2.46-6.38,2.46-10.6,0-4.78-.89-8.86-2.67-12.27-1.78-3.42-4.45-5.13-8-5.13s-6.14,1.45-7.92,4.33c-1.78,2.89-2.67,6.44-2.67,10.65,0,3.04.41,5.88,1.23,8.5.83,2.63,2.09,4.74,3.77,6.35,1.68,1.61,3.73,2.42,6.15,2.42Z"/>
        <path d="M1309.9,601.86c1.38,0,2.35-.34,2.94-1.02.59-.69.95-1.57,1.06-2.65.13-1.07.19-2.73.19-5v-16.21c0-1.98.09-3.53.29-4.63l-5.04.21v-2.92h2.21c1.79,0,3.09-.15,3.9-.46.8-.3,1.56-.79,2.27-1.46h2.06c.19,1.85.31,4.2.35,7.04,1.19-1.94,2.89-3.67,5.08-5.19,2.21-1.51,4.49-2.27,6.85-2.27,1.43,0,2.61.39,3.56,1.15.94.75,1.42,1.86,1.42,3.33,0,.75-.3,1.51-.9,2.27-.58.77-1.43,1.15-2.52,1.15s-1.9-.39-2.56-1.17c-.66-.79-.91-1.73-.77-2.81-1.81-.05-3.62.64-5.44,2.06-1.82,1.42-3.37,3.31-4.65,5.67l.06,17.48c0,2.14-.1,3.75-.29,4.83l4.48-.21v2.92h-14.56v-2.13Z"/>
        <g class="cls-1">
          <path d="M1357.44,623.23c-4.07,0-7.43-.45-10.08-1.35-2.66-.89-4.6-2.07-5.83-3.54-1.24-1.47-1.85-3.04-1.85-4.69,0-1.99.66-3.73,1.98-5.23,1.33-1.49,2.85-2.58,4.56-3.29-1.61-.53-2.83-1.24-3.67-2.15-.82-.9-1.23-2.06-1.23-3.48,0-1.71.67-3.27,2.02-4.69,1.34-1.42,3.04-2.29,5.08-2.63-2.22-1.04-3.98-2.5-5.27-4.38-1.28-1.88-1.92-4.02-1.92-6.44,0-2.75.72-5.19,2.17-7.31,1.44-2.14,3.31-3.8,5.6-4.98,2.3-1.18,4.71-1.77,7.23-1.77,3.22,0,6.23.88,9.02,2.63.72-2.04,1.88-3.7,3.46-4.98,1.58-1.28,3.3-1.92,5.15-1.92,1.18,0,2.1.32,2.77.96.67.64,1,1.51,1,2.6,0,.67-.25,1.32-.75,1.96-.5.64-1.22.96-2.17.96-.81,0-1.49-.23-2.06-.71-.57-.48-.93-1.08-1.06-1.79-1.14.16-2.04.67-2.71,1.54-.66.88-1.13,1.93-1.42,3.15,1.18,1.1,2.1,2.39,2.77,3.85.67,1.46,1,2.99,1,4.6,0,2.61-.69,4.96-2.06,7.04s-3.22,3.72-5.52,4.92c-2.29,1.18-4.77,1.77-7.42,1.77-.61,0-1.39-.05-2.33-.15-.72-.14-1.53-.21-2.42-.21-1.57,0-2.89.35-3.96,1.04-1.06.68-1.58,1.52-1.58,2.5,0,1.38.86,2.29,2.58,2.75,1.73.45,4.69.74,8.85.88,5.82.29,10.19,1.23,13.1,2.81s4.38,4.2,4.38,7.85c0,2.42-.84,4.52-2.52,6.31-1.68,1.8-3.86,3.18-6.54,4.13-2.68.94-5.47,1.42-8.35,1.42ZM1356.44,591.34c2.57,0,4.53-.9,5.88-2.69,1.34-1.8,2.02-4.15,2.02-7.04,0-3.32-.72-6.11-2.17-8.4-1.45-2.28-3.47-3.42-6.08-3.42s-4.47.94-5.9,2.81c-1.42,1.88-2.13,4.28-2.13,7.21,0,3.46.74,6.24,2.23,8.35,1.5,2.11,3.55,3.17,6.15,3.17ZM1357.38,620.46c2.59,0,4.88-.35,6.83-1.04,1.97-.68,3.48-1.6,4.52-2.77,1.05-1.16,1.58-2.42,1.58-3.79,0-2.42-1.16-4.08-3.46-4.98-2.29-.89-5.69-1.41-10.19-1.54-2.99-.1-5.43-.29-7.33-.58-1.28.86-2.27,1.9-2.98,3.13-.71,1.23-1.06,2.54-1.06,3.92,0,2.32,1.09,4.17,3.29,5.56,2.21,1.4,5.14,2.1,8.79,2.1Z"/>
        </g>
        <path d="M1396.89,605.13c-3.27,0-6.27-.77-9-2.31-2.72-1.54-4.88-3.69-6.46-6.44s-2.38-5.85-2.38-9.31c0-3.69.78-7.04,2.33-10.04,1.57-3.01,3.71-5.38,6.44-7.1,2.72-1.73,5.74-2.6,9.06-2.6s6.27.79,9.02,2.38,4.92,3.75,6.5,6.5c1.59,2.75,2.4,5.81,2.4,9.17,0,3.61-.8,6.93-2.4,9.96-1.58,3.03-3.74,5.43-6.46,7.19-2.72,1.75-5.74,2.63-9.06,2.63ZM1397.45,602.27c3.46,0,6.01-1.42,7.65-4.25,1.64-2.84,2.46-6.38,2.46-10.6,0-4.78-.89-8.86-2.67-12.27-1.78-3.42-4.45-5.13-8-5.13s-6.14,1.45-7.92,4.33c-1.78,2.89-2.67,6.44-2.67,10.65,0,3.04.41,5.88,1.23,8.5.83,2.63,2.09,4.74,3.77,6.35,1.68,1.61,3.73,2.42,6.15,2.42Z"/>
        <path d="M1434.19,605.13c-6.49,0-9.71-4.36-9.67-13.08l.15-20.6-5.46.06v-3.04c2.26-.05,4.19-1.09,5.77-3.1,1.59-2.01,2.77-4.3,3.52-6.85h2.42v9.96h11.94v2.77l-11.94.13c-.04,7.25-.08,12.28-.1,15.08-.02,2.79-.02,4.35-.02,4.69,0,3.36.4,5.86,1.21,7.5.8,1.63,2.2,2.44,4.19,2.44,1.23,0,2.46-.38,3.67-1.13,1.21-.76,2.26-1.81,3.15-3.15l1.92,1.58c-1.85,2.74-3.68,4.55-5.48,5.44-1.79.88-3.54,1.31-5.25,1.31Z"/>
        <path d="M1462.4,605.13c-6.49,0-9.71-4.36-9.67-13.08l.15-20.6-5.46.06v-3.04c2.26-.05,4.19-1.09,5.77-3.1,1.59-2.01,2.77-4.3,3.52-6.85h2.42v9.96h11.94v2.77l-11.94.13c-.04,7.25-.08,12.28-.1,15.08-.02,2.79-.02,4.35-.02,4.69,0,3.36.4,5.86,1.21,7.5.8,1.63,2.2,2.44,4.19,2.44,1.23,0,2.46-.38,3.67-1.13,1.21-.76,2.26-1.81,3.15-3.15l1.92,1.58c-1.85,2.74-3.68,4.55-5.48,5.44-1.79.88-3.54,1.31-5.25,1.31Z"/>
        <path d="M1493.76,605.13c-3.28,0-6.23-.77-8.85-2.31s-4.7-3.74-6.23-6.6c-1.52-2.88-2.27-6.18-2.27-9.92,0-3.32.76-6.44,2.27-9.35,1.53-2.92,3.65-5.25,6.38-7,2.72-1.75,5.81-2.63,9.27-2.63,2.69,0,5.13.59,7.31,1.77,2.18,1.18,3.91,2.95,5.19,5.29,1.28,2.35,1.92,5.23,1.92,8.65l-25,.42c-.06,5.7.88,10.14,2.79,13.31,1.92,3.17,4.89,4.75,8.92,4.75,2.18,0,4.42-.57,6.71-1.71,2.3-1.14,4.07-2.53,5.31-4.19l1.71,1.42c-1.81,2.75-4.15,4.79-7.02,6.13-2.86,1.32-5.66,1.98-8.4,1.98ZM1502.07,580.46c0-2.84-.65-5.28-1.94-7.31-1.28-2.04-3.2-3.06-5.75-3.06-5.88,0-9.35,3.46-10.44,10.38h18.13Z"/>
        <path d="M1515.07,601.86c1.38,0,2.35-.34,2.94-1.02.59-.69.94-1.55,1.04-2.56.09-1.03.17-2.72.21-5.08l.08-16.21c0-1.98.09-3.53.27-4.63l-5.04.29v-3c2.79,0,4.71-.15,5.75-.46,1.05-.3,1.94-.79,2.65-1.46h2.06c.08.91.17,2.35.27,4.33,1.61-1.42,3.44-2.56,5.5-3.44,2.07-.88,4.09-1.31,6.08-1.31,4.13,0,7.13,1.29,9.02,3.88,1.9,2.58,2.85,6.6,2.85,12.04v13.21c0,2.14-.1,3.75-.29,4.83l4.48-.21v2.92h-14.5v-2.13c1.38,0,2.35-.34,2.94-1.02.59-.69.96-1.57,1.08-2.65.13-1.07.19-2.73.19-5v-9.96c-.06-4.07-.72-7.13-2-9.19-1.28-2.07-3.29-3.1-6.04-3.1-1.71,0-3.41.43-5.08,1.29-1.68.85-3.06,1.96-4.15,3.33.04.52.06,1.44.06,2.77l-.06,18.1c0,2.14-.1,3.75-.29,4.83l4.48-.21v2.92h-14.5v-2.13Z"/>
      </g>
    </g>
    <g class="cls-2">
      <g>
        <path d="M21.72,690.41c-3.27,0-6.27-.77-9-2.31-2.72-1.54-4.88-3.69-6.46-6.44s-2.38-5.85-2.38-9.31c0-3.69.78-7.04,2.33-10.04,1.57-3.01,3.71-5.38,6.44-7.1,2.72-1.73,5.74-2.6,9.06-2.6s6.27.79,9.02,2.38,4.92,3.75,6.5,6.5c1.59,2.75,2.4,5.81,2.4,9.17,0,3.61-.8,6.93-2.4,9.96-1.58,3.03-3.74,5.43-6.46,7.19-2.72,1.75-5.74,2.63-9.06,2.63ZM22.28,687.55c3.46,0,6.01-1.42,7.65-4.25,1.64-2.84,2.46-6.38,2.46-10.6,0-4.78-.89-8.86-2.67-12.27-1.78-3.42-4.45-5.13-8-5.13s-6.14,1.45-7.92,4.33c-1.78,2.89-2.67,6.44-2.67,10.65,0,3.04.41,5.88,1.23,8.5.83,2.63,2.09,4.74,3.77,6.35,1.68,1.61,3.73,2.42,6.15,2.42Z"/>
        <path d="M45.67,687.14c1.38,0,2.35-.34,2.94-1.02.59-.69.95-1.57,1.06-2.65.13-1.07.19-2.73.19-5v-16.21c0-1.98.09-3.53.29-4.63l-5.04.21v-2.92h2.21c1.79,0,3.09-.15,3.9-.46.8-.3,1.56-.79,2.27-1.46h2.06c.19,1.85.31,4.2.35,7.04,1.19-1.94,2.89-3.67,5.08-5.19,2.21-1.51,4.49-2.27,6.85-2.27,1.43,0,2.61.39,3.56,1.15.94.75,1.42,1.86,1.42,3.33,0,.75-.3,1.51-.9,2.27-.58.77-1.43,1.15-2.52,1.15s-1.9-.39-2.56-1.17c-.66-.79-.91-1.73-.77-2.81-1.81-.05-3.62.64-5.44,2.06-1.82,1.42-3.37,3.31-4.65,5.67l.06,17.48c0,2.14-.1,3.75-.29,4.83l4.48-.21v2.92h-14.56v-2.13Z"/>
        <path d="M95.13,687.14c1.38,0,2.35-.34,2.94-1.02.59-.69.95-1.57,1.06-2.65.13-1.07.19-2.73.19-5v-16.21c0-1.98.09-3.53.29-4.63l-5.04.21v-2.92h2.21c1.79,0,3.09-.15,3.9-.46.8-.3,1.56-.79,2.27-1.46h2.06c.19,1.85.31,4.2.35,7.04,1.19-1.94,2.89-3.67,5.08-5.19,2.21-1.51,4.49-2.27,6.85-2.27,1.43,0,2.61.39,3.56,1.15.94.75,1.42,1.86,1.42,3.33,0,.75-.3,1.51-.9,2.27-.58.77-1.43,1.15-2.52,1.15s-1.9-.39-2.56-1.17c-.66-.79-.91-1.73-.77-2.81-1.81-.05-3.62.64-5.44,2.06-1.82,1.42-3.37,3.31-4.65,5.67l.06,17.48c0,2.14-.1,3.75-.29,4.83l4.48-.21v2.92h-14.56v-2.13Z"/>
        <path d="M143.11,690.41c-3.28,0-6.23-.77-8.85-2.31s-4.7-3.74-6.23-6.6c-1.52-2.88-2.27-6.18-2.27-9.92,0-3.32.76-6.44,2.27-9.35,1.53-2.92,3.65-5.25,6.38-7,2.72-1.75,5.81-2.63,9.27-2.63,2.69,0,5.13.59,7.31,1.77,2.18,1.18,3.91,2.95,5.19,5.29,1.28,2.35,1.92,5.23,1.92,8.65l-25,.42c-.06,5.7.88,10.14,2.79,13.31,1.92,3.17,4.89,4.75,8.92,4.75,2.18,0,4.42-.57,6.71-1.71,2.3-1.14,4.07-2.53,5.31-4.19l1.71,1.42c-1.81,2.75-4.15,4.79-7.02,6.13-2.86,1.32-5.66,1.98-8.4,1.98ZM151.43,665.74c0-2.84-.65-5.28-1.94-7.31-1.28-2.04-3.2-3.06-5.75-3.06-5.88,0-9.35,3.46-10.44,10.38h18.13Z"/>
        <path d="M164.42,687.14c1.38,0,2.35-.34,2.94-1.02.59-.69.95-1.57,1.06-2.65.13-1.07.19-2.73.19-5v-16.21c0-1.98.09-3.53.29-4.63l-5.04.29v-3c2.79,0,4.71-.15,5.75-.46,1.04-.3,1.92-.79,2.63-1.46h2.06c.09.72.19,1.98.29,3.77,1.47-1.28,3.13-2.29,4.98-3.04,1.84-.76,3.67-1.15,5.46-1.15,2.32,0,4.3.42,5.94,1.25,1.64.82,2.91,1.99,3.81,3.5,1.69-1.36,3.59-2.49,5.71-3.4,2.11-.9,4.14-1.35,6.08-1.35,4.17,0,7.21,1.27,9.13,3.81,1.92,2.53,2.82,6.56,2.73,12.1l-.06,13.21c0,2.14-.1,3.75-.29,4.83l4.48-.21v2.92h-14.5v-2.13c1.38,0,2.36-.34,2.96-1.02.59-.69.95-1.57,1.06-2.65.13-1.07.19-2.73.19-5v-9.96c0-4.07-.65-7.11-1.94-9.13-1.28-2.01-3.29-3.02-6.02-3.02-1.47,0-2.96.32-4.46.96-1.49.64-2.8,1.48-3.94,2.52.47,1.47.71,3.2.71,5.19l-.15,16.69c0,2.14-.09,3.75-.27,4.83l4.48-.21v2.92h-14.5v-2.13c1.38,0,2.35-.34,2.94-1.02.59-.69.94-1.55,1.04-2.56.09-1.03.17-2.72.21-5.08l.08-9.96c.04-4.13-.56-7.2-1.79-9.23-1.22-2.04-3.19-3.06-5.9-3.06-1.47,0-2.93.31-4.38.94-1.45.61-2.69,1.44-3.73,2.48l.08,3.83v18.25c0,2.14-.1,3.75-.29,4.83l4.48-.21v2.92h-14.5v-2.13Z"/>
        <path d="M245.58,690.41c-3.27,0-6.27-.77-9-2.31-2.72-1.54-4.88-3.69-6.46-6.44s-2.38-5.85-2.38-9.31c0-3.69.78-7.04,2.33-10.04,1.57-3.01,3.71-5.38,6.44-7.1,2.72-1.73,5.74-2.6,9.06-2.6s6.27.79,9.02,2.38,4.92,3.75,6.5,6.5c1.59,2.75,2.4,5.81,2.4,9.17,0,3.61-.8,6.93-2.4,9.96-1.58,3.03-3.74,5.43-6.46,7.19-2.72,1.75-5.74,2.63-9.06,2.63ZM246.15,687.55c3.46,0,6.01-1.42,7.65-4.25,1.64-2.84,2.46-6.38,2.46-10.6,0-4.78-.89-8.86-2.67-12.27-1.78-3.42-4.45-5.13-8-5.13s-6.14,1.45-7.92,4.33c-1.78,2.89-2.67,6.44-2.67,10.65,0,3.04.41,5.88,1.23,8.5.83,2.63,2.09,4.74,3.77,6.35,1.68,1.61,3.73,2.42,6.15,2.42Z"/>
        <path d="M272.87,666.3c-1.89-4.36-2.89-7.65-2.98-9.88l-3.06.21v-2.9h13.08v2.13c-2.08,0-3.13.88-3.13,2.63,0,1.28.5,3.03,1.5,5.25l5.46,12.52c.63,1.47,1.34,3.22,2.15,5.25h.06c.14-.47.32-.99.56-1.56l1.06-3.06,5.69-15.56c.47-1.36,1.19-2.99,2.15-4.9l-4.56.21v-2.9h11.23v2.13c-.99,0-1.84.35-2.56,1.04-.71.68-1.36,1.64-1.96,2.88-.58,1.22-1.38,3.11-2.38,5.67l-9.29,24.02h-2.85l-10.17-23.17Z"/>
        <path d="M322.63,690.41c-3.28,0-6.23-.77-8.85-2.31s-4.7-3.74-6.23-6.6c-1.52-2.88-2.27-6.18-2.27-9.92,0-3.32.76-6.44,2.27-9.35,1.53-2.92,3.65-5.25,6.38-7,2.72-1.75,5.81-2.63,9.27-2.63,2.69,0,5.13.59,7.31,1.77,2.18,1.18,3.91,2.95,5.19,5.29,1.28,2.35,1.92,5.23,1.92,8.65l-25,.42c-.06,5.7.88,10.14,2.79,13.31,1.92,3.17,4.89,4.75,8.92,4.75,2.18,0,4.42-.57,6.71-1.71,2.3-1.14,4.07-2.53,5.31-4.19l1.71,1.42c-1.81,2.75-4.15,4.79-7.02,6.13-2.86,1.32-5.66,1.98-8.4,1.98ZM330.94,665.74c0-2.84-.65-5.28-1.94-7.31-1.28-2.04-3.2-3.06-5.75-3.06-5.88,0-9.35,3.46-10.44,10.38h18.13Z"/>
        <path d="M359.15,690.41c-2.93,0-5.56-.74-7.9-2.21-2.32-1.47-4.15-3.55-5.48-6.25-1.32-2.71-1.98-5.86-1.98-9.46,0-3.79.78-7.2,2.33-10.23,1.57-3.03,3.73-5.4,6.5-7.1,2.78-1.71,5.92-2.56,9.44-2.56,1.47,0,2.97.2,4.5.6,1.54.41,2.81.86,3.81,1.38v-9.73c0-1.79.07-3.33.21-4.63l-5.04.29v-2.98c2.79,0,4.79-.17,6-.5s2.15-.8,2.81-1.42h2.06v46.1c0,1.53-.1,3.14-.29,4.83l5.04-.27v2.98h-10.15c-.24-1.28-.41-2.51-.5-3.69-1.38,1.52-3.05,2.7-5.02,3.56-1.96.84-4.08,1.27-6.35,1.27ZM361.71,686.91c1.51,0,3.06-.44,4.65-1.31,1.59-.88,2.94-2,4.02-3.38-.04-.75-.06-2.05-.06-3.9l.06-20.48c-2.22-1.65-4.85-2.48-7.9-2.48-3.41,0-6.15,1.41-8.23,4.23-2.08,2.82-3.13,6.55-3.13,11.19s.92,8.73,2.77,11.69c1.84,2.96,4.45,4.44,7.81,4.44Z"/>
        <path d="M391.98,690.41c-1.14,0-2.11-.44-2.92-1.31-.81-.89-1.21-1.97-1.21-3.25s.42-2.36,1.25-3.25c.83-.9,1.82-1.35,2.96-1.35s2.16.45,2.94,1.35c.78.89,1.17,1.97,1.17,3.25s-.42,2.36-1.25,3.25c-.82.88-1.8,1.31-2.94,1.31Z"/>
      </g>
    </g>
  </g>
</svg>