<?xml version="1.0" encoding="UTF-8"?>
<svg id="Layer_2" data-name="Layer 2" xmlns="http://www.w3.org/2000/svg" xmlns:xlink="http://www.w3.org/1999/xlink" viewBox="0 0 1602.67 417.33">
  <defs>
    <style>
      .cls-1 {
        fill: none;
      }

      .cls-2 {
        fill: #ffe222;
      }

      .cls-3 {
        clip-path: url(#clippath-1);
      }

      .cls-4 {
        clip-path: url(#clippath-3);
      }

      .cls-5 {
        clip-path: url(#clippath-2);
      }

      .cls-6 {
        clip-path: url(#clippath);
      }
    </style>
    <clipPath id="clippath">
      <rect class="cls-1" x="10.67" y="237.33" width="1592" height="180"/>
    </clipPath>
    <clipPath id="clippath-1">
      <rect class="cls-1" x="11.76" y="238.1" width="1589.9" height="179.23"/>
    </clipPath>
    <clipPath id="clippath-2">
      <path class="cls-1" d="M15.39,298.41c378.36-19.95,492.66-23.12,590.62-27.78,86.96-3.92,156.53-9.32,245.26-12.87,105.42-4.1,227.16-7.27,346.06-9.32,125.65-2.23,334.35-30.5,389.36-2.8,27.69,21.07,27.69,90.26.35,111.89-54.3,28.72-257.68.56-380.14,2.61-115,1.86-231.06,4.85-334.35,8.95-89.8,3.54-162.56,9.14-250.23,13.24-97.25,4.47-207.99,7.27-307.73,12.12-94.77,4.66-229.29,35.95-276.85,16.41-39.22-17.71-22.36-112.44-22.36-112.44Z"/>
    </clipPath>
    <clipPath id="clippath-3">
      <rect class="cls-1" width="1602.67" height="365.33"/>
    </clipPath>
  </defs>
  <g id="Layer_1-2" data-name="Layer 1">
    <g class="cls-6">
      <g class="cls-3">
        <g class="cls-5">
          <path class="cls-2" d="M1.2,238.18h1600.33v180.32H1.2v-180.32Z"/>
        </g>
      </g>
    </g>
    <g class="cls-4">
      <g>
        <path d="M15.52,267.44c5.11-.19,8.99-.81,11.65-1.85,2.65-1.04,4.73-3.26,6.25-6.67,1.51-3.42,2.27-8.82,2.27-16.21v-108.83c0-10.59.38-19.11,1.15-25.56l-21.31.85v-21.88h81.54v18.75c-5.11.2-8.99.81-11.65,1.85-2.66,1.04-4.74,3.27-6.25,6.69-1.52,3.41-2.27,8.79-2.27,16.17v108.83c0,10.61-.39,19.14-1.15,25.58,6.07-.57,13.17-.85,21.31-.85v21.88H15.52v-18.75Z"/>
        <path d="M185.71,172.82c-4.74-6.05-9.95-13.16-15.63-21.31h-.27l.56,88.08c0,10.61-.39,19.14-1.15,25.58,6.07-.57,13.17-.85,21.31-.85v21.88h-64.77v-18.75c5.11-.19,8.99-.81,11.65-1.85,2.65-1.04,4.73-3.26,6.25-6.67,1.51-3.42,2.27-8.82,2.27-16.21l-.56-108.83c0-12.68.38-21.2,1.13-25.56l-21.58.85v-21.88h44.6l86.96,109.67c7.94,10.42,14.57,19.42,19.88,27h.29v-90.08c0-12.3.28-20.82.85-25.56l-21.31.85v-21.88h64.79v18.75c-5.13.2-9.02.81-11.67,1.85-2.66,1.04-4.74,3.27-6.25,6.69-1.52,3.41-2.27,8.79-2.27,16.17v158.27h-24.15l-90.94-116.21Z"/>
        <path d="M345.13,267.44c5.11-.19,8.99-.81,11.65-1.85,2.65-1.04,4.73-3.26,6.25-6.67,1.51-3.42,2.27-8.82,2.27-16.21v-108.83c0-10.59.38-19.11,1.15-25.56l-21.31.85v-21.88l82.69-.29c23.68,0,43.71,4.69,60.08,14.06,16.39,9.38,28.61,21.55,36.67,36.52,8.05,14.96,12.08,30.68,12.08,47.17s-3.84,32.72-11.52,48.17c-7.67,15.43-19.79,28.17-36.38,38.21-16.57,10.04-37.35,15.06-62.35,15.06h-81.27v-18.75ZM432.36,265.44c13.26,0,24.34-3.5,33.25-10.5,8.9-7.01,15.48-16.15,19.75-27.42,4.26-11.28,6.4-23.55,6.4-36.81,0-28.79-5.88-50.09-17.63-63.92-11.75-13.83-28.33-20.75-49.73-20.75-6.43,0-11.02,1.61-13.77,4.83-2.75,3.22-4.13,9.66-4.13,19.31v109.4c0,10.61-.39,19.14-1.15,25.58.96-.19,2.76-.29,5.42-.29l12.21.29c2.46.18,5.58.27,9.38.27Z"/>
        <path d="M556.82,267.44c5.11-.19,8.99-.81,11.65-1.85,2.65-1.04,4.73-3.26,6.25-6.67,1.51-3.42,2.27-8.82,2.27-16.21v-108.83c0-10.59.38-19.11,1.15-25.56l-21.31.85v-21.88h142.06l1.71,55.13h-18.75c0-14.03-3.36-23.73-10.08-29.13-6.72-5.4-14.82-7.92-24.29-7.54l-10.23.29c-4.56.2-8.16.81-10.81,1.85-2.64,1.04-4.68,3.36-6.1,6.96-1.42,3.6-2.13,8.9-2.13,15.9v42.63h33.25c-.2-3.22-.58-11.46-1.15-24.71h21.88v69.04h-18.75c0-7.58-1.19-13.17-3.56-16.77-2.36-3.59-5.44-5.92-9.23-6.96-3.78-1.04-8.79-1.46-15.04-1.27l-7.4.27v46.6c0,10.24-.39,18.57-1.15,25h38.08c9.67,0,17.86-3.26,24.58-9.79,6.72-6.54,10.08-16.92,10.08-31.13h18.48l-1.44,62.52h-150.02v-18.75Z"/>
        <path d="M734.13,267.44c5.11-.19,8.99-.81,11.65-1.85,2.65-1.04,4.73-3.26,6.25-6.67,1.51-3.42,2.27-8.82,2.27-16.21v-108.83c0-10.59.38-19.11,1.15-25.56l-21.31.85v-21.88h81.54v18.75c-5.11.2-8.99.81-11.65,1.85-2.66,1.04-4.74,3.27-6.25,6.69-1.52,3.41-2.27,8.79-2.27,16.17v108.83c0,10.24-.39,18.57-1.15,25h38.08c11.36-.18,20.17-4.2,26.42-12.06,6.26-7.86,9.4-19.36,9.4-34.52h19.02l-1.69,68.19h-151.46v-18.75Z"/>
        <path d="M905.76,267.44c5.11-.19,8.99-.81,11.65-1.85,2.65-1.04,4.73-3.26,6.25-6.67,1.51-3.42,2.27-8.82,2.27-16.21v-108.83c0-10.59.38-19.11,1.15-25.56l-21.31.85v-21.88h81.54v18.75c-5.11.2-8.99.81-11.65,1.85-2.66,1.04-4.74,3.27-6.25,6.69-1.52,3.41-2.27,8.79-2.27,16.17v108.83c0,10.61-.39,19.14-1.15,25.58,6.07-.57,13.17-.85,21.31-.85v21.88h-81.54v-18.75Z"/>
        <path d="M1015.72,267.44c5.11-.19,8.99-.81,11.65-1.85,2.65-1.04,4.73-3.26,6.25-6.67,1.51-3.42,2.27-8.82,2.27-16.21v-108.83c0-10.59.38-19.11,1.15-25.56l-21.31.85v-21.88l78.71-.58c22.73-.18,40.54,3.9,53.42,12.23,12.89,8.33,19.33,20.55,19.33,36.65,0,9.29-3.46,17.87-10.38,25.73-6.92,7.86-17.1,13.59-30.54,17.19v.27c18.18,2.85,31.91,8.92,41.19,18.21,9.28,9.28,13.92,20.17,13.92,32.67,0,18-6.4,31.93-19.19,41.77-12.78,9.85-29.4,14.77-49.85,14.77h-96.6v-18.75ZM1091.87,174.23c11.18-.18,19.28-3.73,24.29-10.65,5.03-6.92,7.54-16.05,7.54-27.42,0-10.23-2.85-17.72-8.54-22.46-5.68-4.73-12.59-7.1-20.73-7.1-3.97,0-7.15.48-9.52,1.44-2.36.95-4.26,3.17-5.69,6.67-1.42,3.5-2.13,8.76-2.13,15.77v44.04l14.77-.29ZM1075.95,266.02c12.51,0,21.7-.09,27.56-.29,11.18-.57,19.51-4.11,25-10.65,5.5-6.54,8.25-15.3,8.25-26.29,0-12.13-3.51-20.88-10.52-26.27-7-5.4-15.71-8.1-26.13-8.1s-18.09.09-23.02.27v46.31c0,10.24-.39,18.58-1.15,25.02Z"/>
        <path d="M1200.42,267.44c5.11-.19,8.99-.81,11.65-1.85,2.65-1.04,4.73-3.26,6.25-6.67,1.51-3.42,2.27-8.82,2.27-16.21v-108.83c0-10.59.38-19.11,1.15-25.56l-21.31.85v-21.88h81.54v18.75c-5.11.2-8.99.81-11.65,1.85-2.66,1.04-4.74,3.27-6.25,6.69-1.52,3.41-2.27,8.79-2.27,16.17v108.83c0,10.24-.39,18.57-1.15,25h38.08c11.36-.18,20.17-4.2,26.42-12.06,6.26-7.86,9.4-19.36,9.4-34.52h19.02l-1.69,68.19h-151.46v-18.75Z"/>
        <path d="M1372.04,267.44c5.11-.19,8.99-.81,11.65-1.85,2.65-1.04,4.73-3.26,6.25-6.67,1.51-3.42,2.27-8.82,2.27-16.21v-108.83c0-10.59.38-19.11,1.15-25.56l-21.31.85v-21.88h142.06l1.71,55.13h-18.75c0-14.03-3.36-23.73-10.08-29.13-6.72-5.4-14.82-7.92-24.29-7.54l-10.23.29c-4.56.2-8.16.81-10.81,1.85-2.64,1.04-4.68,3.36-6.1,6.96-1.42,3.6-2.13,8.9-2.13,15.9v42.63h33.25c-.2-3.22-.58-11.46-1.15-24.71h21.88v69.04h-18.75c0-7.58-1.19-13.17-3.56-16.77-2.36-3.59-5.44-5.92-9.23-6.96-3.78-1.04-8.79-1.46-15.04-1.27l-7.4.27v46.6c0,10.24-.39,18.57-1.15,25h38.08c9.67,0,17.86-3.26,24.58-9.79,6.72-6.54,10.08-16.92,10.08-31.13h18.48l-1.44,62.52h-150.02v-18.75Z"/>
        <path d="M1568.67,290.73c-6.06,0-11.08-2.14-15.06-6.4-3.97-4.26-5.96-9.52-5.96-15.77s2.08-11.26,6.25-15.6c4.17-4.36,9-6.54,14.5-6.54,5.88,0,10.75,2.18,14.63,6.54,3.89,4.35,5.83,9.55,5.83,15.6s-1.85,11.51-5.54,15.77c-3.7,4.26-8.58,6.4-14.65,6.4Z"/>
      </g>
    </g>
  </g>
</svg>