<svg xmlns="http://www.w3.org/2000/svg" xmlns:xlink="http://www.w3.org/1999/xlink" width="2000" zoomAndPan="magnify" viewBox="0 0 1500 1499.999933" height="2000" preserveAspectRatio="xMidYMid meet" version="1.0"><defs><filter x="0%" y="0%" width="100%" height="100%" id="5eb87a5653"><feColorMatrix values="0 0 0 0 1 0 0 0 0 1 0 0 0 0 1 0 0 0 1 0" color-interpolation-filters="sRGB"/></filter><g/><clipPath id="ca82fb46ef"><path d="M 157.933594 766 L 1352 766 L 1352 901.835938 L 157.933594 901.835938 Z M 157.933594 766 " clip-rule="nonzero"/></clipPath><clipPath id="878b358c84"><path d="M 160.660156 812.183594 C 444.785156 797.203125 530.609375 794.820312 604.171875 791.320312 C 669.472656 788.378906 721.710938 784.320312 788.34375 781.660156 C 867.503906 778.578125 958.925781 776.199219 1048.214844 774.65625 C 1142.566406 772.976562 1299.289062 751.753906 1340.601562 772.558594 C 1361.398438 788.378906 1361.398438 840.332031 1340.867188 856.574219 C 1300.085938 878.136719 1147.363281 856.992188 1055.410156 858.535156 C 969.054688 859.933594 881.898438 862.175781 804.335938 865.253906 C 736.90625 867.917969 682.265625 872.117188 616.433594 875.199219 C 543.402344 878.558594 460.242188 880.660156 385.347656 884.300781 C 314.183594 887.800781 213.167969 911.296875 177.453125 896.621094 C 148 883.320312 160.660156 812.183594 160.660156 812.183594 " clip-rule="nonzero"/></clipPath><mask id="eb783bc068"><g filter="url(#5eb87a5653)"><rect x="-150" width="1800" fill="#000000" y="-149.999993" height="1799.99992" fill-opacity="0.7"/></g></mask><clipPath id="b1289ecec3"><path d="M 0.933594 0.800781 L 1194.917969 0.800781 L 1194.917969 135.835938 L 0.933594 135.835938 Z M 0.933594 0.800781 " clip-rule="nonzero"/></clipPath><clipPath id="0678767e9e"><path d="M 3.660156 46.183594 C 287.785156 31.203125 373.609375 28.820312 447.171875 25.320312 C 512.472656 22.378906 564.710938 18.320312 631.34375 15.660156 C 710.503906 12.578125 801.925781 10.199219 891.214844 8.65625 C 985.566406 6.976562 1142.289062 -14.246094 1183.601562 6.558594 C 1204.398438 22.378906 1204.398438 74.332031 1183.867188 90.574219 C 1143.085938 112.136719 990.363281 90.992188 898.410156 92.535156 C 812.054688 93.933594 724.898438 96.175781 647.335938 99.253906 C 579.90625 101.917969 525.265625 106.117188 459.433594 109.199219 C 386.402344 112.558594 303.242188 114.660156 228.347656 118.300781 C 157.183594 121.800781 56.167969 145.296875 20.453125 130.621094 C -9 117.320312 3.660156 46.183594 3.660156 46.183594 " clip-rule="nonzero"/></clipPath><clipPath id="d7c388df72"><rect x="0" width="1195" y="0" height="136"/></clipPath><clipPath id="7fc0660798"><rect x="0" width="1202" y="0" height="274"/></clipPath></defs><g clip-path="url(#ca82fb46ef)"><g clip-path="url(#878b358c84)"><g mask="url(#eb783bc068)"><g transform="matrix(1, 0, 0, 1, 157, 766)"><g clip-path="url(#d7c388df72)"><g clip-path="url(#b1289ecec3)"><g clip-path="url(#0678767e9e)"><path fill="#ffe222" d="M -7 0.957031 L 1194.738281 0.957031 L 1194.738281 136.363281 L -7 136.363281 Z M -7 0.957031 " fill-opacity="1" fill-rule="nonzero"/></g></g></g></g></g></g></g><g transform="matrix(1, 0, 0, 1, 150, 588)"><g clip-path="url(#7fc0660798)"><g fill="#000000" fill-opacity="1"><g transform="translate(0.0871933, 215.010457)"><g><path d="M 10.671875 -14.078125 C 14.515625 -14.222656 17.429688 -14.6875 19.421875 -15.46875 C 21.410156 -16.25 22.972656 -17.921875 24.109375 -20.484375 C 25.242188 -23.046875 25.8125 -27.097656 25.8125 -32.640625 L 25.8125 -114.375 C 25.8125 -122.332031 26.097656 -128.734375 26.671875 -133.578125 L 10.671875 -132.9375 L 10.671875 -149.359375 L 71.90625 -149.359375 L 71.90625 -135.28125 C 68.0625 -135.132812 65.144531 -134.671875 63.15625 -133.890625 C 61.164062 -133.109375 59.597656 -131.4375 58.453125 -128.875 C 57.316406 -126.3125 56.75 -122.257812 56.75 -116.71875 L 56.75 -35 C 56.75 -27.03125 56.46875 -20.628906 55.90625 -15.796875 C 60.457031 -16.222656 65.789062 -16.4375 71.90625 -16.4375 L 71.90625 0 L 10.671875 0 Z M 10.671875 -14.078125 "/></g></g></g><g fill="#000000" fill-opacity="1"><g transform="translate(82.663485, 215.010457)"><g><path d="M 55.90625 -85.140625 C 52.34375 -89.691406 48.429688 -95.023438 44.171875 -101.140625 L 43.953125 -101.140625 L 44.375 -35 C 44.375 -27.03125 44.09375 -20.628906 43.53125 -15.796875 C 48.082031 -16.222656 53.414062 -16.4375 59.53125 -16.4375 L 59.53125 0 L 10.875 0 L 10.875 -14.078125 C 14.71875 -14.222656 17.632812 -14.6875 19.625 -15.46875 C 21.625 -16.25 23.191406 -17.921875 24.328125 -20.484375 C 25.460938 -23.046875 26.03125 -27.097656 26.03125 -32.640625 L 25.609375 -114.375 C 25.609375 -123.90625 25.890625 -130.304688 26.453125 -133.578125 L 10.234375 -132.9375 L 10.234375 -149.359375 L 43.734375 -149.359375 L 109.03125 -67 C 115.007812 -59.175781 119.988281 -52.421875 123.96875 -46.734375 L 124.1875 -46.734375 L 124.1875 -114.375 C 124.1875 -123.613281 124.398438 -130.015625 124.828125 -133.578125 L 108.828125 -132.9375 L 108.828125 -149.359375 L 157.46875 -149.359375 L 157.46875 -135.28125 C 153.625 -135.132812 150.707031 -134.671875 148.71875 -133.890625 C 146.726562 -133.109375 145.164062 -131.4375 144.03125 -128.875 C 142.894531 -126.3125 142.328125 -122.257812 142.328125 -116.71875 L 142.328125 2.140625 L 124.1875 2.140625 Z M 55.90625 -85.140625 "/></g></g></g><g fill="#000000" fill-opacity="1"><g transform="translate(247.602707, 215.010457)"><g><path d="M 10.671875 -14.078125 C 14.515625 -14.222656 17.429688 -14.6875 19.421875 -15.46875 C 21.410156 -16.25 22.972656 -17.921875 24.109375 -20.484375 C 25.242188 -23.046875 25.8125 -27.097656 25.8125 -32.640625 L 25.8125 -114.375 C 25.8125 -122.332031 26.097656 -128.734375 26.671875 -133.578125 L 10.671875 -132.9375 L 10.671875 -149.359375 L 72.765625 -149.578125 C 90.546875 -149.578125 105.585938 -146.054688 117.890625 -139.015625 C 130.191406 -131.972656 139.363281 -122.832031 145.40625 -111.59375 C 151.457031 -100.351562 154.484375 -88.546875 154.484375 -76.171875 C 154.484375 -63.648438 151.601562 -51.59375 145.84375 -40 C 140.082031 -28.414062 130.976562 -18.851562 118.53125 -11.3125 C 106.082031 -3.769531 90.46875 0 71.6875 0 L 10.671875 0 Z M 76.171875 -15.578125 C 86.128906 -15.578125 94.453125 -18.207031 101.140625 -23.46875 C 107.828125 -28.726562 112.769531 -35.585938 115.96875 -44.046875 C 119.164062 -52.515625 120.765625 -61.726562 120.765625 -71.6875 C 120.765625 -93.3125 116.351562 -109.316406 107.53125 -119.703125 C 98.71875 -130.085938 86.273438 -135.28125 70.203125 -135.28125 C 65.367188 -135.28125 61.914062 -134.070312 59.84375 -131.65625 C 57.78125 -129.238281 56.75 -124.398438 56.75 -117.140625 L 56.75 -35 C 56.75 -27.03125 56.46875 -20.628906 55.90625 -15.796875 C 56.613281 -15.929688 57.960938 -16 59.953125 -16 L 69.140625 -15.796875 C 70.984375 -15.648438 73.328125 -15.578125 76.171875 -15.578125 Z M 76.171875 -15.578125 "/></g></g></g><g fill="#000000" fill-opacity="1"><g transform="translate(406.567425, 215.010457)"><g><path d="M 10.671875 -14.078125 C 14.515625 -14.222656 17.429688 -14.6875 19.421875 -15.46875 C 21.410156 -16.25 22.972656 -17.921875 24.109375 -20.484375 C 25.242188 -23.046875 25.8125 -27.097656 25.8125 -32.640625 L 25.8125 -114.375 C 25.8125 -122.332031 26.097656 -128.734375 26.671875 -133.578125 L 10.671875 -132.9375 L 10.671875 -149.359375 L 117.359375 -149.359375 L 118.640625 -107.96875 L 104.546875 -107.96875 C 104.546875 -118.488281 102.019531 -125.773438 96.96875 -129.828125 C 91.925781 -133.890625 85.847656 -135.78125 78.734375 -135.5 L 71.046875 -135.28125 C 67.640625 -135.132812 64.9375 -134.671875 62.9375 -133.890625 C 60.945312 -133.109375 59.414062 -131.363281 58.34375 -128.65625 C 57.28125 -125.957031 56.75 -121.976562 56.75 -116.71875 L 56.75 -84.703125 L 81.71875 -84.703125 C 81.582031 -87.128906 81.300781 -93.320312 80.875 -103.28125 L 97.296875 -103.28125 L 97.296875 -51.421875 L 83.21875 -51.421875 C 83.21875 -57.109375 82.328125 -61.300781 80.546875 -64 C 78.765625 -66.707031 76.453125 -68.453125 73.609375 -69.234375 C 70.765625 -70.015625 67 -70.335938 62.3125 -70.203125 L 56.75 -69.984375 L 56.75 -35 C 56.75 -27.3125 56.46875 -21.050781 55.90625 -16.21875 L 84.5 -16.21875 C 91.75 -16.21875 97.898438 -18.671875 102.953125 -23.578125 C 108.003906 -28.484375 110.53125 -36.269531 110.53125 -46.9375 L 124.390625 -46.9375 L 123.328125 0 L 10.671875 0 Z M 10.671875 -14.078125 "/></g></g></g><g fill="#000000" fill-opacity="1"><g transform="translate(539.713667, 215.010457)"><g><path d="M 10.671875 -14.078125 C 14.515625 -14.222656 17.429688 -14.6875 19.421875 -15.46875 C 21.410156 -16.25 22.972656 -17.921875 24.109375 -20.484375 C 25.242188 -23.046875 25.8125 -27.097656 25.8125 -32.640625 L 25.8125 -114.375 C 25.8125 -122.332031 26.097656 -128.734375 26.671875 -133.578125 L 10.671875 -132.9375 L 10.671875 -149.359375 L 71.90625 -149.359375 L 71.90625 -135.28125 C 68.0625 -135.132812 65.144531 -134.671875 63.15625 -133.890625 C 61.164062 -133.109375 59.597656 -131.4375 58.453125 -128.875 C 57.316406 -126.3125 56.75 -122.257812 56.75 -116.71875 L 56.75 -35 C 56.75 -27.3125 56.46875 -21.050781 55.90625 -16.21875 L 84.5 -16.21875 C 93.03125 -16.363281 99.640625 -19.382812 104.328125 -25.28125 C 109.023438 -31.1875 111.375 -39.828125 111.375 -51.203125 L 125.671875 -51.203125 L 124.390625 0 L 10.671875 0 Z M 10.671875 -14.078125 "/></g></g></g><g fill="#000000" fill-opacity="1"><g transform="translate(668.592468, 215.010457)"><g><path d="M 10.671875 -14.078125 C 14.515625 -14.222656 17.429688 -14.6875 19.421875 -15.46875 C 21.410156 -16.25 22.972656 -17.921875 24.109375 -20.484375 C 25.242188 -23.046875 25.8125 -27.097656 25.8125 -32.640625 L 25.8125 -114.375 C 25.8125 -122.332031 26.097656 -128.734375 26.671875 -133.578125 L 10.671875 -132.9375 L 10.671875 -149.359375 L 71.90625 -149.359375 L 71.90625 -135.28125 C 68.0625 -135.132812 65.144531 -134.671875 63.15625 -133.890625 C 61.164062 -133.109375 59.597656 -131.4375 58.453125 -128.875 C 57.316406 -126.3125 56.75 -122.257812 56.75 -116.71875 L 56.75 -35 C 56.75 -27.03125 56.46875 -20.628906 55.90625 -15.796875 C 60.457031 -16.222656 65.789062 -16.4375 71.90625 -16.4375 L 71.90625 0 L 10.671875 0 Z M 10.671875 -14.078125 "/></g></g></g><g fill="#000000" fill-opacity="1"><g transform="translate(751.168779, 215.010457)"><g><path d="M 10.671875 -14.078125 C 14.515625 -14.222656 17.429688 -14.6875 19.421875 -15.46875 C 21.410156 -16.25 22.972656 -17.921875 24.109375 -20.484375 C 25.242188 -23.046875 25.8125 -27.097656 25.8125 -32.640625 L 25.8125 -114.375 C 25.8125 -122.332031 26.097656 -128.734375 26.671875 -133.578125 L 10.671875 -132.9375 L 10.671875 -149.359375 L 69.78125 -149.796875 C 86.84375 -149.929688 100.207031 -146.867188 109.875 -140.609375 C 119.550781 -134.347656 124.390625 -125.175781 124.390625 -113.09375 C 124.390625 -106.125 121.796875 -99.6875 116.609375 -93.78125 C 111.421875 -87.875 103.773438 -83.570312 93.671875 -80.875 L 93.671875 -80.65625 C 107.328125 -78.519531 117.640625 -73.96875 124.609375 -67 C 131.578125 -60.03125 135.0625 -51.851562 135.0625 -42.46875 C 135.0625 -28.945312 130.257812 -18.488281 120.65625 -11.09375 C 111.0625 -3.695312 98.582031 0 83.21875 0 L 10.671875 0 Z M 67.859375 -84.0625 C 76.242188 -84.207031 82.320312 -86.875 86.09375 -92.0625 C 89.863281 -97.257812 91.75 -104.125 91.75 -112.65625 C 91.75 -120.34375 89.613281 -125.960938 85.34375 -129.515625 C 81.082031 -133.078125 75.894531 -134.859375 69.78125 -134.859375 C 66.789062 -134.859375 64.40625 -134.5 62.625 -133.78125 C 60.84375 -133.070312 59.414062 -131.398438 58.34375 -128.765625 C 57.28125 -126.140625 56.75 -122.191406 56.75 -116.921875 L 56.75 -83.859375 Z M 55.90625 -15.15625 C 65.289062 -15.15625 72.191406 -15.222656 76.609375 -15.359375 C 84.992188 -15.785156 91.25 -18.453125 95.375 -23.359375 C 99.5 -28.265625 101.5625 -34.847656 101.5625 -43.109375 C 101.5625 -52.203125 98.929688 -58.773438 93.671875 -62.828125 C 88.410156 -66.890625 81.867188 -68.921875 74.046875 -68.921875 C 66.222656 -68.921875 60.457031 -68.847656 56.75 -68.703125 L 56.75 -33.921875 C 56.75 -26.242188 56.46875 -19.988281 55.90625 -15.15625 Z M 55.90625 -15.15625 "/></g></g></g><g fill="#000000" fill-opacity="1"><g transform="translate(889.862744, 215.010457)"><g><path d="M 10.671875 -14.078125 C 14.515625 -14.222656 17.429688 -14.6875 19.421875 -15.46875 C 21.410156 -16.25 22.972656 -17.921875 24.109375 -20.484375 C 25.242188 -23.046875 25.8125 -27.097656 25.8125 -32.640625 L 25.8125 -114.375 C 25.8125 -122.332031 26.097656 -128.734375 26.671875 -133.578125 L 10.671875 -132.9375 L 10.671875 -149.359375 L 71.90625 -149.359375 L 71.90625 -135.28125 C 68.0625 -135.132812 65.144531 -134.671875 63.15625 -133.890625 C 61.164062 -133.109375 59.597656 -131.4375 58.453125 -128.875 C 57.316406 -126.3125 56.75 -122.257812 56.75 -116.71875 L 56.75 -35 C 56.75 -27.3125 56.46875 -21.050781 55.90625 -16.21875 L 84.5 -16.21875 C 93.03125 -16.363281 99.640625 -19.382812 104.328125 -25.28125 C 109.023438 -31.1875 111.375 -39.828125 111.375 -51.203125 L 125.671875 -51.203125 L 124.390625 0 L 10.671875 0 Z M 10.671875 -14.078125 "/></g></g></g><g fill="#000000" fill-opacity="1"><g transform="translate(1018.741545, 215.010457)"><g><path d="M 10.671875 -14.078125 C 14.515625 -14.222656 17.429688 -14.6875 19.421875 -15.46875 C 21.410156 -16.25 22.972656 -17.921875 24.109375 -20.484375 C 25.242188 -23.046875 25.8125 -27.097656 25.8125 -32.640625 L 25.8125 -114.375 C 25.8125 -122.332031 26.097656 -128.734375 26.671875 -133.578125 L 10.671875 -132.9375 L 10.671875 -149.359375 L 117.359375 -149.359375 L 118.640625 -107.96875 L 104.546875 -107.96875 C 104.546875 -118.488281 102.019531 -125.773438 96.96875 -129.828125 C 91.925781 -133.890625 85.847656 -135.78125 78.734375 -135.5 L 71.046875 -135.28125 C 67.640625 -135.132812 64.9375 -134.671875 62.9375 -133.890625 C 60.945312 -133.109375 59.414062 -131.363281 58.34375 -128.65625 C 57.28125 -125.957031 56.75 -121.976562 56.75 -116.71875 L 56.75 -84.703125 L 81.71875 -84.703125 C 81.582031 -87.128906 81.300781 -93.320312 80.875 -103.28125 L 97.296875 -103.28125 L 97.296875 -51.421875 L 83.21875 -51.421875 C 83.21875 -57.109375 82.328125 -61.300781 80.546875 -64 C 78.765625 -66.707031 76.453125 -68.453125 73.609375 -69.234375 C 70.765625 -70.015625 67 -70.335938 62.3125 -70.203125 L 56.75 -69.984375 L 56.75 -35 C 56.75 -27.3125 56.46875 -21.050781 55.90625 -16.21875 L 84.5 -16.21875 C 91.75 -16.21875 97.898438 -18.671875 102.953125 -23.578125 C 108.003906 -28.484375 110.53125 -36.269531 110.53125 -46.9375 L 124.390625 -46.9375 L 123.328125 0 L 10.671875 0 Z M 10.671875 -14.078125 "/></g></g></g><g fill="#000000" fill-opacity="1"><g transform="translate(1151.887787, 215.010457)"><g><path d="M 25.171875 3.40625 C 20.617188 3.40625 16.847656 1.804688 13.859375 -1.390625 C 10.878906 -4.585938 9.390625 -8.535156 9.390625 -13.234375 C 9.390625 -17.785156 10.953125 -21.695312 14.078125 -24.96875 C 17.210938 -28.238281 20.84375 -29.875 24.96875 -29.875 C 29.375 -29.875 33.035156 -28.238281 35.953125 -24.96875 C 38.867188 -21.695312 40.328125 -17.785156 40.328125 -13.234375 C 40.328125 -8.535156 38.9375 -4.585938 36.15625 -1.390625 C 33.382812 1.804688 29.722656 3.40625 25.171875 3.40625 Z M 25.171875 3.40625 "/></g></g></g></g></g></svg>