<svg xmlns="http://www.w3.org/2000/svg" xmlns:xlink="http://www.w3.org/1999/xlink" width="2000" zoomAndPan="magnify" viewBox="0 0 1500 1499.999933" height="2000" preserveAspectRatio="xMidYMid meet" version="1.0"><defs><filter x="0%" y="0%" width="100%" height="100%" id="9790f67abf"><feColorMatrix values="0 0 0 0 1 0 0 0 0 1 0 0 0 0 1 0 0 0 1 0" color-interpolation-filters="sRGB"/></filter><g/><clipPath id="ca20d64a1b"><path d="M 0.839844 240 L 290.761719 240 L 290.761719 351.917969 L 0.839844 351.917969 Z M 0.839844 240 " clip-rule="nonzero"/></clipPath><clipPath id="b09d7a060f"><path d="M -0.835938 244.960938 L 294.316406 238.390625 L 296.757812 348.101562 L 1.605469 354.671875 Z M -0.835938 244.960938 " clip-rule="nonzero"/></clipPath><clipPath id="49735a8797"><path d="M 7.777344 256.390625 C 187.882812 251.792969 257.277344 227.648438 279.382812 246.664062 C 298.210938 261.707031 300.980469 318.191406 283.535156 334.925781 C 263.15625 355.902344 190.515625 339.941406 144.496094 341.703125 C 99.152344 343.597656 31.210938 365.097656 9.765625 345.585938 C -8.730469 330.242188 7.777344 256.390625 7.777344 256.390625 " clip-rule="nonzero"/></clipPath><mask id="2c4f8afc7a"><g filter="url(#9790f67abf)"><rect x="-927" width="2160" fill="#000000" y="-897.999985" height="2159.999904" fill-opacity="0.7"/></g></mask><clipPath id="6ecd757845"><path d="M 0.839844 0.558594 L 290.761719 0.558594 L 290.761719 111.917969 L 0.839844 111.917969 Z M 0.839844 0.558594 " clip-rule="nonzero"/></clipPath><clipPath id="d7a86e0853"><path d="M -0.835938 4.960938 L 294.316406 -1.609375 L 296.757812 108.101562 L 1.605469 114.671875 Z M -0.835938 4.960938 " clip-rule="nonzero"/></clipPath><clipPath id="7446aa72b6"><path d="M 7.777344 16.390625 C 187.882812 11.792969 257.277344 -12.351562 279.382812 6.664062 C 298.210938 21.707031 300.980469 78.191406 283.535156 94.925781 C 263.15625 115.902344 190.515625 99.941406 144.496094 101.703125 C 99.152344 103.597656 31.210938 125.097656 9.765625 105.585938 C -8.730469 90.242188 7.777344 16.390625 7.777344 16.390625 " clip-rule="nonzero"/></clipPath><clipPath id="02ee04e798"><rect x="0" width="291" y="0" height="112"/></clipPath><clipPath id="7758a35e88"><rect x="0" width="291" y="0" height="352"/></clipPath></defs><g transform="matrix(1, 0, 0, 1, 597, 568)"><g clip-path="url(#7758a35e88)"><g clip-path="url(#ca20d64a1b)"><g clip-path="url(#b09d7a060f)"><g clip-path="url(#49735a8797)"><g mask="url(#2c4f8afc7a)"><g transform="matrix(1, 0, 0, 1, 0.000000000000113687, 240)"><g clip-path="url(#02ee04e798)"><g clip-path="url(#6ecd757845)"><g clip-path="url(#d7a86e0853)"><g clip-path="url(#7446aa72b6)"><path fill="#ffe222" d="M 0.84375 6.972656 L 288.222656 0.574219 L 290.554688 105.375 L 3.179688 111.769531 Z M 0.84375 6.972656 " fill-opacity="1" fill-rule="nonzero"/></g></g></g></g></g></g></g></g></g><g fill="#000000" fill-opacity="1"><g transform="translate(77.174467, 271.043429)"><g><path d="M 13.4375 -17.75 C 18.28125 -17.925781 21.957031 -18.503906 24.46875 -19.484375 C 26.976562 -20.472656 28.945312 -22.582031 30.375 -25.8125 C 31.8125 -29.039062 32.53125 -34.148438 32.53125 -41.140625 L 32.53125 -144.125 C 32.53125 -154.164062 32.890625 -162.234375 33.609375 -168.328125 L 13.4375 -167.515625 L 13.4375 -188.21875 L 90.609375 -188.21875 L 90.609375 -170.484375 C 85.773438 -170.296875 82.101562 -169.707031 79.59375 -168.71875 C 77.082031 -167.738281 75.109375 -165.632812 73.671875 -162.40625 C 72.242188 -159.175781 71.53125 -154.066406 71.53125 -147.078125 L 71.53125 -44.09375 C 71.53125 -34.0625 71.171875 -25.992188 70.453125 -19.890625 C 76.179688 -20.429688 82.898438 -20.703125 90.609375 -20.703125 L 90.609375 0 L 13.4375 0 Z M 13.4375 -17.75 "/></g></g></g><g fill="#000000" fill-opacity="1"><g transform="translate(181.237778, 271.043429)"><g><path d="M 31.734375 4.296875 C 25.992188 4.296875 21.238281 2.28125 17.46875 -1.75 C 13.707031 -5.78125 11.828125 -10.753906 11.828125 -16.671875 C 11.828125 -22.410156 13.796875 -27.335938 17.734375 -31.453125 C 21.679688 -35.578125 26.253906 -37.640625 31.453125 -37.640625 C 37.015625 -37.640625 41.632812 -35.578125 45.3125 -31.453125 C 48.988281 -27.335938 50.828125 -22.410156 50.828125 -16.671875 C 50.828125 -10.753906 49.078125 -5.78125 45.578125 -1.75 C 42.078125 2.28125 37.460938 4.296875 31.734375 4.296875 Z M 31.734375 4.296875 "/></g></g></g></g></g></svg>